<svg width="68" height="68" viewBox="0 0 68 68" fill="none" xmlns="http://www.w3.org/2000/svg">
<circle cx="33.6992" cy="33.6992" r="32.9665" fill="#133573" stroke="white" stroke-width="1.46528"/>
<g clip-path="url(#clip0_2017_160)">
<rect width="43.9585" height="43.9585" transform="translate(11.7197 11.729)" fill="#133573"/>
<path d="M27.4949 17.8211C27.568 17.988 27.5719 18.177 27.5056 18.3467C27.4394 18.5164 27.3085 18.6528 27.1416 18.726C23.3752 20.3729 20.3683 23.3798 18.7214 27.1463C18.6476 27.312 18.5111 27.4418 18.3419 27.5073C18.1727 27.5728 17.9844 27.5686 17.8182 27.4958C17.652 27.4229 17.5214 27.2872 17.455 27.1184C17.3885 26.9496 17.3915 26.7613 17.4634 26.5946C19.2485 22.5122 22.5075 19.2532 26.5899 17.4681C26.6725 17.4319 26.7615 17.4123 26.8516 17.4104C26.9418 17.4085 27.0315 17.4244 27.1155 17.4572C27.1995 17.49 27.2763 17.539 27.3414 17.6015C27.4065 17.6639 27.4586 17.7386 27.4949 17.8211ZM18.7214 40.2629C18.6483 40.0961 18.5118 39.9652 18.3421 39.8989C18.1724 39.8327 17.9834 39.8366 17.8166 39.9097C17.6497 39.9829 17.5188 40.1193 17.4526 40.289C17.3863 40.4587 17.3902 40.6478 17.4634 40.8146C19.2485 44.897 22.5075 48.1561 26.5899 49.9412C26.6727 49.9787 26.7621 49.9994 26.853 50.0021C26.9439 50.0048 27.0344 49.9894 27.1193 49.9569C27.2041 49.9244 27.2817 49.8753 27.3475 49.8126C27.4133 49.7498 27.466 49.6746 27.5025 49.5914C27.539 49.5081 27.5586 49.4185 27.5602 49.3276C27.5618 49.2367 27.5453 49.1464 27.5117 49.0619C27.4782 48.9774 27.4281 48.9004 27.3646 48.8354C27.3011 48.7704 27.2252 48.7187 27.1416 48.6832C23.3751 47.0362 20.3683 44.0294 18.7214 40.2629ZM49.7156 39.5597C49.6322 39.5253 49.5429 39.5076 49.4527 39.5078C49.3625 39.5079 49.2732 39.5258 49.1899 39.5605C49.1066 39.5951 49.031 39.6458 48.9673 39.7097C48.9036 39.7736 48.8531 39.8494 48.8188 39.9328C47.1915 43.8384 44.1273 46.9705 40.2584 48.6831C40.1747 48.7186 40.0988 48.7703 40.0353 48.8353C39.9718 48.9004 39.9218 48.9773 39.8882 49.0618C39.8546 49.1463 39.8381 49.2366 39.8397 49.3275C39.8413 49.4184 39.8609 49.508 39.8975 49.5913C39.934 49.6746 39.9866 49.7497 40.0524 49.8125C40.1182 49.8752 40.1958 49.9243 40.2806 49.9568C40.3655 49.9894 40.456 50.0047 40.5469 50.002C40.6378 49.9993 40.7272 49.9786 40.81 49.9411C45.0109 48.0952 48.3355 44.6969 50.0888 40.4565C50.1582 40.2882 50.1579 40.0991 50.0879 39.931C50.0179 39.7629 49.8841 39.6295 49.7158 39.56L49.7156 39.5597ZM49.1524 27.2133C49.2678 27.2133 49.3814 27.1841 49.4826 27.1286C49.5837 27.073 49.6693 26.9929 49.7313 26.8955C49.7933 26.7982 49.8298 26.6868 49.8374 26.5716C49.845 26.4564 49.8234 26.3412 49.7747 26.2365C47.9535 22.3199 44.766 19.2021 40.81 17.468C40.7274 17.4318 40.6384 17.4122 40.5483 17.4104C40.4581 17.4085 40.3684 17.4244 40.2844 17.4572C40.2004 17.49 40.1236 17.5391 40.0585 17.6015C39.9935 17.664 39.9413 17.7387 39.9051 17.8213C39.8689 17.9039 39.8493 17.9928 39.8474 18.083C39.8456 18.1732 39.8615 18.2629 39.8943 18.3469C39.9271 18.4309 39.9762 18.5077 40.0386 18.5727C40.1011 18.6378 40.1757 18.6899 40.2584 18.7262C43.9082 20.326 46.8491 23.2025 48.5293 26.8161C48.5845 26.9348 48.6725 27.0352 48.7829 27.1056C48.8933 27.176 49.0215 27.2134 49.1524 27.2133ZM38.6453 54.997C38.6453 55.1792 38.5729 55.3539 38.4441 55.4827C38.3153 55.6115 38.1406 55.6838 37.9584 55.6838H29.4415C29.2593 55.6838 29.0846 55.6115 28.9558 55.4827C28.827 55.3539 28.7546 55.1792 28.7546 54.997V46.48C28.7546 46.2979 28.827 46.1232 28.9558 45.9944C29.0846 45.8655 29.2593 45.7932 29.4415 45.7932H37.9584C38.1406 45.7932 38.3153 45.8655 38.4441 45.9944C38.5729 46.1232 38.6453 46.2979 38.6453 46.48V54.997ZM37.2716 47.1669H30.1283V54.3101H37.2716V47.1669ZM32.3919 52.6913C32.4557 52.7551 32.5314 52.8057 32.6148 52.8402C32.6981 52.8747 32.7874 52.8925 32.8776 52.8925C32.9678 52.8925 33.0571 52.8747 33.1405 52.8402C33.2238 52.8057 33.2995 52.7551 33.3633 52.6913L36.2977 49.757C36.4265 49.6282 36.4989 49.4535 36.4989 49.2713C36.4989 49.0891 36.4266 48.9144 36.2978 48.7856C36.1689 48.6568 35.9942 48.5844 35.8121 48.5844C35.6299 48.5844 35.4552 48.6567 35.3263 48.7855L32.8776 51.2343L32.0736 50.4303C32.0098 50.3665 31.9341 50.3159 31.8507 50.2814C31.7674 50.2469 31.6781 50.2291 31.5879 50.2291C31.4977 50.2291 31.4084 50.2469 31.325 50.2814C31.2417 50.3159 31.166 50.3665 31.1022 50.4303C31.0384 50.4941 30.9878 50.5698 30.9533 50.6531C30.9188 50.7365 30.901 50.8258 30.901 50.916C30.901 51.0062 30.9188 51.0955 30.9533 51.1788C30.9878 51.2622 31.0384 51.3379 31.1022 51.4017L32.3919 52.6913ZM29.4415 21.616C29.2593 21.616 29.0846 21.5436 28.9558 21.4148C28.827 21.286 28.7546 21.1113 28.7546 20.9292V12.4122C28.7546 12.23 28.827 12.0553 28.9558 11.9265C29.0846 11.7977 29.2593 11.7253 29.4415 11.7253H37.9584C38.1406 11.7253 38.3153 11.7977 38.4441 11.9265C38.5729 12.0553 38.6453 12.23 38.6453 12.4122V20.9292C38.6453 21.1113 38.5729 21.286 38.4441 21.4148C38.3153 21.5436 38.1406 21.616 37.9584 21.616H29.4415ZM30.1283 20.2423H37.2716V13.099H30.1283V20.2423ZM35.3263 14.7178L32.8776 17.1665L32.0736 16.3625C31.9445 16.235 31.7702 16.1637 31.5888 16.1643C31.4073 16.1648 31.2335 16.2371 31.1052 16.3654C30.9769 16.4937 30.9045 16.6676 30.904 16.849C30.9034 17.0305 30.9747 17.2047 31.1022 17.3338L32.3919 18.6236C32.4557 18.6873 32.5314 18.7379 32.6148 18.7725C32.6981 18.807 32.7874 18.8248 32.8776 18.8248C32.9678 18.8248 33.0571 18.807 33.1405 18.7725C33.2238 18.7379 33.2995 18.6873 33.3633 18.6236L36.2977 15.6891C36.4252 15.56 36.4965 15.3857 36.4959 15.2043C36.4954 15.0228 36.423 14.849 36.2947 14.7207C36.1664 14.5924 35.9926 14.5201 35.8111 14.5195C35.6297 14.519 35.4554 14.5903 35.3263 14.7178ZM55.6758 37.619C55.6758 37.8011 55.6034 37.9758 55.4746 38.1046C55.3458 38.2334 55.1711 38.3058 54.9889 38.3058H46.472C46.2898 38.3058 46.1151 38.2334 45.9863 38.1046C45.8575 37.9758 45.7851 37.8011 45.7851 37.619V29.102C45.7851 28.9198 45.8575 28.7451 45.9863 28.6163C46.1151 28.4875 46.2898 28.4151 46.472 28.4151H54.9889C55.1711 28.4151 55.3458 28.4875 55.4746 28.6163C55.6034 28.7451 55.6758 28.9198 55.6758 29.102V37.619ZM54.3021 29.7889H47.1588V36.9321H54.3021V29.7889ZM49.4225 35.3134C49.5513 35.4422 49.726 35.5145 49.9082 35.5145C50.0903 35.5145 50.265 35.4422 50.3938 35.3134L53.3283 32.379C53.4571 32.2502 53.5295 32.0754 53.5295 31.8933C53.5295 31.7111 53.4571 31.5364 53.3283 31.4076C53.1995 31.2788 53.0248 31.2064 52.8426 31.2064C52.6604 31.2064 52.4857 31.2788 52.3569 31.4076L49.9079 33.8564L49.1039 33.0523C48.9748 32.9248 48.8005 32.8536 48.6191 32.8541C48.4376 32.8547 48.2638 32.927 48.1355 33.0553C48.0072 33.1836 47.9349 33.3575 47.9343 33.5389C47.9338 33.7204 48.0051 33.8947 48.1326 34.0237L49.4225 35.3134ZM12.4076 28.7593H20.9245C21.1067 28.7593 21.2814 28.8316 21.4102 28.9604C21.539 29.0892 21.6114 29.2639 21.6114 29.4461V37.9631C21.6114 38.1452 21.539 38.3199 21.4102 38.4488C21.2814 38.5776 21.1067 38.6499 20.9245 38.6499H12.4076C12.2254 38.6499 12.0507 38.5776 11.9219 38.4488C11.7931 38.3199 11.7207 38.1452 11.7207 37.9631V29.4461C11.7207 29.2639 11.7931 29.0892 11.9219 28.9604C12.0507 28.8316 12.2254 28.7593 12.4076 28.7593ZM13.0944 37.2762H20.2377V30.133H13.0944V37.2762ZM18.2924 31.7516L15.8437 34.2004L15.0397 33.3965C14.9108 33.2676 14.7361 33.1953 14.554 33.1953C14.3718 33.1953 14.1971 33.2676 14.0683 33.3965C13.9395 33.5253 13.8671 33.7 13.8671 33.8821C13.8671 34.0643 13.9395 34.239 14.0683 34.3678L15.358 35.6575C15.4218 35.7213 15.4975 35.7719 15.5808 35.8064C15.6642 35.8409 15.7535 35.8587 15.8437 35.8587C15.9339 35.8587 16.0232 35.8409 16.1066 35.8064C16.1899 35.7719 16.2656 35.7213 16.3294 35.6575L19.2638 32.723C19.3913 32.5939 19.4626 32.4196 19.462 32.2382C19.4614 32.0567 19.3891 31.8829 19.2608 31.7546C19.1325 31.6263 18.9587 31.554 18.7772 31.5535C18.5958 31.5529 18.4215 31.6241 18.2924 31.7516ZM28.1902 25.0381L29.977 26.175C30.3099 26.0101 30.6534 25.8676 31.0053 25.7484L31.4649 23.6821C31.4988 23.5295 31.5837 23.393 31.7057 23.2952C31.8277 23.1974 31.9793 23.1442 32.1357 23.1442H35.2608C35.4171 23.1443 35.5687 23.1975 35.6905 23.2953C35.8124 23.393 35.8974 23.5294 35.9313 23.682L36.3909 25.7482C36.7427 25.8674 37.0862 26.01 37.4191 26.1749L39.2059 25.0384C39.3378 24.9546 39.4942 24.9182 39.6496 24.9352C39.8049 24.9523 39.9497 25.0218 40.0602 25.1323L42.2708 27.3426C42.3813 27.4531 42.4508 27.598 42.4679 27.7533C42.4849 27.9086 42.4485 28.0651 42.3647 28.1969L41.2279 29.9834C41.3927 30.3163 41.5353 30.6598 41.6545 31.0116L43.7208 31.4712C43.8734 31.5051 44.0098 31.5901 44.1076 31.7121C44.2054 31.834 44.2587 31.9857 44.2586 32.142V35.2672C44.2586 35.4234 44.2053 35.575 44.1075 35.6969C44.0098 35.8188 43.8734 35.9037 43.7209 35.9376L41.6546 36.3972C41.5354 36.7491 41.3928 37.0926 41.2279 37.4255L42.3644 39.2122C42.4483 39.344 42.4847 39.5005 42.4676 39.6559C42.4506 39.8112 42.3811 39.9561 42.2706 40.0666L40.0602 42.2773C39.9497 42.3877 39.8048 42.4572 39.6495 42.4743C39.4942 42.4913 39.3378 42.4549 39.2059 42.371L37.4194 41.2342C37.0866 41.3991 36.7431 41.5417 36.3912 41.6609L35.9316 43.7271C35.8977 43.8797 35.8127 44.0162 35.6908 44.114C35.5688 44.2118 35.4171 44.265 35.2608 44.2649H32.1357C31.9794 44.2649 31.8278 44.2117 31.7059 44.1139C31.584 44.0161 31.4991 43.8797 31.4652 43.7272L31.0056 41.661C30.6538 41.5418 30.3103 41.3992 29.9774 41.2343L28.1905 42.3708C28.0587 42.4546 27.9022 42.4911 27.7469 42.474C27.5916 42.457 27.4468 42.3875 27.3363 42.277L25.1256 40.0666C25.0151 39.9561 24.9456 39.8112 24.9286 39.6559C24.9115 39.5005 24.9479 39.344 25.0318 39.2122L26.1683 37.4255C26.0034 37.0926 25.8609 36.7491 25.7417 36.3973L23.6754 35.9376C23.5229 35.9037 23.3865 35.8187 23.2888 35.6968C23.1911 35.5749 23.1379 35.4234 23.1379 35.2672V32.142C23.1379 31.9858 23.1912 31.8342 23.2889 31.7123C23.3867 31.5904 23.5231 31.5055 23.6756 31.4716L25.7418 31.012C25.8611 30.6601 26.0036 30.3166 26.1685 29.9837L25.0321 28.1969C24.9482 28.0651 24.9118 27.9086 24.9289 27.7533C24.9459 27.598 25.0154 27.4531 25.1259 27.3426L27.3363 25.132C27.4467 25.0216 27.5915 24.9522 27.7468 24.9351C27.902 24.918 28.0584 24.9544 28.1902 25.0382V25.0381ZM29.5757 27.5473L27.9178 26.4927L26.4863 27.9241L27.5409 29.582C27.6074 29.6866 27.6444 29.8071 27.6479 29.931C27.6515 30.0548 27.6214 30.1774 27.561 30.2855C27.2965 30.759 27.0879 31.2616 26.9395 31.7832C26.9057 31.9024 26.8403 32.0101 26.7503 32.0952C26.6602 32.1802 26.5488 32.2393 26.4279 32.2662L24.5116 32.6925V34.7167L26.4283 35.143C26.5492 35.1699 26.6606 35.229 26.7507 35.314C26.8407 35.399 26.9061 35.5068 26.94 35.626C27.0883 36.1476 27.2969 36.6502 27.5614 37.1236C27.6219 37.2318 27.652 37.3544 27.6485 37.4784C27.6449 37.6023 27.6079 37.723 27.5413 37.8276L26.4863 39.4851L27.9178 40.9165L29.5757 39.862C29.6802 39.7955 29.8008 39.7585 29.9246 39.755C30.0485 39.7514 30.171 39.7814 30.2792 39.8418C30.7526 40.1064 31.2551 40.3149 31.7768 40.4633C31.8959 40.4971 32.0037 40.5625 32.0888 40.6526C32.1738 40.7426 32.2329 40.854 32.2598 40.9749L32.6862 42.8912H34.7103L35.1367 40.9745C35.1636 40.8536 35.2227 40.7422 35.3077 40.6521C35.3927 40.5621 35.5005 40.4967 35.6196 40.4629C36.1412 40.3145 36.6438 40.106 37.1172 39.8414C37.2254 39.781 37.3479 39.751 37.4718 39.7545C37.5957 39.7581 37.7163 39.7951 37.8208 39.8616L39.4787 40.9165L40.9102 39.4851L39.8556 37.8272C39.7891 37.7227 39.7521 37.6021 39.7485 37.4782C39.745 37.3544 39.775 37.2318 39.8354 37.1237C40.1 36.6503 40.3086 36.1477 40.4569 35.6261C40.4907 35.5069 40.5561 35.3991 40.6462 35.3141C40.7363 35.229 40.8477 35.1699 40.9686 35.143L42.8849 34.7167V32.6925L40.9681 32.2662C40.8472 32.2393 40.7359 32.1802 40.6458 32.0952C40.5557 32.0102 40.4903 31.9024 40.4565 31.7833C40.3082 31.2617 40.0996 30.759 39.8351 30.2856C39.7747 30.1774 39.7446 30.0549 39.7482 29.9311C39.7517 29.8072 39.7887 29.6866 39.8552 29.582L40.9102 27.9241L39.4787 26.4927L37.8208 27.5472C37.7163 27.6137 37.5957 27.6507 37.4718 27.6542C37.348 27.6578 37.2255 27.6277 37.1173 27.5673C36.6439 27.3028 36.1413 27.0943 35.6196 26.9459C35.5005 26.9121 35.3927 26.8467 35.3077 26.7566C35.2227 26.6665 35.1636 26.5552 35.1367 26.4343L34.7103 24.518H32.6862L32.2598 26.4347C32.2329 26.5556 32.1739 26.6669 32.0889 26.757C32.0039 26.8471 31.8961 26.9125 31.777 26.9463C31.2554 27.0947 30.7527 27.3032 30.2793 27.5677C30.1711 27.6281 30.0485 27.6581 29.9247 27.6546C29.8008 27.651 29.6802 27.6139 29.5757 27.5474V27.5473ZM28.1342 33.7046C28.1342 32.6041 28.4605 31.5284 29.0719 30.6134C29.6833 29.6984 30.5523 28.9852 31.569 28.5641C32.5857 28.143 33.7044 28.0328 34.7837 28.2475C35.863 28.4622 36.8544 28.9921 37.6326 29.7702C38.4107 30.5484 38.9407 31.5398 39.1553 32.6191C39.37 33.6984 39.2598 34.8172 38.8387 35.8338C38.4176 36.8505 37.7044 37.7195 36.7894 38.3309C35.8744 38.9423 34.7987 39.2686 33.6982 39.2686C32.2231 39.2669 30.8088 38.6802 29.7657 37.6371C28.7227 36.594 28.1359 35.1797 28.1342 33.7046ZM29.5079 33.7046C29.5079 34.5334 29.7537 35.3435 30.2141 36.0326C30.6746 36.7217 31.329 37.2588 32.0947 37.5759C32.8604 37.8931 33.7029 37.9761 34.5157 37.8144C35.3286 37.6527 36.0752 37.2536 36.6612 36.6676C37.2473 36.0816 37.6463 35.3349 37.808 34.5221C37.9697 33.7092 37.8867 32.8667 37.5696 32.101C37.2524 31.3354 36.7153 30.6809 36.0263 30.2205C35.3372 29.76 34.527 29.5143 33.6982 29.5143C32.5873 29.5156 31.5222 29.9574 30.7366 30.743C29.9511 31.5286 29.5092 32.5936 29.5079 33.7046Z" fill="white"/>
</g>
<defs>
<clipPath id="clip0_2017_160">
<rect width="43.9585" height="43.9585" fill="white" transform="translate(11.7197 11.729)"/>
</clipPath>
</defs>
</svg>
