<svg width="68" height="68" viewBox="0 0 68 68" fill="none" xmlns="http://www.w3.org/2000/svg">
<circle cx="33.6992" cy="33.6992" r="32.9665" fill="#133573" stroke="white" stroke-width="1.46528"/>
<g clip-path="url(#clip0_2017_158)">
<rect width="36.4428" height="36.4428" transform="translate(15.3821 15.3843)" fill="#133573"/>
<path d="M48.1899 51.2232H19.0356C18.0694 51.2223 17.143 50.838 16.4598 50.1548C15.7766 49.4715 15.3923 48.5452 15.3914 47.5789V27.5354C15.3923 26.5692 15.7766 25.6428 16.4598 24.9596C17.143 24.2763 18.0694 23.8921 19.0356 23.8911H48.1899C49.1561 23.8921 50.0825 24.2763 50.7657 24.9596C51.4489 25.6428 51.8332 26.5692 51.8342 27.5354V47.5789C51.8332 48.5452 51.4489 49.4715 50.7657 50.1548C50.0825 50.838 49.1561 51.2223 48.1899 51.2232ZM19.0356 25.1059C18.3913 25.1059 17.7733 25.3618 17.3177 25.8175C16.8621 26.2731 16.6061 26.891 16.6061 27.5354V47.5789C16.6061 48.2233 16.8621 48.8413 17.3177 49.2969C17.7733 49.7525 18.3913 50.0085 19.0356 50.0085H48.1899C48.8342 50.0085 49.4522 49.7525 49.9078 49.2969C50.3634 48.8413 50.6194 48.2233 50.6194 47.5789V27.5354C50.6194 26.891 50.3634 26.2731 49.9078 25.8175C49.4522 25.3618 48.8342 25.1059 48.1899 25.1059H19.0356Z" fill="white"/>
<path d="M15.9998 31.7856C15.8387 31.7856 15.6842 31.7216 15.5703 31.6077C15.4564 31.4938 15.3924 31.3393 15.3924 31.1782V18.4232C15.3829 18.1016 15.4392 17.7814 15.558 17.4824C15.6767 17.1833 15.8553 16.9117 16.0828 16.6842C16.3104 16.4566 16.582 16.278 16.8811 16.1593C17.1801 16.0406 17.5003 15.9842 17.8219 15.9937H29.3621C29.4651 15.9937 29.5665 16.0199 29.6566 16.0698C29.7467 16.1198 29.8226 16.1918 29.8772 16.2792L32.7355 20.8527H43.3319C43.8154 20.8344 44.2974 20.9161 44.7479 21.0928C45.1983 21.2695 45.6074 21.5372 45.9495 21.8794C46.2917 22.2215 46.5595 22.6306 46.7361 23.081C46.9128 23.5315 46.9945 24.0135 46.9762 24.497C46.9762 24.6581 46.9122 24.8126 46.7983 24.9265C46.6844 25.0404 46.5299 25.1044 46.3688 25.1044C46.2077 25.1044 46.0532 25.0404 45.9393 24.9265C45.8254 24.8126 45.7614 24.6581 45.7614 24.497C45.7614 22.0948 43.4309 22.0675 43.3319 22.0675H32.399C32.296 22.0675 32.1947 22.0413 32.1046 21.9914C32.0145 21.9414 31.9386 21.8694 31.884 21.782L29.0256 17.2085H17.8219C17.6597 17.1979 17.497 17.2221 17.3449 17.2794C17.1927 17.3368 17.0545 17.4259 16.9395 17.5409C16.8246 17.6558 16.7355 17.794 16.6781 17.9462C16.6208 18.0983 16.5966 18.261 16.6071 18.4232V31.1782C16.6071 31.3393 16.5432 31.4938 16.4292 31.6077C16.3153 31.7216 16.1609 31.7856 15.9998 31.7856Z" fill="white"/>
<path d="M37.2497 40.8967H22.6726C22.1893 40.8967 21.7259 40.7048 21.3842 40.3631C21.0424 40.0213 20.8505 39.5579 20.8505 39.0746V28.7491C20.8505 28.2659 21.0424 27.8024 21.3842 27.4607C21.7259 27.119 22.1893 26.927 22.6726 26.927H37.2497C37.733 26.927 38.1965 27.119 38.5382 27.4607C38.8799 27.8024 39.0719 28.2659 39.0719 28.7491V39.0746C39.0719 39.5579 38.8799 40.0213 38.5382 40.3631C38.1965 40.7048 37.733 40.8967 37.2497 40.8967ZM22.6726 28.1418C22.5115 28.1418 22.357 28.2058 22.2431 28.3197C22.1292 28.4336 22.0652 28.5881 22.0652 28.7491V39.0746C22.0652 39.2357 22.1292 39.3902 22.2431 39.5041C22.357 39.618 22.5115 39.682 22.6726 39.682H37.2497C37.4108 39.682 37.5653 39.618 37.6792 39.5041C37.7931 39.3902 37.8571 39.2357 37.8571 39.0746V28.7491C37.8571 28.5881 37.7931 28.4336 37.6792 28.3197C37.5653 28.2058 37.4108 28.1418 37.2497 28.1418H22.6726Z" fill="white"/>
<path d="M39.6821 43.3343H25.105C24.6217 43.3343 24.1582 43.1423 23.8165 42.8006C23.4748 42.4589 23.2828 41.9954 23.2828 41.5121V40.2974C23.2828 40.1363 23.3468 39.9818 23.4607 39.8679C23.5746 39.754 23.7291 39.69 23.8902 39.69C24.0513 39.69 24.2058 39.754 24.3197 39.8679C24.4336 39.9818 24.4976 40.1363 24.4976 40.2974V41.5121C24.4976 41.6732 24.5616 41.8277 24.6755 41.9416C24.7894 42.0555 24.9439 42.1195 25.105 42.1195H39.6821C39.8432 42.1195 39.9977 42.0555 40.1116 41.9416C40.2255 41.8277 40.2895 41.6732 40.2895 41.5121V31.7941C40.2895 31.633 40.2255 31.4785 40.1116 31.3646C39.9977 31.2507 39.8432 31.1867 39.6821 31.1867H38.4673C38.3063 31.1867 38.1518 31.1227 38.0379 31.0088C37.924 30.8949 37.86 30.7404 37.86 30.5793C37.86 30.4182 37.924 30.2637 38.0379 30.1498C38.1518 30.0359 38.3063 29.9719 38.4673 29.9719H39.6821C40.1654 29.9719 40.6288 30.1639 40.9705 30.5056C41.3123 30.8473 41.5042 31.3108 41.5042 31.7941V41.5121C41.5042 41.9954 41.3123 42.4589 40.9705 42.8006C40.6288 43.1423 40.1654 43.3343 39.6821 43.3343Z" fill="white"/>
<path d="M42.1098 45.7542H27.5327C27.0495 45.7542 26.586 45.5622 26.2443 45.2205C25.9025 44.8788 25.7106 44.4153 25.7106 43.9321V42.7173C25.7106 42.5562 25.7746 42.4017 25.8885 42.2878C26.0024 42.1739 26.1569 42.1099 26.318 42.1099C26.479 42.1099 26.6335 42.1739 26.7474 42.2878C26.8613 42.4017 26.9253 42.5562 26.9253 42.7173V43.9321C26.9253 44.0932 26.9893 44.2476 27.1032 44.3616C27.2171 44.4755 27.3716 44.5394 27.5327 44.5394H42.1098C42.2709 44.5394 42.4254 44.4755 42.5393 44.3616C42.6532 44.2476 42.7172 44.0932 42.7172 43.9321V34.214C42.7172 34.0529 42.6532 33.8984 42.5393 33.7845C42.4254 33.6706 42.2709 33.6066 42.1098 33.6066H40.8951C40.734 33.6066 40.5795 33.5426 40.4656 33.4287C40.3517 33.3148 40.2877 33.1603 40.2877 32.9992C40.2877 32.8381 40.3517 32.6836 40.4656 32.5697C40.5795 32.4558 40.734 32.3918 40.8951 32.3918H42.1098C42.5931 32.3918 43.0566 32.5838 43.3983 32.9255C43.74 33.2673 43.932 33.7307 43.932 34.214V43.9321C43.932 44.4153 43.74 44.8788 43.3983 45.2205C43.0566 45.5622 42.5931 45.7542 42.1098 45.7542Z" fill="white"/>
<path d="M44.5468 48.1854H29.9697C29.4865 48.1854 29.023 47.9934 28.6813 47.6517C28.3396 47.31 28.1476 46.8465 28.1476 46.3632V45.1485C28.1476 44.9874 28.2116 44.8329 28.3255 44.719C28.4394 44.6051 28.5939 44.5411 28.755 44.5411C28.9161 44.5411 29.0705 44.6051 29.1844 44.719C29.2984 44.8329 29.3623 44.9874 29.3623 45.1485V46.3632C29.3623 46.5243 29.4263 46.6788 29.5402 46.7927C29.6541 46.9066 29.8086 46.9706 29.9697 46.9706H44.5468C44.7079 46.9706 44.8624 46.9066 44.9763 46.7927C45.0902 46.6788 45.1542 46.5243 45.1542 46.3632V36.6451C45.1542 36.4841 45.0902 36.3296 44.9763 36.2157C44.8624 36.1017 44.7079 36.0378 44.5468 36.0378H43.3321C43.171 36.0378 43.0165 35.9738 42.9026 35.8599C42.7887 35.746 42.7247 35.5915 42.7247 35.4304C42.7247 35.2693 42.7887 35.1148 42.9026 35.0009C43.0165 34.887 43.171 34.823 43.3321 34.823H44.5468C45.0301 34.823 45.4936 35.015 45.8353 35.3567C46.177 35.6984 46.369 36.1619 46.369 36.6451V46.3632C46.369 46.8465 46.177 47.31 45.8353 47.6517C45.4936 47.9934 45.0301 48.1854 44.5468 48.1854Z" fill="white"/>
<path d="M28.1469 36.0336C27.9858 36.0336 27.8314 35.9696 27.7174 35.8557C27.6035 35.7418 27.5396 35.5873 27.5396 35.4263V31.782C27.5395 31.6784 27.5659 31.5766 27.6163 31.4861C27.6667 31.3957 27.7394 31.3196 27.8274 31.2651C27.9155 31.2107 28.016 31.1796 28.1195 31.1749C28.2229 31.1703 28.3258 31.1921 28.4184 31.2384L32.0627 33.0605C32.1638 33.1109 32.2488 33.1884 32.3082 33.2845C32.3677 33.3805 32.3992 33.4912 32.3992 33.6041C32.3992 33.717 32.3677 33.8277 32.3082 33.9238C32.2488 34.0198 32.1638 34.0974 32.0627 34.1477L28.4184 35.9699C28.3341 36.0119 28.2412 36.0337 28.1469 36.0336ZM28.7543 32.7647V34.4435L30.4331 33.6041L28.7543 32.7647Z" fill="white"/>
</g>
<defs>
<clipPath id="clip0_2017_158">
<rect width="36.4428" height="36.4428" fill="white" transform="translate(15.3821 15.3843)"/>
</clipPath>
</defs>
</svg>
