<svg width="68" height="68" viewBox="0 0 68 68" fill="none" xmlns="http://www.w3.org/2000/svg">
<circle cx="33.6988" cy="33.6988" r="32.9662" fill="#153B84" stroke="white" stroke-width="1.46527"/>
<path d="M53.3898 39.4871C53.2565 39.1678 52.8893 39.0168 52.5693 39.15C52.2495 39.2832 52.0984 39.65 52.2318 39.9695C52.6421 40.9523 52.8501 41.9954 52.8501 43.0699C52.8501 47.2533 49.5881 50.7793 45.4202 51.1064H27.3803C27.0338 51.1064 26.7529 51.3869 26.7529 51.733C26.7529 52.0792 27.0337 52.3596 27.3803 52.3596H45.4476C45.4483 52.3596 45.4489 52.3595 45.4495 52.3595C45.4646 52.3595 45.48 52.359 45.4953 52.3578C45.5006 52.3574 45.5059 52.3568 45.5113 52.3564C45.5115 52.3564 45.5119 52.3564 45.5121 52.3564C50.3318 51.9813 54.1049 47.9057 54.1049 43.0699C54.1049 41.829 53.8643 40.6235 53.3898 39.4871Z" fill="white"/>
<path d="M51.2355 36.3128C49.4907 34.6405 47.1977 33.7195 44.7787 33.7195C43.0799 33.7195 41.4588 34.1644 40.0273 35.0157C39.6852 30.5583 35.9445 27.0361 31.3955 27.0361C26.6218 27.0361 22.7382 30.915 22.7382 35.6827C22.7382 36.4472 22.8364 37.1963 23.0311 37.9218C22.4861 37.7939 21.9268 37.7294 21.3581 37.7294C17.3223 37.7295 14.0391 41.0087 14.0391 45.0394C14.0391 49.0702 17.3223 52.3494 21.358 52.3494H24.0347C24.3812 52.3494 24.662 52.0689 24.662 51.7228C24.662 51.3767 24.3813 51.0962 24.0347 51.0962H21.358C18.0141 51.0962 15.2937 48.3791 15.2937 45.0394C15.2937 41.6996 18.0141 38.9825 21.358 38.9825C22.2032 38.9825 23.0229 39.1542 23.7944 39.4927C24.3072 39.7179 24.8469 39.1778 24.6207 38.666C24.2041 37.7239 23.9929 36.7201 23.9929 35.6826C23.9929 31.6059 27.3137 28.2892 31.3955 28.2892C35.4773 28.2892 38.798 31.6059 38.798 35.6826C38.798 36.0059 38.7066 36.3697 38.953 36.6295C39.1728 36.8614 39.5445 36.8889 39.796 36.6915C41.2289 35.5669 42.9518 34.9725 44.7787 34.9725C46.8722 34.9725 48.8568 35.7696 50.3668 37.2168C50.6168 37.4565 51.014 37.4483 51.2538 37.1986C51.4936 36.949 51.4854 36.5524 51.2355 36.3128Z" fill="white"/>
<path d="M31.4088 35.0549C29.587 35.0549 28.1049 36.5353 28.1049 38.3548C28.1049 39.4029 28.6096 40.3883 29.4432 41.0064V45.7066C29.4432 46.0527 29.7239 46.3332 30.0705 46.3332H32.7472C33.0937 46.3332 33.3746 46.0527 33.3746 45.7066V41.0063C34.2082 40.3882 34.7129 39.4029 34.7129 38.3547C34.7129 36.5352 33.2306 35.0549 31.4088 35.0549ZM32.4329 40.1274C32.2392 40.2394 32.1198 40.4461 32.1198 40.6697V45.08H30.6979V40.6697C30.6979 40.4461 30.5785 40.2394 30.3848 40.1274C29.7523 39.762 29.3596 39.0826 29.3596 38.3548C29.3596 37.2262 30.2788 36.308 31.4089 36.308C32.539 36.308 33.4582 37.2262 33.4582 38.3548C33.4581 39.0826 33.0654 39.7619 32.4329 40.1274Z" fill="white"/>
<path d="M45.5758 18.8598C41.7918 15.0808 36.7612 12.9995 31.4103 12.9995C26.0593 12.9995 21.0286 15.0808 17.2447 18.8598C16.9997 19.1046 16.9997 19.5012 17.2447 19.7459C17.4898 19.9906 17.8869 19.9907 18.132 19.746C21.6788 16.2037 26.3944 14.2527 31.4103 14.2527C36.4261 14.2527 41.1417 16.2037 44.6886 19.746C44.9437 20.0007 45.3746 19.9838 45.6091 19.71C45.8192 19.4647 45.8041 19.0879 45.5758 18.8598Z" fill="white"/>
<path d="M42.2675 22.1868C39.3684 19.2914 35.514 17.6968 31.4141 17.6968C27.3143 17.6968 23.4598 19.2914 20.5607 22.1868C20.3157 22.4316 20.3157 22.8282 20.5607 23.0729C20.8058 23.3176 21.2029 23.3176 21.448 23.0729C24.1101 20.4142 27.6493 18.95 31.4141 18.95C35.1789 18.95 38.7182 20.4142 41.3802 23.073C41.5027 23.1952 41.6633 23.2564 41.8238 23.2564C42.3724 23.2564 42.6538 22.573 42.2675 22.1868Z" fill="white"/>
<path d="M38.9461 25.484C36.9318 23.4722 34.2537 22.3643 31.4051 22.3643C28.5565 22.3643 25.8783 23.4723 23.864 25.4841C23.6357 25.7122 23.6204 26.089 23.8308 26.3343C24.0653 26.608 24.4961 26.6249 24.7513 26.3703C26.5286 24.595 28.8916 23.6174 31.4051 23.6174C33.9185 23.6174 36.2817 24.595 38.059 26.3702C38.304 26.6148 38.7012 26.6147 38.9462 26.3701C39.1912 26.1254 39.1912 25.7286 38.9461 25.484Z" fill="white"/>
</svg>
