<svg width="68" height="68" viewBox="0 0 68 68" fill="none" xmlns="http://www.w3.org/2000/svg">
<circle cx="33.6992" cy="33.6992" r="32.9665" fill="#133573" stroke="white" stroke-width="1.46528"/>
<g clip-path="url(#clip0_2017_157)">
<rect width="38.0974" height="38.0974" transform="translate(14.6588 14.6577)" fill="#133573"/>
<path d="M18.0695 42.173C18.6029 42.7064 19.822 43.3922 21.6507 44.3065C22.0317 44.5351 22.3364 44.9161 22.3364 45.3732V46.8971C21.8793 46.8971 21.5745 47.2019 21.5745 47.6591V51.2402C21.5745 51.6974 21.8793 52.0022 22.3364 52.0022C22.7936 52.0022 23.0984 51.6974 23.0984 51.2402V48.421H31.2512V51.2402C31.2512 51.6974 31.556 52.0022 32.0132 52.0022C32.4703 52.0022 32.7751 51.6974 32.7751 51.2402V47.6591C32.7751 47.2019 32.4703 46.8971 32.0132 46.8971V44.5351C32.0132 43.2398 31.7846 42.0207 31.3274 41.0301C30.4131 39.0491 28.9654 37.9061 26.9843 37.7538L22.4126 33.1821C21.6507 32.4201 20.7363 32.1915 19.9744 32.4201V24.2673C19.9744 23.0482 18.9839 21.9814 17.6886 21.9814C16.3932 21.9814 15.4027 22.972 15.4027 24.2673V35.9251C15.4027 36.8394 15.6313 37.8299 16.0123 38.6681C16.8504 40.4968 17.5362 41.7159 18.0695 42.173ZM16.9266 24.2673C16.9266 23.8863 17.2314 23.5053 17.6886 23.5053C18.1457 23.5053 18.4505 23.8101 18.4505 24.2673V33.4869C17.8409 34.4774 17.9171 35.7727 18.8315 36.6108L23.6317 41.4111C23.9365 41.7159 24.3937 41.7159 24.6985 41.4111C25.0032 41.1063 25.0032 40.6492 24.6985 40.3444L19.8982 35.5441C19.5172 35.1631 19.5172 34.5536 19.8982 34.0964C20.2792 33.7154 20.8887 33.7154 21.2697 34.0964L26.07 38.8967C26.2224 39.0491 26.3748 39.1253 26.6033 39.1253C28.1272 39.2015 29.2702 39.9634 29.9559 41.5635C30.3369 42.4016 30.4893 43.3922 30.4893 44.4589V46.8209H23.8603V45.297C23.8603 44.2303 23.2508 43.316 22.3364 42.8588C20.7363 42.0969 19.5172 41.4111 19.1363 41.0301C18.9839 40.8777 18.4505 40.192 17.3838 37.9061C17.079 37.3728 16.9266 36.6108 16.9266 35.9251V24.2673Z" fill="white"/>
<path d="M51.9785 24.2673C51.9785 23.0482 50.9879 21.9814 49.6926 21.9814C48.3973 21.9814 47.4068 22.972 47.4068 24.2673V32.4201C46.5686 32.1915 45.6543 32.4201 45.0447 33.1059L40.4731 37.6776C38.492 37.83 37.0443 38.9729 36.13 40.9539C35.6728 42.0207 35.4442 43.1636 35.4442 44.4589V46.8209C34.987 46.8209 34.6823 47.1257 34.6823 47.5829V51.2402C34.6823 51.6974 34.987 52.0022 35.4442 52.0022C35.9014 52.0022 36.2061 51.6974 36.2061 51.2402V48.421C36.2823 48.421 44.8923 48.421 44.359 48.421V51.2402C44.359 51.6974 44.6638 52.0022 45.1209 52.0022C45.5781 52.0022 45.8829 51.6974 45.8829 51.2402V47.6591C45.8829 47.2019 45.5781 46.8971 45.1209 46.8971V45.3732C45.1209 44.9161 45.3495 44.5351 45.8067 44.3065C47.7116 43.4684 48.9307 42.7064 49.3878 42.173C49.9212 41.6397 50.607 40.4968 51.4451 38.6681C51.8261 37.8299 52.0546 36.8394 52.0546 35.9251V24.2673H51.9785ZM50.4546 35.9251C50.4546 36.687 50.3022 37.3728 49.9974 38.0585C49.2354 39.6586 48.6259 40.8015 48.2449 41.1825C47.8639 41.5635 46.721 42.2492 45.0447 43.0112C44.1304 43.4684 43.5208 44.3827 43.5208 45.4494V46.9733H36.8919V44.6113C36.8919 43.5446 37.1205 42.554 37.4253 41.7159C38.111 40.192 39.2539 39.3538 40.7778 39.2776C41.0064 39.2776 41.1588 39.2015 41.3112 39.0491L46.1115 34.2488C46.4924 33.8678 47.102 33.8678 47.5592 34.2488L47.6354 34.325C47.9401 34.706 47.9401 35.3155 47.5592 35.6203L42.7589 40.4206C42.4541 40.7253 42.4541 41.1825 42.7589 41.4873C43.0637 41.7921 43.5208 41.7921 43.8256 41.4873L48.6259 36.687C49.464 35.8489 49.6164 34.5536 49.0069 33.563V24.2673C49.0069 23.8863 49.3116 23.5053 49.7688 23.5053C50.1498 23.5053 50.5308 23.8101 50.5308 24.2673V35.9251H50.4546Z" fill="white"/>
<path d="M43.8179 19.3889C43.8179 19.0079 43.5893 18.6269 43.1321 18.6269C42.9797 18.6269 42.8274 18.5507 42.5988 18.5507H42.4464C39.3986 17.9412 35.3603 16.8744 34.1412 15.7315C33.8364 15.4267 33.3792 15.4267 33.0744 15.7315C31.9315 16.8744 27.8932 18.0174 24.7692 18.5507C24.5406 18.6269 24.312 18.6269 24.1596 18.7031C23.7787 18.7793 23.4739 19.0841 23.5501 19.4651C24.0834 29.5228 28.4265 37.066 33.6078 37.066C38.9414 36.9898 43.2845 29.4466 43.8179 19.3889ZM33.684 35.466C29.4933 35.466 25.7597 28.6846 25.1502 19.9222C26.6741 19.6174 31.4743 18.6269 33.684 17.103C35.7412 18.5507 40.2367 19.5413 42.2178 19.9222C41.6082 28.7608 37.8747 35.466 33.684 35.466Z" fill="white"/>
<path d="M35.6695 22.4331L32.6217 25.4809L32.2407 25.0999C31.4026 24.2618 30.0311 24.2618 29.1929 25.0999C28.3548 25.9381 28.3548 27.3096 29.1929 28.1477L31.0978 30.0526C31.4788 30.4336 32.0121 30.6622 32.6217 30.6622C33.1551 30.6622 33.7646 30.4336 34.1456 30.0526L38.6411 25.5571C39.4792 24.719 39.4792 23.3475 38.6411 22.5093C37.8791 21.6712 36.4314 21.6712 35.6695 22.4331ZM37.5744 24.4142L33.0789 28.9097C32.8503 29.1383 32.4693 29.1383 32.2407 28.9097L30.3359 27.0048C30.1835 26.8524 30.1835 26.7 30.1835 26.5476C30.1835 26.2429 30.4882 25.9381 30.793 25.9381C30.9454 25.9381 31.0978 26.0143 31.2502 26.0905L32.1645 27.0048C32.4693 27.3096 32.9265 27.3096 33.2313 27.0048L36.8124 23.4237C37.041 23.1951 37.422 23.1951 37.6506 23.4237C37.8029 23.7284 37.8029 24.1856 37.5744 24.4142Z" fill="white"/>
</g>
<defs>
<clipPath id="clip0_2017_157">
<rect width="38.0974" height="38.0974" fill="white" transform="translate(14.6588 14.6577)"/>
</clipPath>
</defs>
</svg>
