<svg width="68" height="68" viewBox="0 0 68 68" fill="none" xmlns="http://www.w3.org/2000/svg">
<circle cx="33.6992" cy="33.6992" r="32.9665" fill="#153B84" stroke="white" stroke-width="1.46528"/>
<g clip-path="url(#clip0_2017_159)">
<path d="M53.2566 26.3799C51.721 24.8497 49.6301 23.992 47.4513 23.9992C47.225 23.9992 46.9909 24.0021 46.7529 24.0152C46.3969 17.0646 40.5725 11.5184 33.4648 11.5184C30.5374 11.5093 27.6902 12.4657 25.3733 14.2375C23.2374 15.8667 21.6457 18.0947 20.8059 20.632C15.1408 21.5388 10.9795 26.3854 10.9861 32.0684V32.0945V32.1249C10.9861 32.1365 10.9985 32.1481 10.9985 32.1598C11.0026 36.8758 14.546 40.8534 19.2706 41.4457V46.2024H17.6067C17.1852 46.2067 16.8431 46.5407 16.8328 46.9582V50.2228C16.8328 51.8741 18.2132 53.2588 19.8807 53.2588H46.7884C48.4555 53.2588 49.8359 51.8745 49.8359 50.2228V46.9582C49.826 46.5407 49.4836 46.2067 49.062 46.2024H47.0232V41.4859C51.914 41.0707 55.672 37.0209 55.6772 32.1598C55.6783 32.0966 55.6709 32.0339 55.6559 31.973C55.6178 29.8712 54.7575 27.8662 53.2566 26.3799ZM48.3358 50.2228C48.3274 51.0686 47.6421 51.7551 46.7884 51.7733H19.8807C19.0266 51.7551 18.3418 51.0686 18.333 50.2228V47.6879H28.6464V49.1724C28.6464 49.5826 28.9409 49.9163 29.3551 49.9163H36.9349C37.3492 49.9163 37.6473 49.5823 37.6473 49.1724V47.6879H48.3358V50.2228ZM36.9349 46.2024C36.5105 46.2056 36.1636 46.5382 36.1471 46.9582V48.4307H30.1466V46.9582C30.1283 46.5375 29.78 46.2053 29.3551 46.2024H20.7707V32.4339C20.7707 31.6019 21.4281 30.8824 22.2683 30.8824H44.0218C44.8619 30.8824 45.523 31.6019 45.523 32.4339V46.2024H36.9349ZM51.8737 37.6969C50.582 39.0062 48.8635 39.8198 47.0232 39.9928V32.4339C47.0232 30.7826 45.6893 29.3968 44.0218 29.3968H22.2683C20.6008 29.3968 19.2706 30.7826 19.2706 32.4339V39.946C15.395 39.3693 12.5214 36.0826 12.4994 32.2015C12.5005 32.1851 12.4943 32.1688 12.4939 32.1525C12.4939 32.134 12.4899 32.1155 12.4892 32.0981L12.4873 32.1086C12.4873 32.1021 12.4862 32.0959 12.484 32.0898H12.4862C12.4862 26.9831 16.349 22.6442 21.471 22.0512C21.7731 22.0142 22.0233 21.801 22.1053 21.5108C23.5597 16.4894 28.1894 13.0232 33.4648 13.0069C39.974 13.0069 45.2699 18.2484 45.2699 24.6927C45.2699 24.7391 45.2699 24.7845 45.2692 24.8313C45.2637 25.0565 45.3619 25.2723 45.5362 25.4177C45.7105 25.5628 45.9424 25.6216 46.1658 25.5777C48.1417 25.2092 50.1809 25.7333 51.7272 27.0063C53.2731 28.2793 54.1657 30.1693 54.1605 32.1605C54.1587 32.2181 54.1635 32.2758 54.1752 32.3324C54.1338 34.3471 53.3094 36.2687 51.8737 37.6969Z" fill="white"/>
<path d="M36.2664 32.0427C35.0014 32.042 33.8364 32.7242 33.2281 33.8228C32.6197 34.921 32.6648 36.2608 33.3456 37.3166L27.1561 43.446C26.866 43.7366 26.8675 44.2044 27.159 44.4935C27.4509 44.7822 27.9234 44.7836 28.2167 44.4964L28.5735 44.1431L29.8579 45.4049C30.1505 45.6922 30.6222 45.6922 30.9145 45.4049L32.9384 43.4152C33.0797 43.2763 33.1596 43.087 33.1599 42.8897C33.1603 42.692 33.0812 42.5027 32.9402 42.3631L31.6558 41.0907L34.4063 38.3669C35.6504 39.1518 37.2597 39.0702 38.4167 38.1642C39.5736 37.2582 40.0245 35.7258 39.5399 34.3465C39.0554 32.9669 37.7417 32.0424 36.2668 32.0427H36.2664ZM31.347 42.8864L30.3864 43.8312L29.6345 43.0928L30.5948 42.1414L31.347 42.8864ZM36.2664 37.4203C35.1813 37.4203 34.3015 36.5491 34.3015 35.4745C34.3015 34.3998 35.1813 33.5283 36.2664 33.5283C37.3516 33.5283 38.2317 34.3998 38.2317 35.4745C38.2302 36.5484 37.3513 37.4192 36.2664 37.4203Z" fill="white"/>
</g>
<defs>
<clipPath id="clip0_2017_159">
<rect width="44.6912" height="44.2573" fill="white" transform="translate(10.9872 10.2546)"/>
</clipPath>
</defs>
</svg>
