<svg width="136" height="40" viewBox="0 0 136 40" fill="none" xmlns="http://www.w3.org/2000/svg">
<path d="M135.244 35.3869C135.244 37.5185 133.513 39.2452 131.372 39.2452H4.63339C2.49295 39.2452 0.755554 37.5185 0.755554 35.3869V4.618C0.755554 2.48736 2.49295 0.754639 4.63339 0.754639H131.371C133.513 0.754639 135.243 2.48736 135.243 4.618L135.244 35.3869Z" fill="black"/>
<path d="M130.963 0.80149C133.295 0.80149 135.193 2.68524 135.193 5.00024V35.0002C135.193 37.3152 133.295 39.199 130.963 39.199H5.03704C2.70489 39.199 0.807185 37.3152 0.807185 35.0002V5.00024C0.807185 2.68524 2.70489 0.80149 5.03704 0.80149H130.963ZM130.963 0.00024153H5.03704C2.26793 0.00024153 0 2.25149 0 5.00024V35.0002C0 37.749 2.26793 40.0002 5.03704 40.0002H130.963C133.732 40.0002 136 37.749 136 35.0002V5.00024C136 2.25149 133.732 0.00024153 130.963 0.00024153Z" fill="#A6A6A6"/>
<path d="M30.3512 19.784C30.322 16.561 33.0097 14.993 33.1326 14.92C31.6104 12.717 29.2511 12.416 28.422 12.392C26.4404 12.185 24.5183 13.569 23.5089 13.569C22.4793 13.569 20.9249 12.412 19.2495 12.446C17.0937 12.479 15.0769 13.718 13.9707 15.642C11.6879 19.565 13.3905 25.33 15.5775 28.501C16.6716 30.054 17.95 31.788 19.6233 31.727C21.2603 31.66 21.8718 30.691 23.8474 30.691C25.8047 30.691 26.379 31.727 28.0855 31.688C29.8424 31.66 30.9486 30.128 32.0043 28.561C33.2686 26.781 33.7764 25.028 33.7965 24.938C33.7552 24.924 30.3844 23.647 30.3512 19.784Z" fill="white"/>
<path d="M27.1275 10.306C28.0079 9.21304 28.6104 7.72604 28.4431 6.21704C27.1688 6.27304 25.5751 7.09204 24.6573 8.16104C23.8453 9.10304 23.12 10.647 23.3074 12.099C24.7389 12.205 26.2087 11.382 27.1275 10.306Z" fill="white"/>
<path d="M54.0424 31.5043H51.7545L50.5013 27.5953H46.1453L44.9515 31.5043H42.7242L47.0399 18.1963H49.7055L54.0424 31.5043ZM50.1236 25.9553L48.9902 22.4803C48.8703 22.1253 48.6457 21.2893 48.3143 19.9733H48.274C48.142 20.5393 47.9294 21.3753 47.6373 22.4803L46.5241 25.9553H50.1236V25.9553Z" fill="white"/>
<path d="M65.141 26.5884C65.141 28.2204 64.6967 29.5104 63.8082 30.4574C63.0123 31.3004 62.024 31.7214 60.8444 31.7214C59.571 31.7214 58.6563 31.2674 58.0992 30.3594H58.0589V35.4144H55.9111V25.0674C55.9111 24.0414 55.8839 22.9884 55.8315 21.9084H57.7204L57.8403 23.4294H57.8806C58.5968 22.2834 59.6838 21.7114 61.1426 21.7114C62.2829 21.7114 63.2349 22.1584 63.9965 23.0534C64.7602 23.9494 65.141 25.1274 65.141 26.5884ZM62.9529 26.6664C62.9529 25.7324 62.7413 24.9624 62.3162 24.3564C61.8518 23.7244 61.2282 23.4084 60.4464 23.4084C59.9165 23.4084 59.435 23.5844 59.0048 23.9314C58.5737 24.2814 58.2916 24.7384 58.1596 25.3044C58.0931 25.5684 58.0599 25.7844 58.0599 25.9544V27.5544C58.0599 28.2524 58.2755 28.8414 58.7067 29.3224C59.1378 29.8034 59.6979 30.0434 60.387 30.0434C61.196 30.0434 61.8256 29.7334 62.2759 29.1154C62.7272 28.4964 62.9529 27.6804 62.9529 26.6664Z" fill="white"/>
<path d="M76.2597 26.5884C76.2597 28.2204 75.8155 29.5104 74.9259 30.4574C74.1311 31.3004 73.1428 31.7214 71.9631 31.7214C70.6898 31.7214 69.7751 31.2674 69.219 30.3594H69.1787V35.4144H67.0309V25.0674C67.0309 24.0414 67.0037 22.9884 66.9513 21.9084H68.8402L68.9601 23.4294H69.0004C69.7156 22.2834 70.8026 21.7114 72.2623 21.7114C73.4017 21.7114 74.3537 22.1584 75.1173 23.0534C75.8779 23.9494 76.2597 25.1274 76.2597 26.5884ZM74.0717 26.6664C74.0717 25.7324 73.8591 24.9624 73.434 24.3564C72.9695 23.7244 72.348 23.4084 71.5652 23.4084C71.0343 23.4084 70.5538 23.5844 70.1226 23.9314C69.6914 24.2814 69.4104 24.7384 69.2784 25.3044C69.2129 25.5684 69.1787 25.7844 69.1787 25.9544V27.5544C69.1787 28.2524 69.3943 28.8414 69.8234 29.3224C70.2546 29.8024 70.8147 30.0434 71.5058 30.0434C72.3147 30.0434 72.9444 29.7334 73.3947 29.1154C73.846 28.4964 74.0717 27.6804 74.0717 26.6664Z" fill="white"/>
<path d="M88.6911 27.7722C88.6911 28.9042 88.2952 29.8252 87.5004 30.5362C86.627 31.3132 85.411 31.7012 83.8485 31.7012C82.4059 31.7012 81.2494 31.4252 80.374 30.8722L80.8716 29.0952C81.8146 29.6612 82.8492 29.9452 83.9765 29.9452C84.7854 29.9452 85.415 29.7632 85.8674 29.4012C86.3177 29.0392 86.5423 28.5532 86.5423 27.9472C86.5423 27.4072 86.357 26.9522 85.9852 26.5832C85.6155 26.2142 84.998 25.8712 84.1356 25.5542C81.7884 24.6852 80.6158 23.4122 80.6158 21.7382C80.6158 20.6442 81.0268 19.7472 81.8498 19.0492C82.6699 18.3502 83.7639 18.0012 85.132 18.0012C86.3519 18.0012 87.3654 18.2122 88.1743 18.6332L87.6374 20.3712C86.8818 19.9632 86.0275 19.7592 85.0715 19.7592C84.316 19.7592 83.7256 19.9442 83.3025 20.3122C82.9449 20.6412 82.7656 21.0422 82.7656 21.5172C82.7656 22.0432 82.9701 22.4782 83.3811 22.8202C83.7387 23.1362 84.3885 23.4782 85.3314 23.8472C86.4849 24.3082 87.3321 24.8472 87.8771 25.4652C88.4201 26.0812 88.6911 26.8522 88.6911 27.7722Z" fill="white"/>
<path d="M95.7924 23.5081H93.425V28.1671C93.425 29.3521 93.842 29.9441 94.6782 29.9441C95.062 29.9441 95.3803 29.9111 95.6322 29.8451L95.6916 31.4641C95.2685 31.6211 94.7114 31.7001 94.0213 31.7001C93.1731 31.7001 92.5102 31.4431 92.0317 30.9301C91.5552 30.4161 91.3154 29.5541 91.3154 28.3431V23.5061H89.9051V21.9061H91.3154V20.1491L93.425 19.5171V21.9061H95.7924V23.5081Z" fill="white"/>
<path d="M106.474 26.6274C106.474 28.1024 106.049 29.3134 105.201 30.2604C104.311 31.2354 103.13 31.7214 101.658 31.7214C100.24 31.7214 99.1107 31.2544 98.2685 30.3204C97.4263 29.3864 97.0052 28.2074 97.0052 26.7864C97.0052 25.2994 97.4384 24.0814 98.3078 23.1344C99.1752 22.1864 100.346 21.7124 101.818 21.7124C103.236 21.7124 104.377 22.1794 105.239 23.1144C106.063 24.0214 106.474 25.1924 106.474 26.6274ZM104.245 26.6964C104.245 25.8114 104.055 25.0524 103.669 24.4194C103.219 23.6534 102.575 23.2714 101.741 23.2714C100.878 23.2714 100.222 23.6544 99.7716 24.4194C99.3858 25.0534 99.1954 25.8244 99.1954 26.7364C99.1954 27.6214 99.3858 28.3804 99.7716 29.0124C100.236 29.7784 100.885 30.1604 101.722 30.1604C102.542 30.1604 103.186 29.7704 103.65 28.9924C104.046 28.3474 104.245 27.5804 104.245 26.6964Z" fill="white"/>
<path d="M113.455 23.7834C113.243 23.7444 113.016 23.7244 112.778 23.7244C112.023 23.7244 111.438 24.0074 111.027 24.5744C110.67 25.0744 110.49 25.7064 110.49 26.4694V31.5044H108.344L108.364 24.9304C108.364 23.8244 108.337 22.8174 108.283 21.9094H110.154L110.233 23.7454H110.292C110.519 23.1144 110.876 22.6064 111.366 22.2254C111.844 21.8824 112.361 21.7114 112.918 21.7114C113.117 21.7114 113.296 21.7254 113.455 21.7504V23.7834Z" fill="white"/>
<path d="M123.061 26.2526C123.061 26.6346 123.036 26.9566 122.982 27.2196H116.539C116.564 28.1676 116.875 28.8926 117.474 29.3926C118.017 29.8396 118.719 30.0636 119.581 30.0636C120.535 30.0636 121.406 29.9126 122.188 29.6096L122.525 31.0896C121.61 31.4856 120.53 31.6826 119.284 31.6826C117.785 31.6826 116.608 31.2446 115.752 30.3696C114.898 29.4946 114.47 28.3196 114.47 26.8456C114.47 25.3986 114.868 24.1936 115.664 23.2326C116.499 22.2066 117.626 21.6936 119.044 21.6936C120.438 21.6936 121.492 22.2066 122.209 23.2326C122.776 24.0476 123.061 25.0556 123.061 26.2526ZM121.013 25.6996C121.027 25.0676 120.887 24.5216 120.596 24.0606C120.224 23.4676 119.653 23.1716 118.884 23.1716C118.182 23.1716 117.611 23.4606 117.175 24.0406C116.817 24.5016 116.604 25.0546 116.539 25.6986H121.013V25.6996Z" fill="white"/>
<path d="M46.957 10.8099H46.0338V10.1563H46.829C47.1124 10.1563 47.3424 10.1152 47.5191 10.0329C47.6959 9.94759 47.8238 9.83028 47.903 9.68099C47.9853 9.52864 48.0264 9.35192 48.0264 9.15083C48.0264 8.97106 47.9807 8.80653 47.8893 8.65724C47.801 8.50794 47.6639 8.38911 47.478 8.30075C47.2921 8.20935 47.053 8.16364 46.7605 8.16364C46.5411 8.16364 46.3415 8.20325 46.1618 8.28247C45.982 8.36169 45.8388 8.4729 45.7321 8.6161C45.6286 8.75931 45.5768 8.92841 45.5768 9.12341H44.4296C44.4296 8.83395 44.4905 8.57497 44.6124 8.34646C44.7373 8.11489 44.9064 7.91837 45.1197 7.75688C45.3361 7.5954 45.5844 7.472 45.8647 7.38669C46.148 7.29833 46.4466 7.25415 46.7605 7.25415C47.1261 7.25415 47.4567 7.29528 47.7522 7.37755C48.0478 7.45677 48.3022 7.5756 48.5155 7.73403C48.7288 7.89247 48.8918 8.09052 49.0045 8.32817C49.1172 8.56278 49.1736 8.83548 49.1736 9.14626C49.1736 9.37478 49.1203 9.58958 49.0136 9.79067C48.91 9.99177 48.7607 10.1685 48.5657 10.3208C48.3707 10.4732 48.1361 10.5935 47.8619 10.6819C47.5907 10.7672 47.2891 10.8099 46.957 10.8099ZM46.0338 10.4122H46.957C47.3257 10.4122 47.6532 10.4503 47.9396 10.5265C48.226 10.6027 48.4682 10.7139 48.6663 10.8601C48.8643 11.0064 49.0152 11.1877 49.1188 11.404C49.2223 11.6173 49.2741 11.8625 49.2741 12.1398C49.2741 12.4506 49.2117 12.7279 49.0868 12.9716C48.9649 13.2123 48.7912 13.4165 48.5657 13.584C48.3403 13.7516 48.0737 13.8781 47.7659 13.9634C47.4613 14.0487 47.1261 14.0913 46.7605 14.0913C46.4649 14.0913 46.1724 14.0548 45.883 13.9817C45.5966 13.9055 45.3361 13.7897 45.1014 13.6343C44.8699 13.4759 44.684 13.2748 44.5439 13.031C44.4037 12.7873 44.3336 12.4948 44.3336 12.1535H45.4854C45.4854 12.3424 45.5387 12.5161 45.6453 12.6745C45.755 12.8299 45.9043 12.9549 46.0932 13.0493C46.2852 13.1407 46.5076 13.1864 46.7605 13.1864C47.0499 13.1864 47.2952 13.1407 47.4963 13.0493C47.7004 12.9579 47.8558 12.833 47.9625 12.6745C48.0721 12.5161 48.127 12.3379 48.127 12.1398C48.127 11.9509 48.098 11.7879 48.0402 11.6508C47.9853 11.5106 47.903 11.3979 47.7934 11.3126C47.6837 11.2242 47.5481 11.1587 47.3866 11.1161C47.2251 11.0734 47.0393 11.0521 46.829 11.0521H46.0338V10.4122Z" fill="white"/>
<path d="M53.0401 13.0082V10.6499C53.0401 10.4732 53.0081 10.3208 52.9441 10.1929C52.8801 10.0649 52.7826 9.96587 52.6516 9.89579C52.5236 9.82571 52.3621 9.79067 52.1671 9.79067C51.9874 9.79067 51.832 9.82114 51.701 9.88208C51.57 9.94302 51.4679 10.0253 51.3948 10.1289C51.3216 10.2325 51.2851 10.3498 51.2851 10.4808H50.1882C50.1882 10.2858 50.2354 10.0969 50.3299 9.91407C50.4243 9.73126 50.5614 9.56825 50.7412 9.42505C50.921 9.28185 51.1358 9.16911 51.3856 9.08685C51.6355 9.00458 51.9158 8.96345 52.2266 8.96345C52.5983 8.96345 52.9273 9.02591 53.2138 9.15083C53.5032 9.27575 53.7302 9.46466 53.8947 9.71755C54.0623 9.96739 54.1461 10.2812 54.1461 10.659V12.8574C54.1461 13.0828 54.1613 13.2854 54.1918 13.4652C54.2253 13.6419 54.2725 13.7958 54.3335 13.9268V13.9999H53.2046C53.1528 13.8811 53.1117 13.7303 53.0812 13.5475C53.0538 13.3616 53.0401 13.1818 53.0401 13.0082ZM53.2 10.9927L53.2092 11.6736H52.4185C52.2144 11.6736 52.0346 11.6934 51.8792 11.7331C51.7238 11.7696 51.5943 11.8245 51.4907 11.8976C51.3871 11.9707 51.3095 12.0591 51.2577 12.1627C51.2059 12.2663 51.18 12.3836 51.18 12.5146C51.18 12.6456 51.2104 12.7659 51.2714 12.8756C51.3323 12.9823 51.4207 13.0661 51.5364 13.127C51.6553 13.1879 51.7985 13.2184 51.9661 13.2184C52.1915 13.2184 52.388 13.1727 52.5556 13.0813C52.7263 12.9868 52.8603 12.8726 52.9578 12.7385C53.0553 12.6014 53.1071 12.4719 53.1132 12.35L53.4697 12.8391C53.4331 12.964 53.3707 13.0981 53.2823 13.2413C53.1939 13.3845 53.0782 13.5216 52.935 13.6526C52.7948 13.7806 52.6257 13.8857 52.4277 13.9679C52.2327 14.0502 52.0072 14.0913 51.7513 14.0913C51.4283 14.0913 51.1404 14.0274 50.8875 13.8994C50.6346 13.7684 50.4365 13.5932 50.2933 13.3738C50.1501 13.1514 50.0785 12.9 50.0785 12.6197C50.0785 12.3577 50.1273 12.1261 50.2248 11.925C50.3253 11.7209 50.4716 11.5502 50.6635 11.4131C50.8585 11.276 51.0962 11.1724 51.3765 11.1024C51.6568 11.0292 51.9767 10.9927 52.3363 10.9927H53.2Z" fill="white"/>
<path d="M58.5884 9.05485V9.93235H56.4313V13.9999H55.3298V9.05485H58.5884Z" fill="white"/>
<path d="M60.3343 10.0055V15.9012H59.2329V9.05485H60.2475L60.3343 10.0055ZM63.5564 11.4817V11.5777C63.5564 11.9372 63.5137 12.2708 63.4284 12.5786C63.3461 12.8833 63.2227 13.1499 63.0582 13.3784C62.8967 13.6038 62.6971 13.779 62.4595 13.904C62.2218 14.0289 61.9476 14.0913 61.6368 14.0913C61.3291 14.0913 61.0595 14.035 60.8279 13.9222C60.5994 13.8065 60.4059 13.6434 60.2475 13.4332C60.089 13.223 59.9611 12.9762 59.8636 12.6928C59.7691 12.4064 59.7021 12.0926 59.6625 11.7513V11.3811C59.7021 11.0186 59.7691 10.6895 59.8636 10.394C59.9611 10.0984 60.089 9.84399 60.2475 9.63071C60.4059 9.41743 60.5994 9.2529 60.8279 9.13712C61.0564 9.02134 61.323 8.96345 61.6277 8.96345C61.9385 8.96345 62.2142 9.02438 62.4549 9.14626C62.6956 9.26509 62.8982 9.43571 63.0628 9.65813C63.2273 9.87751 63.3507 10.1426 63.433 10.4534C63.5152 10.7611 63.5564 11.1039 63.5564 11.4817ZM62.4549 11.5777V11.4817C62.4549 11.2532 62.4336 11.0414 62.3909 10.8464C62.3483 10.6484 62.2813 10.4747 62.1898 10.3254C62.0984 10.1761 61.9811 10.0603 61.8379 9.97806C61.6978 9.89274 61.5287 9.85009 61.3306 9.85009C61.1356 9.85009 60.968 9.8836 60.8279 9.95063C60.6877 10.0146 60.5704 10.1045 60.476 10.2203C60.3815 10.3361 60.3084 10.4717 60.2566 10.627C60.2048 10.7794 60.1682 10.9454 60.1469 11.1252V12.0118C60.1835 12.2312 60.2459 12.4323 60.3343 12.6151C60.4227 12.7979 60.5476 12.9442 60.7091 13.0539C60.8736 13.1605 61.0838 13.2138 61.3398 13.2138C61.5378 13.2138 61.7069 13.1712 61.8471 13.0859C61.9872 13.0006 62.1015 12.8833 62.1898 12.734C62.2813 12.5816 62.3483 12.4064 62.3909 12.2084C62.4336 12.0103 62.4549 11.8001 62.4549 11.5777Z" fill="white"/>
<path d="M65.8735 13.4606L67.2172 9.05485H68.3963L66.4128 14.754C66.3671 14.8759 66.3077 15.0084 66.2346 15.1516C66.1614 15.2949 66.0655 15.4304 65.9466 15.5584C65.8309 15.6894 65.6861 15.7945 65.5125 15.8738C65.3388 15.956 65.1286 15.9972 64.8818 15.9972C64.7843 15.9972 64.6898 15.988 64.5984 15.9697C64.51 15.9545 64.4262 15.9377 64.347 15.9195L64.3425 15.0785C64.3729 15.0816 64.4095 15.0846 64.4521 15.0877C64.4979 15.0907 64.5344 15.0922 64.5618 15.0922C64.7446 15.0922 64.897 15.0694 65.0189 15.0237C65.1407 14.981 65.2398 14.9109 65.3159 14.8134C65.3952 14.7159 65.4622 14.5849 65.517 14.4204L65.8735 13.4606ZM65.1148 9.05485L66.2894 12.7568L66.4859 13.9177L65.7227 14.1142L63.9266 9.05485H65.1148Z" fill="white"/>
<path d="M71.0745 11.6371H70.1239V11.0795H70.8917C71.0867 11.0795 71.2421 11.0536 71.3579 11.0018C71.4767 10.95 71.5605 10.8784 71.6093 10.787C71.6611 10.6925 71.687 10.5829 71.687 10.4579C71.687 10.3483 71.6611 10.2447 71.6093 10.1472C71.5605 10.0466 71.4767 9.96435 71.3579 9.90036C71.2391 9.83638 71.0776 9.80438 70.8734 9.80438C70.7059 9.80438 70.555 9.83181 70.421 9.88665C70.29 9.94149 70.1864 10.0177 70.1102 10.1152C70.034 10.2127 69.9959 10.3254 69.9959 10.4534H68.8945C68.8945 10.1456 68.9813 9.88056 69.155 9.65813C69.3317 9.43571 69.5679 9.26509 69.8634 9.14626C70.1589 9.02743 70.4834 8.96802 70.8369 8.96802C71.1385 8.96802 71.4097 9.00001 71.6504 9.06399C71.8911 9.12493 72.0952 9.21634 72.2628 9.33821C72.4334 9.45704 72.5629 9.60634 72.6513 9.7861C72.7427 9.96282 72.7884 10.1685 72.7884 10.4031C72.7884 10.5707 72.7488 10.7291 72.6696 10.8784C72.5904 11.0277 72.4761 11.1602 72.3268 11.276C72.1775 11.3888 71.9962 11.4771 71.7829 11.5411C71.5727 11.6051 71.3366 11.6371 71.0745 11.6371ZM70.1239 11.3172H71.0745C71.367 11.3172 71.626 11.3461 71.8515 11.404C72.077 11.4588 72.2659 11.5411 72.4182 11.6508C72.5705 11.7605 72.6848 11.8961 72.761 12.0575C72.8402 12.216 72.8798 12.3988 72.8798 12.606C72.8798 12.8375 72.8295 13.0463 72.729 13.2321C72.6315 13.4149 72.4913 13.5703 72.3085 13.6983C72.1287 13.8263 71.9139 13.9238 71.6641 13.9908C71.4143 14.0578 71.1385 14.0913 70.8369 14.0913C70.5078 14.0913 70.1879 14.0365 69.8771 13.9268C69.5694 13.8171 69.315 13.648 69.1139 13.4195C68.9158 13.1879 68.8168 12.8939 68.8168 12.5374H69.9182C69.9182 12.6624 69.9563 12.7797 70.0325 12.8893C70.1087 12.999 70.2184 13.0889 70.3616 13.159C70.5048 13.226 70.6769 13.2595 70.878 13.2595C71.0852 13.2595 71.2543 13.2275 71.3853 13.1636C71.5163 13.0965 71.6138 13.0097 71.6778 12.9031C71.7418 12.7934 71.7738 12.6776 71.7738 12.5557C71.7738 12.3912 71.7418 12.2586 71.6778 12.1581C71.6138 12.0575 71.5163 11.9844 71.3853 11.9387C71.2543 11.89 71.0898 11.8656 70.8917 11.8656H70.1239V11.3172Z" fill="white"/>
<path d="M74.9547 12.3912L76.8971 9.05485H77.9986V13.9999H76.8971V10.659L74.9547 13.9999H73.8533V9.05485H74.9547V12.3912Z" fill="white"/>
<path d="M81.4583 9.05485V13.9999H80.3523V9.05485H81.4583ZM83.0807 9.05485V9.92321H78.7572V9.05485H83.0807Z" fill="white"/>
<path d="M85.6584 14.0913C85.2928 14.0913 84.9622 14.0319 84.6666 13.9131C84.3741 13.7912 84.1243 13.6221 83.9171 13.4058C83.713 13.1895 83.5561 12.935 83.4464 12.6425C83.3367 12.35 83.2818 12.0347 83.2818 11.6965V11.5137C83.2818 11.1267 83.3382 10.7763 83.4509 10.4625C83.5637 10.1487 83.7206 9.88056 83.9217 9.65813C84.1228 9.43267 84.3604 9.26052 84.6346 9.14169C84.9089 9.02286 85.2059 8.96345 85.5259 8.96345C85.8793 8.96345 86.1886 9.02286 86.4536 9.14169C86.7187 9.26052 86.9381 9.4281 87.1118 9.64442C87.2885 9.8577 87.4195 10.1121 87.5048 10.4077C87.5932 10.7032 87.6373 11.0292 87.6373 11.3857V11.8565H83.8166V11.0658H86.5496V10.979C86.5435 10.7809 86.5039 10.595 86.4308 10.4214C86.3607 10.2477 86.2525 10.1075 86.1063 10.0009C85.96 9.89427 85.765 9.84095 85.5213 9.84095C85.3385 9.84095 85.1755 9.88056 85.0323 9.95978C84.8921 10.0359 84.7748 10.1472 84.6804 10.2934C84.5859 10.4397 84.5128 10.6164 84.461 10.8236C84.4122 11.0277 84.3879 11.2577 84.3879 11.5137V11.6965C84.3879 11.9128 84.4168 12.1139 84.4747 12.2998C84.5356 12.4826 84.624 12.6425 84.7398 12.7797C84.8555 12.9168 84.9957 13.0249 85.1602 13.1042C85.3248 13.1803 85.5121 13.2184 85.7224 13.2184C85.9875 13.2184 86.2236 13.1651 86.4308 13.0584C86.638 12.9518 86.8177 12.801 86.9701 12.606L87.5505 13.1681C87.4439 13.3235 87.3052 13.4728 87.1346 13.616C86.964 13.7562 86.7553 13.8704 86.5085 13.9588C86.2647 14.0472 85.9814 14.0913 85.6584 14.0913Z" fill="white"/>
<path d="M93.2314 11.8839H91.6501L91.6409 11.1069H92.9389C93.1522 11.1069 93.3274 11.0856 93.4645 11.0429C93.6046 11.0003 93.7082 10.9363 93.7753 10.851C93.8423 10.7626 93.8758 10.656 93.8758 10.5311C93.8758 10.4275 93.856 10.3376 93.8164 10.2614C93.7768 10.1822 93.7159 10.1182 93.6336 10.0695C93.5544 10.0177 93.4538 9.9811 93.332 9.95978C93.2131 9.9354 93.0745 9.92321 92.9161 9.92321H92.0157V13.9999H90.9143V9.05485H92.9161C93.2329 9.05485 93.5178 9.08228 93.7707 9.13712C94.0266 9.19196 94.2445 9.27575 94.4243 9.38849C94.604 9.50122 94.7411 9.64442 94.8356 9.8181C94.9331 9.98872 94.9818 10.1898 94.9818 10.4214C94.9818 10.5737 94.9483 10.7169 94.8813 10.851C94.8173 10.985 94.7213 11.1039 94.5934 11.2075C94.4654 11.3111 94.3085 11.3964 94.1226 11.4634C93.9368 11.5274 93.7235 11.567 93.4828 11.5822L93.2314 11.8839ZM93.2314 13.9999H91.3302L91.7689 13.1316H93.2314C93.4264 13.1316 93.5879 13.1072 93.7159 13.0584C93.8438 13.0097 93.9383 12.9396 93.9992 12.8482C94.0632 12.7538 94.0952 12.6425 94.0952 12.5146C94.0952 12.3836 94.0647 12.2708 94.0038 12.1764C93.9429 12.0819 93.8484 12.0103 93.7204 11.9616C93.5955 11.9098 93.4325 11.8839 93.2314 11.8839H91.9746L91.9837 11.1069H93.4782L93.7936 11.4086C94.1074 11.4299 94.3679 11.4969 94.5751 11.6097C94.7823 11.7224 94.9377 11.8641 95.0412 12.0347C95.1448 12.2053 95.1966 12.3912 95.1966 12.5923C95.1966 12.8238 95.1525 13.028 95.0641 13.2047C94.9788 13.3814 94.8508 13.5292 94.6802 13.648C94.5126 13.7638 94.307 13.8522 94.0632 13.9131C93.8195 13.971 93.5422 13.9999 93.2314 13.9999Z" fill="white"/>
</svg>
