<svg width="35" height="35" viewBox="0 0 35 35" fill="none" xmlns="http://www.w3.org/2000/svg">
<g clip-path="url(#clip0_1_239)">
<path d="M17.5 0.546387C8.15199 0.546387 0.546875 8.1515 0.546875 17.4995C0.546875 26.8475 8.15199 34.4526 17.5 34.4526C26.848 34.4526 34.4531 26.8475 34.4531 17.4995C34.4531 8.1515 26.848 0.546387 17.5 0.546387ZM17.5 33.3589C8.75513 33.3589 1.64062 26.2444 1.64062 17.4995C1.64062 8.75464 8.75513 1.64014 17.5 1.64014C26.2449 1.64014 33.3594 8.75464 33.3594 17.4995C33.3594 26.2444 26.2449 33.3589 17.5 33.3589ZM27.7344 8.2673C27.7114 8.17302 27.6638 8.08654 27.5964 8.01675C27.5289 7.94695 27.4442 7.89635 27.3507 7.87014C27.2573 7.84392 27.1586 7.84304 27.0647 7.86759C26.9708 7.89213 26.8851 7.94121 26.8165 8.0098L15.1977 19.6172L13.7529 18.1088C13.3448 17.6744 12.832 17.3521 12.2636 17.1728C11.6953 16.9934 11.0904 16.9629 10.5068 17.0844L7.13959 17.751C7.04971 17.7688 6.96573 17.8089 6.89539 17.8676C6.82504 17.9263 6.77057 18.0018 6.73699 18.087C6.7034 18.1723 6.69178 18.2646 6.70318 18.3555C6.71458 18.4464 6.74864 18.533 6.80224 18.6073L11.9018 25.679C12.2181 26.1275 12.6363 26.4946 13.1221 26.75C13.6078 27.0055 14.1473 27.142 14.696 27.1483C14.7247 27.1489 14.7533 27.1492 14.7818 27.1493C15.3161 27.154 15.8442 27.0351 16.3249 26.8018C16.8056 26.5686 17.2259 26.2273 17.5528 25.8046L27.5304 13.1917C27.869 12.772 28.1053 12.2793 28.2205 11.7525C28.3357 11.2257 28.3267 10.6793 28.1941 10.1566L27.7344 8.2673Z" fill="white"/>
</g>
<defs>
<clipPath id="clip0_1_239">
<rect width="35" height="35" fill="white"/>
</clipPath>
</defs>
</svg>
