<svg width="135" height="40" viewBox="0 0 135 40" fill="none" xmlns="http://www.w3.org/2000/svg">
<path d="M130 0H5C2.23858 0 0 2.23858 0 5V35C0 37.7614 2.23858 40 5 40H130C132.761 40 135 37.7614 135 35V5C135 2.23858 132.761 0 130 0Z" fill="black"/>
<path d="M130 0.8C132.32 0.8 134.2 2.68 134.2 5V35C134.2 37.32 132.32 39.2 130 39.2H5C2.68 39.2 0.8 37.32 0.8 35V5C0.8 2.68 2.68 0.8 5 0.8H130ZM130 0H5C2.25 0 0 2.25 0 5V35C0 37.75 2.25 40 5 40H130C132.75 40 135 37.75 135 35V5C135 2.25 132.75 0 130 0Z" fill="#A6A6A6"/>
<path d="M68.14 21.75C65.79 21.75 63.87 23.54 63.87 26C63.87 28.46 65.79 30.25 68.14 30.25C70.49 30.25 72.41 28.45 72.41 26C72.41 23.55 70.49 21.75 68.14 21.75ZM68.14 28.5801C66.85 28.5801 65.74 27.52 65.74 26C65.74 24.48 66.85 23.42 68.14 23.42C69.43 23.42 70.54 24.47 70.54 26C70.54 27.53 69.43 28.5801 68.14 28.5801ZM58.82 21.75C56.47 21.75 54.55 23.54 54.55 26C54.55 28.46 56.47 30.25 58.82 30.25C61.17 30.25 63.09 28.45 63.09 26C63.09 23.55 61.17 21.75 58.82 21.75ZM58.82 28.5801C57.53 28.5801 56.42 27.52 56.42 26C56.42 24.48 57.53 23.42 58.82 23.42C60.11 23.42 61.22 24.47 61.22 26C61.22 27.53 60.11 28.5801 58.82 28.5801ZM47.74 23.0601V24.8601H52.06C51.93 25.8801 51.59 26.6201 51.08 27.1301C50.45 27.7601 49.47 28.4501 47.75 28.4501C45.09 28.4501 43.01 26.3101 43.01 23.6501C43.01 20.9901 45.09 18.85 47.75 18.85C49.18 18.85 50.23 19.41 51 20.14L52.27 18.8701C51.19 17.8401 49.76 17.05 47.74 17.05C44.1 17.05 41.04 20.01 41.04 23.66C41.04 27.31 44.1 30.2701 47.74 30.2701C49.71 30.2701 51.19 29.63 52.35 28.42C53.54 27.23 53.91 25.5501 53.91 24.2001C53.91 23.7801 53.88 23.39 53.81 23.07H47.74V23.0601ZM93.05 24.46C92.7 23.51 91.62 21.75 89.41 21.75C87.2 21.75 85.4 23.47 85.4 26C85.4 28.38 87.2 30.25 89.62 30.25C91.57 30.25 92.7 29.06 93.16 28.37L91.71 27.4001C91.23 28.1101 90.57 28.5801 89.62 28.5801C88.67 28.5801 87.99 28.1401 87.56 27.2901L93.25 24.94L93.06 24.46H93.05ZM87.25 25.8801C87.2 24.2401 88.52 23.4001 89.47 23.4001C90.21 23.4001 90.84 23.77 91.05 24.3L87.25 25.8801ZM82.63 30H84.5V17.5H82.63V30ZM79.57 22.7001H79.51C79.09 22.2001 78.29 21.75 77.27 21.75C75.14 21.75 73.19 23.62 73.19 26.0201C73.19 28.4201 75.14 30.26 77.27 30.26C78.29 30.26 79.09 29.8101 79.51 29.2901H79.57V29.9001C79.57 31.5301 78.7 32.4001 77.3 32.4001C76.16 32.4001 75.45 31.58 75.16 30.89L73.53 31.57C74 32.7 75.24 34.0801 77.3 34.0801C79.49 34.0801 81.34 32.7901 81.34 29.6501V22.01H79.57V22.7001ZM77.42 28.5801C76.13 28.5801 75.05 27.5001 75.05 26.0201C75.05 24.5401 76.13 23.43 77.42 23.43C78.71 23.43 79.69 24.5301 79.69 26.0201C79.69 27.5101 78.69 28.5801 77.42 28.5801ZM101.81 17.5H97.34V30H99.21V25.26H101.82C103.89 25.26 105.92 23.76 105.92 21.38C105.92 19 103.89 17.5 101.82 17.5H101.81ZM101.85 23.5201H99.2V19.23H101.85C103.25 19.23 104.04 20.3901 104.04 21.3701C104.04 22.3501 103.25 23.51 101.85 23.51V23.5201ZM113.39 21.73C112.04 21.73 110.64 22.33 110.06 23.64L111.72 24.3301C112.07 23.6401 112.73 23.41 113.42 23.41C114.38 23.41 115.37 23.9901 115.38 25.0201V25.1501C115.04 24.9601 114.32 24.67 113.43 24.67C111.64 24.67 109.83 25.65 109.83 27.48C109.83 29.15 111.29 30.23 112.93 30.23C114.18 30.23 114.88 29.67 115.31 29.01H115.37V29.98H117.17V25.19C117.17 22.97 115.51 21.73 113.37 21.73H113.39ZM113.16 28.5801C112.55 28.5801 111.7 28.2701 111.7 27.5201C111.7 26.5601 112.76 26.19 113.68 26.19C114.5 26.19 114.89 26.3701 115.38 26.6101C115.24 27.7701 114.24 28.59 113.16 28.59V28.5801ZM123.74 22L121.6 27.42H121.54L119.32 22H117.31L120.64 29.5801L118.74 33.7901H120.69L125.82 22H123.75H123.74ZM106.94 30H108.81V17.5H106.94V30Z" fill="white"/>
<path d="M20.72 19.4199L10.07 30.7199C10.4 31.9499 11.52 32.8499 12.85 32.8499C13.38 32.8499 13.88 32.7099 14.31 32.4499L14.34 32.4299L26.32 25.5199L20.71 19.4099L20.72 19.4199Z" fill="#EA4335"/>
<path d="M31.49 17.5H31.48L26.31 14.49L20.48 19.68L26.33 25.53L31.48 22.56C32.38 22.07 32.99 21.12 32.99 20.03C32.99 18.94 32.39 17.99 31.49 17.51V17.5Z" fill="#FBBC04"/>
<path d="M10.07 9.27979C10.01 9.51979 9.97 9.75978 9.97 10.0198V29.9898C9.97 30.2498 10 30.4898 10.07 30.7298L21.08 19.7198L10.07 9.27979Z" fill="#4285F4"/>
<path d="M20.8 19.9999L26.31 14.4899L14.34 7.54989C13.91 7.28989 13.4 7.13989 12.85 7.13989C11.52 7.13989 10.4 8.04989 10.07 9.26989L20.8 19.9899V19.9999Z" fill="#34A853"/>
<path d="M42.11 14.27H41.37V12.26H41.96C42.48 11.81 42.73 11.05 42.72 9.95999V6.98999H46.73V12.25H47.4V14.26H46.66V12.99H42.11V14.26V14.27ZM43.5 9.96999C43.51 10.92 43.32 11.68 42.93 12.27H45.96V7.73999H43.5V9.96999Z" fill="white" stroke="white" stroke-width="0.2" stroke-miterlimit="10"/>
<path d="M53.41 12.2201C52.82 12.8301 52.09 13.1301 51.21 13.1301C50.33 13.1301 49.6 12.8301 49.01 12.2201C48.42 11.6101 48.13 10.8701 48.13 10.0001C48.13 9.13012 48.42 8.38012 49.01 7.78012C49.6 7.17012 50.33 6.87012 51.21 6.87012C52.09 6.87012 52.81 7.17012 53.41 7.78012C54 8.39012 54.3 9.13012 54.3 10.0001C54.3 10.8701 54.01 11.6201 53.42 12.2201H53.41ZM49.58 11.7201C50.02 12.1701 50.57 12.3901 51.21 12.3901C51.85 12.3901 52.4 12.1701 52.84 11.7201C53.28 11.2701 53.51 10.7001 53.51 10.0001C53.51 9.30012 53.29 8.73012 52.84 8.28012C52.4 7.83012 51.85 7.61012 51.21 7.61012C50.57 7.61012 50.02 7.83012 49.58 8.28012C49.14 8.73012 48.91 9.30012 48.91 10.0001C48.91 10.7001 49.13 11.2701 49.58 11.7201Z" fill="white" stroke="white" stroke-width="0.2" stroke-miterlimit="10"/>
<path d="M58.18 13.1301C57.3 13.1301 56.56 12.8301 55.96 12.2301C55.36 11.6301 55.06 10.8901 55.06 9.9901C55.06 9.0901 55.36 8.3501 55.96 7.7501C56.56 7.1501 57.3 6.8501 58.18 6.8501C59.06 6.8501 59.82 7.1801 60.38 7.8301L59.84 8.3501C59.43 7.8401 58.88 7.5901 58.17 7.5901C57.52 7.5901 56.96 7.8101 56.51 8.2501C56.06 8.6901 55.84 9.2701 55.84 9.9801C55.84 10.6901 56.06 11.2701 56.51 11.7101C56.96 12.1501 57.51 12.3701 58.17 12.3701C58.89 12.3701 59.51 12.0801 60.01 11.5001L60.55 12.0401C60.28 12.3701 59.93 12.6301 59.52 12.8201C59.11 13.0101 58.66 13.1101 58.17 13.1101L58.18 13.1301Z" fill="white" stroke="white" stroke-width="0.2" stroke-miterlimit="10"/>
<path d="M63.68 13H62.91V7.74H61.23V7H65.35V7.74H63.67V13H63.68Z" fill="white" stroke="white" stroke-width="0.2" stroke-miterlimit="10"/>
<path d="M70.65 7L68.38 12.06C68.07 12.77 67.6 13.13 66.98 13.13C66.8 13.13 66.6 13.09 66.38 13L66.58 12.29C66.71 12.36 66.84 12.4 66.98 12.4C67.16 12.4 67.3 12.37 67.39 12.3C67.48 12.23 67.58 12.1 67.66 11.92L67.88 11.44L65.86 7.01H66.77L68.25 10.45H68.28L69.73 7.01H70.64L70.65 7Z" fill="white" stroke="white" stroke-width="0.2" stroke-miterlimit="10"/>
<path d="M71.52 13V7H75.86V13H75.09V7.74H72.29V13H71.52Z" fill="white" stroke="white" stroke-width="0.2" stroke-miterlimit="10"/>
<path d="M77.23 13V7H78V9.57H81V7H81.77V13H81V10.29H78V13H77.23Z" fill="white" stroke="white" stroke-width="0.2" stroke-miterlimit="10"/>
<path d="M88.06 12.2201C87.47 12.8301 86.74 13.1301 85.86 13.1301C84.98 13.1301 84.25 12.8301 83.66 12.2201C83.07 11.6101 82.78 10.8701 82.78 10.0001C82.78 9.13012 83.07 8.38012 83.66 7.78012C84.25 7.17012 84.98 6.87012 85.86 6.87012C86.74 6.87012 87.46 7.17012 88.06 7.78012C88.65 8.39012 88.95 9.13012 88.95 10.0001C88.95 10.8701 88.66 11.6201 88.07 12.2201H88.06ZM84.23 11.7201C84.67 12.1701 85.22 12.3901 85.86 12.3901C86.5 12.3901 87.05 12.1701 87.49 11.7201C87.93 11.2701 88.16 10.7001 88.16 10.0001C88.16 9.30012 87.94 8.73012 87.49 8.28012C87.05 7.83012 86.5 7.61012 85.86 7.61012C85.22 7.61012 84.67 7.83012 84.23 8.28012C83.79 8.73012 83.56 9.30012 83.56 10.0001C83.56 10.7001 83.78 11.2701 84.23 11.7201Z" fill="white" stroke="white" stroke-width="0.2" stroke-miterlimit="10"/>
<path d="M92.09 13V7H94.26C94.73 7 95.14 7.16 95.48 7.46C95.82 7.77 96 8.16 96 8.63C96 8.92 95.93 9.17 95.78 9.38C95.63 9.6 95.44 9.76 95.19 9.87V9.9C95.49 10 95.73 10.17 95.92 10.42C96.11 10.67 96.21 10.95 96.21 11.28C96.21 11.77 96.03 12.18 95.67 12.5C95.31 12.82 94.88 12.99 94.39 12.99H92.1L92.09 13ZM92.86 9.57H94.26C94.55 9.57 94.78 9.47 94.96 9.28C95.14 9.09 95.22 8.88 95.22 8.65C95.22 8.42 95.14 8.21 94.96 8.02C94.79 7.83 94.57 7.73 94.29 7.73H92.86V9.57ZM92.86 12.26H94.41C94.71 12.26 94.95 12.16 95.13 11.95C95.31 11.74 95.41 11.52 95.41 11.27C95.41 11.02 95.32 10.8 95.12 10.6C94.93 10.4 94.68 10.29 94.37 10.29H92.85V12.26H92.86Z" fill="white" stroke="white" stroke-width="0.2" stroke-miterlimit="10"/>
</svg>
