<svg width="100" height="101" viewBox="0 0 100 101" fill="none" xmlns="http://www.w3.org/2000/svg">
<path d="M2.7027 0.22998H0L0 2.93268H2.7027V0.22998Z" fill="white"/>
<path d="M5.40541 0.22998H2.7027V2.93268H5.40541V0.22998Z" fill="white"/>
<path d="M8.10811 0.22998H5.40541V2.93268H8.10811V0.22998Z" fill="white"/>
<path d="M10.8108 0.22998H8.10811V2.93268H10.8108V0.22998Z" fill="white"/>
<path d="M13.5135 0.22998H10.8108V2.93268H13.5135V0.22998Z" fill="white"/>
<path d="M16.2162 0.22998H13.5135V2.93268H16.2162V0.22998Z" fill="white"/>
<path d="M18.9189 0.22998H16.2162V2.93268H18.9189V0.22998Z" fill="white"/>
<path d="M24.3243 0.22998H21.6216V2.93268H24.3243V0.22998Z" fill="white"/>
<path d="M29.7297 0.22998H27.027V2.93268H29.7297V0.22998Z" fill="white"/>
<path d="M32.4324 0.22998H29.7297V2.93268H32.4324V0.22998Z" fill="white"/>
<path d="M35.1351 0.22998H32.4324V2.93268H35.1351V0.22998Z" fill="white"/>
<path d="M37.8378 0.22998H35.1351V2.93268H37.8378V0.22998Z" fill="white"/>
<path d="M40.5405 0.22998H37.8378V2.93268H40.5405V0.22998Z" fill="white"/>
<path d="M45.9459 0.22998H43.2432V2.93268H45.9459V0.22998Z" fill="white"/>
<path d="M48.6487 0.22998H45.9459V2.93268H48.6487V0.22998Z" fill="white"/>
<path d="M51.3514 0.22998H48.6487V2.93268H51.3514V0.22998Z" fill="white"/>
<path d="M56.7568 0.22998H54.0541V2.93268H56.7568V0.22998Z" fill="white"/>
<path d="M59.4595 0.22998H56.7568V2.93268H59.4595V0.22998Z" fill="white"/>
<path d="M67.5676 0.22998H64.8649V2.93268H67.5676V0.22998Z" fill="white"/>
<path d="M75.6757 0.22998H72.973V2.93268H75.6757V0.22998Z" fill="white"/>
<path d="M83.7838 0.22998H81.0811V2.93268H83.7838V0.22998Z" fill="white"/>
<path d="M86.4865 0.22998H83.7838V2.93268H86.4865V0.22998Z" fill="white"/>
<path d="M89.1892 0.22998H86.4865V2.93268H89.1892V0.22998Z" fill="white"/>
<path d="M91.8919 0.22998H89.1892V2.93268H91.8919V0.22998Z" fill="white"/>
<path d="M94.5946 0.22998H91.8919V2.93268H94.5946V0.22998Z" fill="white"/>
<path d="M97.2973 0.22998H94.5946V2.93268H97.2973V0.22998Z" fill="white"/>
<path d="M100 0.22998H97.2973V2.93268H100V0.22998Z" fill="white"/>
<path d="M2.7027 2.93268H0L0 5.63539H2.7027V2.93268Z" fill="white"/>
<path d="M18.9189 2.93268H16.2162V5.63539H18.9189V2.93268Z" fill="white"/>
<path d="M27.027 2.93268H24.3243V5.63539H27.027V2.93268Z" fill="white"/>
<path d="M35.1351 2.93268H32.4324L32.4324 5.63539H35.1351V2.93268Z" fill="white"/>
<path d="M51.3514 2.93268H48.6487L48.6486 5.63539H51.3514V2.93268Z" fill="white"/>
<path d="M59.4595 2.93268H56.7568V5.63539H59.4595V2.93268Z" fill="white"/>
<path d="M62.1622 2.93268H59.4595V5.63539H62.1622V2.93268Z" fill="white"/>
<path d="M67.5676 2.93268H64.8649V5.63539H67.5676V2.93268Z" fill="white"/>
<path d="M70.2703 2.93268H67.5676V5.63539H70.2703V2.93268Z" fill="white"/>
<path d="M72.973 2.93268H70.2703V5.63539H72.973V2.93268Z" fill="white"/>
<path d="M83.7838 2.93268H81.0811V5.63539H83.7838V2.93268Z" fill="white"/>
<path d="M100 2.93268H97.2973V5.63539H100V2.93268Z" fill="white"/>
<path d="M2.7027 5.63539H0L0 8.33809H2.7027V5.63539Z" fill="white"/>
<path d="M8.10811 5.63539H5.40541V8.33809H8.10811V5.63539Z" fill="white"/>
<path d="M10.8108 5.63539H8.10811V8.33809H10.8108V5.63539Z" fill="white"/>
<path d="M13.5135 5.63539H10.8108V8.33809H13.5135V5.63539Z" fill="white"/>
<path d="M18.9189 5.63539H16.2162V8.33809H18.9189V5.63539Z" fill="white"/>
<path d="M24.3243 5.63539H21.6216V8.33809H24.3243V5.63539Z" fill="white"/>
<path d="M27.027 5.63539H24.3243V8.33809H27.027V5.63539Z" fill="white"/>
<path d="M32.4324 5.63539H29.7297V8.33809H32.4324L32.4324 5.63539Z" fill="white"/>
<path d="M40.5405 5.63539H37.8378V8.33809H40.5405V5.63539Z" fill="white"/>
<path d="M45.9459 5.63539H43.2432V8.33809H45.9459V5.63539Z" fill="white"/>
<path d="M54.0541 5.63539H51.3514V8.33809H54.0541V5.63539Z" fill="white"/>
<path d="M59.4595 5.63539H56.7568V8.33809H59.4595V5.63539Z" fill="white"/>
<path d="M70.2703 5.63539H67.5676V8.33809H70.2703V5.63539Z" fill="white"/>
<path d="M72.973 5.63539H70.2703V8.33809H72.973V5.63539Z" fill="white"/>
<path d="M75.6757 5.63539H72.973V8.33809H75.6757V5.63539Z" fill="white"/>
<path d="M83.7838 5.63539H81.0811V8.33809H83.7838V5.63539Z" fill="white"/>
<path d="M89.1892 5.63539H86.4865V8.33809H89.1892V5.63539Z" fill="white"/>
<path d="M91.8919 5.63539H89.1892V8.33809H91.8919V5.63539Z" fill="white"/>
<path d="M94.5946 5.63539H91.8919V8.33809H94.5946V5.63539Z" fill="white"/>
<path d="M100 5.63539H97.2973V8.33809H100V5.63539Z" fill="white"/>
<path d="M2.7027 8.33809H0L0 11.0408H2.7027V8.33809Z" fill="white"/>
<path d="M8.10811 8.33809H5.40541V11.0408H8.10811V8.33809Z" fill="white"/>
<path d="M10.8108 8.33809H8.10811V11.0408H10.8108V8.33809Z" fill="white"/>
<path d="M13.5135 8.33809H10.8108V11.0408H13.5135V8.33809Z" fill="white"/>
<path d="M18.9189 8.33809H16.2162V11.0408H18.9189V8.33809Z" fill="white"/>
<path d="M24.3243 8.33809H21.6216V11.0408H24.3243V8.33809Z" fill="white"/>
<path d="M29.7297 8.33809H27.027V11.0408H29.7297V8.33809Z" fill="white"/>
<path d="M35.1351 8.33809H32.4324L32.4324 11.0408H35.1351V8.33809Z" fill="white"/>
<path d="M40.5405 8.33809H37.8378V11.0408H40.5405V8.33809Z" fill="white"/>
<path d="M45.9459 8.33809H43.2432V11.0408H45.9459V8.33809Z" fill="white"/>
<path d="M48.6487 8.33809H45.9459V11.0408H48.6487V8.33809Z" fill="white"/>
<path d="M59.4595 8.33809H56.7568V11.0408H59.4595V8.33809Z" fill="white"/>
<path d="M70.2703 8.33809H67.5676V11.0408H70.2703V8.33809Z" fill="white"/>
<path d="M75.6757 8.33809H72.973V11.0408H75.6757V8.33809Z" fill="white"/>
<path d="M83.7838 8.33809H81.0811V11.0408H83.7838V8.33809Z" fill="white"/>
<path d="M89.1892 8.33809H86.4865V11.0408H89.1892V8.33809Z" fill="white"/>
<path d="M91.8919 8.33809H89.1892V11.0408H91.8919V8.33809Z" fill="white"/>
<path d="M94.5946 8.33809H91.8919V11.0408H94.5946V8.33809Z" fill="white"/>
<path d="M100 8.33809H97.2973V11.0408H100V8.33809Z" fill="white"/>
<path d="M2.7027 11.0408H0L0 13.7435H2.7027V11.0408Z" fill="white"/>
<path d="M8.10811 11.0408H5.40541V13.7435H8.10811V11.0408Z" fill="white"/>
<path d="M10.8108 11.0408H8.10811V13.7435H10.8108V11.0408Z" fill="white"/>
<path d="M13.5135 11.0408H10.8108V13.7435H13.5135V11.0408Z" fill="white"/>
<path d="M18.9189 11.0408H16.2162V13.7435H18.9189V11.0408Z" fill="white"/>
<path d="M27.027 11.0408H24.3243V13.7435H27.027V11.0408Z" fill="white"/>
<path d="M32.4324 11.0408H29.7297V13.7435H32.4324L32.4324 11.0408Z" fill="white"/>
<path d="M35.1351 11.0408H32.4324L32.4324 13.7435H35.1351V11.0408Z" fill="white"/>
<path d="M51.3514 11.0408H48.6487L48.6486 13.7435H51.3514V11.0408Z" fill="white"/>
<path d="M59.4595 11.0408H56.7568V13.7435H59.4595V11.0408Z" fill="white"/>
<path d="M64.8649 11.0408H62.1622V13.7435H64.8649V11.0408Z" fill="white"/>
<path d="M72.973 11.0408H70.2703V13.7435H72.973V11.0408Z" fill="white"/>
<path d="M78.3784 11.0408H75.6757V13.7435H78.3784V11.0408Z" fill="white"/>
<path d="M83.7838 11.0408H81.0811V13.7435H83.7838V11.0408Z" fill="white"/>
<path d="M89.1892 11.0408H86.4865V13.7435H89.1892V11.0408Z" fill="white"/>
<path d="M91.8919 11.0408H89.1892V13.7435H91.8919V11.0408Z" fill="white"/>
<path d="M94.5946 11.0408H91.8919V13.7435H94.5946V11.0408Z" fill="white"/>
<path d="M100 11.0408H97.2973V13.7435H100V11.0408Z" fill="white"/>
<path d="M2.7027 13.7435H0L0 16.4462H2.7027V13.7435Z" fill="white"/>
<path d="M18.9189 13.7435H16.2162V16.4462H18.9189V13.7435Z" fill="white"/>
<path d="M24.3243 13.7435H21.6216V16.4462H24.3243V13.7435Z" fill="white"/>
<path d="M27.027 13.7435H24.3243V16.4462H27.027V13.7435Z" fill="white"/>
<path d="M32.4324 13.7435H29.7297V16.4462H32.4324V13.7435Z" fill="white"/>
<path d="M40.5405 13.7435H37.8378V16.4462H40.5405V13.7435Z" fill="white"/>
<path d="M45.9459 13.7435H43.2432V16.4462H45.9459V13.7435Z" fill="white"/>
<path d="M48.6486 13.7435H45.9459V16.4462H48.6487L48.6486 13.7435Z" fill="white"/>
<path d="M51.3514 13.7435H48.6486L48.6487 16.4462H51.3514V13.7435Z" fill="white"/>
<path d="M59.4595 13.7435H56.7568V16.4462H59.4595V13.7435Z" fill="white"/>
<path d="M67.5676 13.7435H64.8649V16.4462H67.5676V13.7435Z" fill="white"/>
<path d="M70.2703 13.7435H67.5676V16.4462H70.2703V13.7435Z" fill="white"/>
<path d="M78.3784 13.7435H75.6757V16.4462H78.3784V13.7435Z" fill="white"/>
<path d="M83.7838 13.7435H81.0811V16.4462H83.7838V13.7435Z" fill="white"/>
<path d="M100 13.7435H97.2973V16.4462H100V13.7435Z" fill="white"/>
<path d="M2.7027 16.4462H0L0 19.1489H2.7027V16.4462Z" fill="white"/>
<path d="M5.40541 16.4462H2.7027V19.1489H5.40541V16.4462Z" fill="white"/>
<path d="M8.10811 16.4462H5.40541V19.1489H8.10811V16.4462Z" fill="white"/>
<path d="M10.8108 16.4462H8.10811V19.1489H10.8108V16.4462Z" fill="white"/>
<path d="M13.5135 16.4462H10.8108V19.1489H13.5135V16.4462Z" fill="white"/>
<path d="M16.2162 16.4462H13.5135V19.1489H16.2162V16.4462Z" fill="white"/>
<path d="M18.9189 16.4462H16.2162V19.1489H18.9189V16.4462Z" fill="white"/>
<path d="M24.3243 16.4462H21.6216V19.1489H24.3243V16.4462Z" fill="white"/>
<path d="M29.7297 16.4462H27.027V19.1489H29.7297V16.4462Z" fill="white"/>
<path d="M35.1351 16.4462H32.4324L32.4324 19.1489H35.1351V16.4462Z" fill="white"/>
<path d="M40.5405 16.4462H37.8378V19.1489H40.5405V16.4462Z" fill="white"/>
<path d="M45.9459 16.4462H43.2432V19.1489H45.9459V16.4462Z" fill="white"/>
<path d="M51.3514 16.4462H48.6487L48.6486 19.1489H51.3514V16.4462Z" fill="white"/>
<path d="M56.7568 16.4462H54.0541V19.1489H56.7568V16.4462Z" fill="white"/>
<path d="M62.1622 16.4462H59.4595V19.1489H62.1622V16.4462Z" fill="white"/>
<path d="M67.5676 16.4462H64.8649V19.1489H67.5676V16.4462Z" fill="white"/>
<path d="M72.973 16.4462H70.2703V19.1489H72.973V16.4462Z" fill="white"/>
<path d="M78.3784 16.4462H75.6757V19.1489H78.3784V16.4462Z" fill="white"/>
<path d="M83.7838 16.4462H81.0811V19.1489H83.7838V16.4462Z" fill="white"/>
<path d="M86.4865 16.4462H83.7838V19.1489H86.4865V16.4462Z" fill="white"/>
<path d="M89.1892 16.4462H86.4865V19.1489H89.1892V16.4462Z" fill="white"/>
<path d="M91.8919 16.4462H89.1892V19.1489H91.8919V16.4462Z" fill="white"/>
<path d="M94.5946 16.4462H91.8919V19.1489H94.5946V16.4462Z" fill="white"/>
<path d="M97.2973 16.4462H94.5946V19.1489H97.2973V16.4462Z" fill="white"/>
<path d="M100 16.4462H97.2973V19.1489H100V16.4462Z" fill="white"/>
<path d="M24.3243 19.1489H21.6216V21.8516H24.3243V19.1489Z" fill="white"/>
<path d="M27.027 19.1489H24.3243V21.8516H27.027V19.1489Z" fill="white"/>
<path d="M32.4324 19.1489H29.7297V21.8516H32.4324L32.4324 19.1489Z" fill="white"/>
<path d="M43.2432 19.1489H40.5405L40.5405 21.8516H43.2432L43.2432 19.1489Z" fill="white"/>
<path d="M45.9459 19.1489H43.2432L43.2432 21.8516H45.9459V19.1489Z" fill="white"/>
<path d="M48.6486 19.1489H45.9459V21.8516H48.6487L48.6486 19.1489Z" fill="white"/>
<path d="M54.0541 19.1489H51.3514V21.8516H54.0541V19.1489Z" fill="white"/>
<path d="M62.1622 19.1489H59.4595V21.8516H62.1622V19.1489Z" fill="white"/>
<path d="M67.5676 19.1489H64.8649V21.8516H67.5676V19.1489Z" fill="white"/>
<path d="M70.2703 19.1489H67.5676V21.8516H70.2703V19.1489Z" fill="white"/>
<path d="M72.973 19.1489H70.2703V21.8516H72.973V19.1489Z" fill="white"/>
<path d="M78.3784 19.1489H75.6757V21.8516H78.3784V19.1489Z" fill="white"/>
<path d="M2.7027 21.8516H0L0 24.5543H2.7027V21.8516Z" fill="white"/>
<path d="M5.40541 21.8516H2.7027V24.5543H5.40541V21.8516Z" fill="white"/>
<path d="M10.8108 21.8516H8.10811V24.5543H10.8108V21.8516Z" fill="white"/>
<path d="M18.9189 21.8516H16.2162V24.5543H18.9189V21.8516Z" fill="white"/>
<path d="M21.6216 21.8516H18.9189V24.5543H21.6216V21.8516Z" fill="white"/>
<path d="M27.027 21.8516H24.3243V24.5543H27.027V21.8516Z" fill="white"/>
<path d="M32.4324 21.8516H29.7297V24.5543H32.4324V21.8516Z" fill="white"/>
<path d="M35.1351 21.8516H32.4324V24.5543H35.1351V21.8516Z" fill="white"/>
<path d="M45.9459 21.8516H43.2432L43.2432 24.5543H45.9459V21.8516Z" fill="white"/>
<path d="M48.6487 21.8516H45.9459V24.5543H48.6487V21.8516Z" fill="white"/>
<path d="M59.4595 21.8516H56.7568V24.5543H59.4595V21.8516Z" fill="white"/>
<path d="M64.8649 21.8516H62.1622V24.5543H64.8649V21.8516Z" fill="white"/>
<path d="M67.5676 21.8516H64.8649V24.5543H67.5676V21.8516Z" fill="white"/>
<path d="M72.973 21.8516H70.2703V24.5543H72.973V21.8516Z" fill="white"/>
<path d="M75.6757 21.8516H72.973V24.5543H75.6757V21.8516Z" fill="white"/>
<path d="M78.3784 21.8516H75.6757V24.5543H78.3784V21.8516Z" fill="white"/>
<path d="M81.0811 21.8516H78.3784V24.5543H81.0811V21.8516Z" fill="white"/>
<path d="M83.7838 21.8516H81.0811V24.5543H83.7838V21.8516Z" fill="white"/>
<path d="M86.4865 21.8516H83.7838V24.5543H86.4865V21.8516Z" fill="white"/>
<path d="M91.8919 21.8516H89.1892V24.5543H91.8919V21.8516Z" fill="white"/>
<path d="M94.5946 21.8516H91.8919V24.5543H94.5946V21.8516Z" fill="white"/>
<path d="M100 21.8516H97.2973V24.5543H100V21.8516Z" fill="white"/>
<path d="M5.40541 24.5543H2.7027V27.257H5.40541V24.5543Z" fill="white"/>
<path d="M8.10811 24.5543H5.40541V27.257H8.10811V24.5543Z" fill="white"/>
<path d="M13.5135 24.5543H10.8108V27.257H13.5135V24.5543Z" fill="white"/>
<path d="M24.3243 24.5543H21.6216V27.257H24.3243V24.5543Z" fill="white"/>
<path d="M27.027 24.5543H24.3243V27.257H27.027V24.5543Z" fill="white"/>
<path d="M40.5405 24.5543H37.8378V27.257H40.5405V24.5543Z" fill="white"/>
<path d="M43.2432 24.5543H40.5405V27.257H43.2432L43.2432 24.5543Z" fill="white"/>
<path d="M48.6487 24.5543H45.9459L45.9459 27.257H48.6487V24.5543Z" fill="white"/>
<path d="M51.3514 24.5543H48.6487V27.257H51.3514V24.5543Z" fill="white"/>
<path d="M59.4595 24.5543H56.7568V27.257H59.4595V24.5543Z" fill="white"/>
<path d="M62.1622 24.5543H59.4595V27.257H62.1622V24.5543Z" fill="white"/>
<path d="M67.5676 24.5543H64.8649V27.257H67.5676V24.5543Z" fill="white"/>
<path d="M70.2703 24.5543H67.5676V27.257H70.2703V24.5543Z" fill="white"/>
<path d="M75.6757 24.5543H72.973V27.257H75.6757V24.5543Z" fill="white"/>
<path d="M78.3784 24.5543H75.6757V27.257H78.3784V24.5543Z" fill="white"/>
<path d="M81.0811 24.5543H78.3784V27.257H81.0811V24.5543Z" fill="white"/>
<path d="M89.1892 24.5543H86.4865V27.257H89.1892V24.5543Z" fill="white"/>
<path d="M94.5946 24.5543H91.8919V27.257H94.5946V24.5543Z" fill="white"/>
<path d="M2.7027 27.257H0L0 29.9597H2.7027V27.257Z" fill="white"/>
<path d="M5.40541 27.257H2.7027V29.9597H5.40541V27.257Z" fill="white"/>
<path d="M18.9189 27.257H16.2162V29.9597H18.9189V27.257Z" fill="white"/>
<path d="M21.6216 27.257H18.9189V29.9597H21.6216V27.257Z" fill="white"/>
<path d="M24.3243 27.257H21.6216V29.9597H24.3243V27.257Z" fill="white"/>
<path d="M29.7297 27.257H27.027V29.9597H29.7297V27.257Z" fill="white"/>
<path d="M32.4324 27.257H29.7297V29.9597H32.4324V27.257Z" fill="white"/>
<path d="M37.8378 27.257H35.1351V29.9597H37.8378V27.257Z" fill="white"/>
<path d="M43.2432 27.257H40.5405L40.5405 29.9597H43.2432V27.257Z" fill="white"/>
<path d="M48.6487 27.257H45.9459V29.9597H48.6487V27.257Z" fill="white"/>
<path d="M54.0541 27.257H51.3514V29.9597H54.0541V27.257Z" fill="white"/>
<path d="M56.7568 27.257H54.0541V29.9597H56.7568V27.257Z" fill="white"/>
<path d="M59.4595 27.257H56.7568V29.9597H59.4595V27.257Z" fill="white"/>
<path d="M67.5676 27.257H64.8649V29.9597H67.5676V27.257Z" fill="white"/>
<path d="M70.2703 27.257H67.5676V29.9597H70.2703V27.257Z" fill="white"/>
<path d="M75.6757 27.257H72.973V29.9597H75.6757V27.257Z" fill="white"/>
<path d="M81.0811 27.257H78.3784V29.9597H81.0811V27.257Z" fill="white"/>
<path d="M83.7838 27.257H81.0811V29.9597H83.7838V27.257Z" fill="white"/>
<path d="M86.4865 27.257H83.7838V29.9597H86.4865V27.257Z" fill="white"/>
<path d="M97.2973 27.257H94.5946V29.9597H97.2973V27.257Z" fill="white"/>
<path d="M5.40541 29.9597H2.7027V32.6624H5.40541V29.9597Z" fill="white"/>
<path d="M8.10811 29.9597H5.40541V32.6624H8.10811V29.9597Z" fill="white"/>
<path d="M10.8108 29.9597H8.10811V32.6624H10.8108V29.9597Z" fill="white"/>
<path d="M13.5135 29.9597H10.8108V32.6624H13.5135V29.9597Z" fill="white"/>
<path d="M16.2162 29.9597H13.5135V32.6624H16.2162V29.9597Z" fill="white"/>
<path d="M24.3243 29.9597H21.6216V32.6624H24.3243V29.9597Z" fill="white"/>
<path d="M40.5405 29.9597H37.8378V32.6624H40.5405L40.5405 29.9597Z" fill="white"/>
<path d="M43.2432 29.9597H40.5405L40.5405 32.6624H43.2432V29.9597Z" fill="white"/>
<path d="M45.9459 29.9597H43.2432V32.6624H45.9459L45.9459 29.9597Z" fill="white"/>
<path d="M59.4595 29.9597H56.7568V32.6624H59.4595V29.9597Z" fill="white"/>
<path d="M62.1622 29.9597H59.4595V32.6624H62.1622V29.9597Z" fill="white"/>
<path d="M67.5676 29.9597H64.8649V32.6624H67.5676V29.9597Z" fill="white"/>
<path d="M70.2703 29.9597H67.5676V32.6624H70.2703V29.9597Z" fill="white"/>
<path d="M72.973 29.9597H70.2703V32.6624H72.973V29.9597Z" fill="white"/>
<path d="M78.3784 29.9597H75.6757V32.6624H78.3784V29.9597Z" fill="white"/>
<path d="M81.0811 29.9597H78.3784V32.6624H81.0811V29.9597Z" fill="white"/>
<path d="M83.7838 29.9597H81.0811V32.6624H83.7838V29.9597Z" fill="white"/>
<path d="M91.8919 29.9597H89.1892V32.6624H91.8919V29.9597Z" fill="white"/>
<path d="M94.5946 29.9597H91.8919V32.6624H94.5946V29.9597Z" fill="white"/>
<path d="M97.2973 29.9597H94.5946V32.6624H97.2973V29.9597Z" fill="white"/>
<path d="M100 29.9597H97.2973V32.6624H100V29.9597Z" fill="white"/>
<path d="M10.8108 32.6624H8.10811V35.3651H10.8108V32.6624Z" fill="white"/>
<path d="M18.9189 32.6624L16.2162 32.6624V35.3651H18.9189V32.6624Z" fill="white"/>
<path d="M24.3243 32.6624H21.6216V35.3651H24.3243V32.6624Z" fill="white"/>
<path d="M27.027 32.6624L24.3243 32.6624V35.3651H27.027V32.6624Z" fill="white"/>
<path d="M37.8378 32.6624L35.1351 32.6624V35.3651H37.8378V32.6624Z" fill="white"/>
<path d="M43.2432 32.6624H40.5405L40.5405 35.3651H43.2432V32.6624Z" fill="white"/>
<path d="M45.9459 32.6624H43.2432V35.3651H45.9459V32.6624Z" fill="white"/>
<path d="M48.6487 32.6624L45.9459 32.6624V35.3651H48.6487V32.6624Z" fill="white"/>
<path d="M51.3514 32.6624H48.6487V35.3651H51.3514V32.6624Z" fill="white"/>
<path d="M54.0541 32.6624H51.3514V35.3651H54.0541V32.6624Z" fill="white"/>
<path d="M56.7568 32.6624L54.0541 32.6624V35.3651H56.7568V32.6624Z" fill="white"/>
<path d="M59.4595 32.6624H56.7568V35.3651H59.4595V32.6624Z" fill="white"/>
<path d="M62.1622 32.6624H59.4595V35.3651H62.1622V32.6624Z" fill="white"/>
<path d="M67.5676 32.6624H64.8649V35.3651H67.5676V32.6624Z" fill="white"/>
<path d="M70.2703 32.6624H67.5676V35.3651H70.2703V32.6624Z" fill="white"/>
<path d="M72.973 32.6624H70.2703V35.3651H72.973V32.6624Z" fill="white"/>
<path d="M75.6757 32.6624H72.973V35.3651H75.6757V32.6624Z" fill="white"/>
<path d="M78.3784 32.6624H75.6757V35.3651H78.3784V32.6624Z" fill="white"/>
<path d="M81.0811 32.6624H78.3784V35.3651H81.0811V32.6624Z" fill="white"/>
<path d="M83.7838 32.6624H81.0811V35.3651H83.7838V32.6624Z" fill="white"/>
<path d="M86.4865 32.6624L83.7838 32.6624V35.3651H86.4865V32.6624Z" fill="white"/>
<path d="M89.1892 32.6624L86.4865 32.6624V35.3651H89.1892V32.6624Z" fill="white"/>
<path d="M94.5946 32.6624H91.8919V35.3651H94.5946V32.6624Z" fill="white"/>
<path d="M97.2973 32.6624H94.5946V35.3651H97.2973V32.6624Z" fill="white"/>
<path d="M2.7027 35.3651H0L0 38.0678H2.7027V35.3651Z" fill="white"/>
<path d="M8.10811 35.3651L5.40541 35.3651V38.0678H8.10811V35.3651Z" fill="white"/>
<path d="M10.8108 35.3651H8.10811V38.0678H10.8108V35.3651Z" fill="white"/>
<path d="M13.5135 35.3651L10.8108 35.3651V38.0678H13.5135V35.3651Z" fill="white"/>
<path d="M21.6216 35.3651H18.9189V38.0678H21.6216V35.3651Z" fill="white"/>
<path d="M24.3243 35.3651H21.6216V38.0678H24.3243V35.3651Z" fill="white"/>
<path d="M29.7297 35.3651L27.027 35.3651V38.0678H29.7297V35.3651Z" fill="white"/>
<path d="M37.8378 35.3651H35.1351V38.0678H37.8378V35.3651Z" fill="white"/>
<path d="M40.5405 35.3651H37.8378V38.0678H40.5405L40.5405 35.3651Z" fill="white"/>
<path d="M45.9459 35.3651H43.2432L43.2432 38.0678H45.9459V35.3651Z" fill="white"/>
<path d="M59.4595 35.3651H56.7568V38.0678H59.4595V35.3651Z" fill="white"/>
<path d="M62.1622 35.3651H59.4595V38.0678H62.1622V35.3651Z" fill="white"/>
<path d="M64.8649 35.3651H62.1622V38.0678H64.8649V35.3651Z" fill="white"/>
<path d="M67.5676 35.3651H64.8649V38.0678H67.5676V35.3651Z" fill="white"/>
<path d="M75.6757 35.3651H72.973V38.0678H75.6757V35.3651Z" fill="white"/>
<path d="M83.7838 35.3651H81.0811V38.0678H83.7838V35.3651Z" fill="white"/>
<path d="M86.4865 35.3651H83.7838V38.0678H86.4865V35.3651Z" fill="white"/>
<path d="M89.1892 35.3651H86.4865V38.0678H89.1892V35.3651Z" fill="white"/>
<path d="M91.8919 35.3651H89.1892V38.0678H91.8919V35.3651Z" fill="white"/>
<path d="M5.40541 38.0678H2.7027V40.7705H5.40541V38.0678Z" fill="white"/>
<path d="M8.10811 38.0678H5.40541V40.7705H8.10811V38.0678Z" fill="white"/>
<path d="M16.2162 38.0678H13.5135V40.7705H16.2162V38.0678Z" fill="white"/>
<path d="M18.9189 38.0678H16.2162V40.7705H18.9189V38.0678Z" fill="white"/>
<path d="M21.6216 38.0678H18.9189V40.7705H21.6216V38.0678Z" fill="white"/>
<path d="M24.3243 38.0678H21.6216V40.7705H24.3243V38.0678Z" fill="white"/>
<path d="M27.027 38.0678H24.3243V40.7705H27.027V38.0678Z" fill="white"/>
<path d="M29.7297 38.0678H27.027V40.7705H29.7297V38.0678Z" fill="white"/>
<path d="M37.8378 38.0678H35.1351V40.7705H37.8378V38.0678Z" fill="white"/>
<path d="M40.5405 38.0678H37.8378V40.7705H40.5405V38.0678Z" fill="white"/>
<path d="M43.2432 38.0678H40.5405V40.7705H43.2432L43.2432 38.0678Z" fill="white"/>
<path d="M64.8649 38.0678H62.1622V40.7705H64.8649V38.0678Z" fill="white"/>
<path d="M67.5676 38.0678H64.8649V40.7705H67.5676V38.0678Z" fill="white"/>
<path d="M72.973 38.0678H70.2703V40.7705H72.973V38.0678Z" fill="white"/>
<path d="M81.0811 38.0678H78.3784V40.7705H81.0811V38.0678Z" fill="white"/>
<path d="M91.8919 38.0678H89.1892V40.7705H91.8919V38.0678Z" fill="white"/>
<path d="M94.5946 38.0678H91.8919V40.7705H94.5946V38.0678Z" fill="white"/>
<path d="M100 38.0678H97.2973V40.7705H100V38.0678Z" fill="white"/>
<path d="M2.7027 40.7705L0 40.7705L0 43.4732H2.7027V40.7705Z" fill="white"/>
<path d="M8.10811 40.7705H5.40541V43.4732H8.10811V40.7705Z" fill="white"/>
<path d="M13.5135 40.7705L10.8108 40.7705V43.4732H13.5135V40.7705Z" fill="white"/>
<path d="M21.6216 40.7705H18.9189V43.4732H21.6216V40.7705Z" fill="white"/>
<path d="M27.027 40.7705H24.3243V43.4732H27.027V40.7705Z" fill="white"/>
<path d="M29.7297 40.7705H27.027V43.4732H29.7297V40.7705Z" fill="white"/>
<path d="M32.4324 40.7705L29.7297 40.7705V43.4732H32.4324V40.7705Z" fill="white"/>
<path d="M37.8378 40.7705H35.1351V43.4732H37.8378V40.7705Z" fill="white"/>
<path d="M43.2432 40.7705H40.5405L40.5405 43.4732H43.2432V40.7705Z" fill="white"/>
<path d="M45.9459 40.7705L43.2432 40.7705V43.4732H45.9459V40.7705Z" fill="white"/>
<path d="M51.3514 40.7705H48.6486V43.4732H51.3514V40.7705Z" fill="white"/>
<path d="M72.973 40.7705H70.2703V43.4732H72.973V40.7705Z" fill="white"/>
<path d="M78.3784 40.7705L75.6757 40.7705V43.4732H78.3784V40.7705Z" fill="white"/>
<path d="M81.0811 40.7705H78.3784V43.4732H81.0811V40.7705Z" fill="white"/>
<path d="M83.7838 40.7705L81.0811 40.7705V43.4732H83.7838V40.7705Z" fill="white"/>
<path d="M91.8919 40.7705H89.1892V43.4732H91.8919V40.7705Z" fill="white"/>
<path d="M100 40.7705H97.2973V43.4732H100V40.7705Z" fill="white"/>
<path d="M2.7027 43.4732H0L0 46.1759H2.7027V43.4732Z" fill="white"/>
<path d="M5.40541 43.4732H2.7027V46.1759H5.40541V43.4732Z" fill="white"/>
<path d="M10.8108 43.4732H8.10811V46.1759H10.8108V43.4732Z" fill="white"/>
<path d="M13.5135 43.4732H10.8108V46.1759H13.5135V43.4732Z" fill="white"/>
<path d="M16.2162 43.4732L13.5135 43.4732V46.1759H16.2162V43.4732Z" fill="white"/>
<path d="M18.9189 43.4732L16.2162 43.4732V46.1759H18.9189V43.4732Z" fill="white"/>
<path d="M21.6216 43.4732H18.9189V46.1759H21.6216V43.4732Z" fill="white"/>
<path d="M24.3243 43.4732H21.6216V46.1759H24.3243V43.4732Z" fill="white"/>
<path d="M27.027 43.4732H24.3243V46.1759H27.027V43.4732Z" fill="white"/>
<path d="M35.1351 43.4732H32.4324L32.4324 46.1759H35.1351L35.1351 43.4732Z" fill="white"/>
<path d="M37.8378 43.4732H35.1351L35.1351 46.1759H37.8378V43.4732Z" fill="white"/>
<path d="M40.5405 43.4732H37.8378V46.1759H40.5405L40.5405 43.4732Z" fill="white"/>
<path d="M43.2432 43.4732H40.5405L40.5405 46.1759H43.2432V43.4732Z" fill="white"/>
<path d="M45.9459 43.4732H43.2432V46.1759H45.9459V43.4732Z" fill="white"/>
<path d="M48.6486 43.4732H45.9459V46.1759H48.6487L48.6486 43.4732Z" fill="white"/>
<path d="M51.3514 43.4732H48.6486L48.6487 46.1759H51.3514V43.4732Z" fill="white"/>
<path d="M56.7568 43.4732H54.0541V46.1759H56.7568V43.4732Z" fill="white"/>
<path d="M59.4595 43.4732H56.7568V46.1759H59.4595V43.4732Z" fill="white"/>
<path d="M62.1622 43.4732H59.4595V46.1759H62.1622V43.4732Z" fill="white"/>
<path d="M64.8649 43.4732H62.1622V46.1759H64.8649V43.4732Z" fill="white"/>
<path d="M70.2703 43.4732L67.5676 43.4732V46.1759H70.2703V43.4732Z" fill="white"/>
<path d="M72.973 43.4732H70.2703V46.1759H72.973V43.4732Z" fill="white"/>
<path d="M75.6757 43.4732H72.973V46.1759H75.6757V43.4732Z" fill="white"/>
<path d="M83.7838 43.4732H81.0811V46.1759H83.7838V43.4732Z" fill="white"/>
<path d="M94.5946 43.4732L91.8919 43.4732V46.1759H94.5946V43.4732Z" fill="white"/>
<path d="M97.2973 43.4732L94.5946 43.4732V46.1759H97.2973V43.4732Z" fill="white"/>
<path d="M10.8108 46.1759H8.10811V48.8786H10.8108V46.1759Z" fill="white"/>
<path d="M13.5135 46.1759H10.8108V48.8786H13.5135V46.1759Z" fill="white"/>
<path d="M21.6216 46.1759H18.9189V48.8786H21.6216V46.1759Z" fill="white"/>
<path d="M27.027 46.1759H24.3243V48.8786H27.027V46.1759Z" fill="white"/>
<path d="M35.1351 46.1759H32.4324V48.8786H35.1351V46.1759Z" fill="white"/>
<path d="M40.5405 46.1759H37.8378V48.8786H40.5405V46.1759Z" fill="white"/>
<path d="M43.2432 46.1759H40.5405V48.8786H43.2432V46.1759Z" fill="white"/>
<path d="M45.9459 46.1759H43.2432V48.8786H45.9459V46.1759Z" fill="white"/>
<path d="M54.0541 46.1759H51.3514V48.8786H54.0541V46.1759Z" fill="white"/>
<path d="M56.7568 46.1759H54.0541V48.8786H56.7568V46.1759Z" fill="white"/>
<path d="M62.1622 46.1759H59.4595V48.8786H62.1622V46.1759Z" fill="white"/>
<path d="M70.2703 46.1759H67.5676V48.8786H70.2703V46.1759Z" fill="white"/>
<path d="M81.0811 46.1759L78.3784 46.1759V48.8786H81.0811V46.1759Z" fill="white"/>
<path d="M83.7838 46.1759H81.0811V48.8786H83.7838V46.1759Z" fill="white"/>
<path d="M94.5946 46.1759H91.8919V48.8786H94.5946V46.1759Z" fill="white"/>
<path d="M100 46.1759L97.2973 46.1759V48.8786H100V46.1759Z" fill="white"/>
<path d="M2.7027 48.8786H0L0 51.5813H2.7027V48.8786Z" fill="white"/>
<path d="M8.10811 48.8786L5.40541 48.8786V51.5813H8.10811V48.8786Z" fill="white"/>
<path d="M10.8108 48.8786H8.10811V51.5813H10.8108V48.8786Z" fill="white"/>
<path d="M18.9189 48.8786L16.2162 48.8786V51.5813H18.9189V48.8786Z" fill="white"/>
<path d="M21.6216 48.8786H18.9189V51.5813H21.6216V48.8786Z" fill="white"/>
<path d="M29.7297 48.8786L27.027 48.8786V51.5813H29.7297V48.8786Z" fill="white"/>
<path d="M32.4324 48.8786L29.7297 48.8786V51.5813H32.4324L32.4324 48.8786Z" fill="white"/>
<path d="M40.5405 48.8786H37.8378V51.5813H40.5405V48.8786Z" fill="white"/>
<path d="M43.2432 48.8786H40.5405V51.5813H43.2432V48.8786Z" fill="white"/>
<path d="M45.9459 48.8786H43.2432V51.5813H45.9459V48.8786Z" fill="white"/>
<path d="M56.7568 48.8786H54.0541V51.5813H56.7568V48.8786Z" fill="white"/>
<path d="M59.4595 48.8786H56.7568V51.5813H59.4595V48.8786Z" fill="white"/>
<path d="M64.8649 48.8786L62.1622 48.8786V51.5813H64.8649V48.8786Z" fill="white"/>
<path d="M67.5676 48.8786L64.8649 48.8786V51.5813H67.5676V48.8786Z" fill="white"/>
<path d="M70.2703 48.8786H67.5676V51.5813H70.2703V48.8786Z" fill="white"/>
<path d="M72.973 48.8786L70.2703 48.8786V51.5813H72.973V48.8786Z" fill="white"/>
<path d="M78.3784 48.8786L75.6757 48.8786V51.5813H78.3784V48.8786Z" fill="white"/>
<path d="M81.0811 48.8786H78.3784V51.5813H81.0811V48.8786Z" fill="white"/>
<path d="M89.1892 48.8786H86.4865V51.5813H89.1892V48.8786Z" fill="white"/>
<path d="M91.8919 48.8786L89.1892 48.8786V51.5813H91.8919V48.8786Z" fill="white"/>
<path d="M94.5946 48.8786H91.8919V51.5813H94.5946V48.8786Z" fill="white"/>
<path d="M5.40541 51.5813H2.7027V54.284H5.40541V51.5813Z" fill="white"/>
<path d="M10.8108 51.5813H8.10811V54.284H10.8108V51.5813Z" fill="white"/>
<path d="M13.5135 51.5813H10.8108V54.284H13.5135V51.5813Z" fill="white"/>
<path d="M16.2162 51.5813H13.5135V54.284H16.2162V51.5813Z" fill="white"/>
<path d="M24.3243 51.5813H21.6216V54.284H24.3243V51.5813Z" fill="white"/>
<path d="M32.4324 51.5813H29.7297V54.284H32.4324V51.5813Z" fill="white"/>
<path d="M37.8378 51.5813H35.1351V54.284H37.8378V51.5813Z" fill="white"/>
<path d="M40.5405 51.5813H37.8378V54.284H40.5405V51.5813Z" fill="white"/>
<path d="M48.6487 51.5813H45.9459L45.9459 54.284H48.6487V51.5813Z" fill="white"/>
<path d="M51.3514 51.5813H48.6487V54.284H51.3514V51.5813Z" fill="white"/>
<path d="M54.0541 51.5813H51.3514V54.284H54.0541V51.5813Z" fill="white"/>
<path d="M59.4595 51.5813H56.7568V54.284H59.4595V51.5813Z" fill="white"/>
<path d="M64.8649 51.5813H62.1622V54.284H64.8649V51.5813Z" fill="white"/>
<path d="M72.973 51.5813H70.2703V54.284H72.973V51.5813Z" fill="white"/>
<path d="M86.4865 51.5813H83.7838V54.284H86.4865V51.5813Z" fill="white"/>
<path d="M94.5946 51.5813H91.8919V54.284H94.5946V51.5813Z" fill="white"/>
<path d="M100 51.5813H97.2973V54.284H100V51.5813Z" fill="white"/>
<path d="M2.7027 54.284H0L0 56.9867H2.7027V54.284Z" fill="white"/>
<path d="M5.40541 54.284H2.7027V56.9867H5.40541V54.284Z" fill="white"/>
<path d="M8.10811 54.284H5.40541V56.9867H8.10811V54.284Z" fill="white"/>
<path d="M10.8108 54.284H8.10811V56.9867H10.8108V54.284Z" fill="white"/>
<path d="M18.9189 54.284H16.2162V56.9867H18.9189V54.284Z" fill="white"/>
<path d="M21.6216 54.284H18.9189V56.9867H21.6216V54.284Z" fill="white"/>
<path d="M24.3243 54.284H21.6216V56.9867H24.3243V54.284Z" fill="white"/>
<path d="M35.1351 54.284H32.4324L32.4324 56.9867H35.1351L35.1351 54.284Z" fill="white"/>
<path d="M45.9459 54.284H43.2432V56.9867H45.9459L45.9459 54.284Z" fill="white"/>
<path d="M48.6487 54.284H45.9459L45.9459 56.9867H48.6487V54.284Z" fill="white"/>
<path d="M56.7568 54.284H54.0541V56.9867H56.7568V54.284Z" fill="white"/>
<path d="M59.4595 54.284H56.7568V56.9867H59.4595V54.284Z" fill="white"/>
<path d="M67.5676 54.284H64.8649V56.9867H67.5676V54.284Z" fill="white"/>
<path d="M70.2703 54.284H67.5676V56.9867H70.2703V54.284Z" fill="white"/>
<path d="M72.973 54.284H70.2703V56.9867H72.973V54.284Z" fill="white"/>
<path d="M78.3784 54.284H75.6757V56.9867H78.3784V54.284Z" fill="white"/>
<path d="M81.0811 54.284H78.3784V56.9867H81.0811V54.284Z" fill="white"/>
<path d="M83.7838 54.284H81.0811V56.9867H83.7838V54.284Z" fill="white"/>
<path d="M91.8919 54.284H89.1892V56.9867H91.8919V54.284Z" fill="white"/>
<path d="M94.5946 54.284H91.8919V56.9867H94.5946V54.284Z" fill="white"/>
<path d="M97.2973 54.284H94.5946V56.9867H97.2973V54.284Z" fill="white"/>
<path d="M2.7027 56.9867H0L0 59.6894H2.7027V56.9867Z" fill="white"/>
<path d="M5.40541 56.9867H2.7027V59.6894H5.40541V56.9867Z" fill="white"/>
<path d="M13.5135 56.9867H10.8108V59.6894H13.5135V56.9867Z" fill="white"/>
<path d="M24.3243 56.9867H21.6216V59.6894H24.3243V56.9867Z" fill="white"/>
<path d="M27.027 56.9867H24.3243V59.6894H27.027V56.9867Z" fill="white"/>
<path d="M37.8378 56.9867H35.1351L35.1351 59.6894H37.8378V56.9867Z" fill="white"/>
<path d="M43.2432 56.9867H40.5405V59.6894H43.2432L43.2432 56.9867Z" fill="white"/>
<path d="M45.9459 56.9867H43.2432L43.2432 59.6894H45.9459V56.9867Z" fill="white"/>
<path d="M48.6487 56.9867H45.9459V59.6894H48.6487V56.9867Z" fill="white"/>
<path d="M56.7568 56.9867H54.0541V59.6894H56.7568V56.9867Z" fill="white"/>
<path d="M59.4595 56.9867H56.7568V59.6894H59.4595V56.9867Z" fill="white"/>
<path d="M62.1622 56.9867H59.4595V59.6894H62.1622V56.9867Z" fill="white"/>
<path d="M72.973 56.9867H70.2703V59.6894H72.973V56.9867Z" fill="white"/>
<path d="M75.6757 56.9867H72.973V59.6894H75.6757V56.9867Z" fill="white"/>
<path d="M78.3784 56.9867H75.6757V59.6894H78.3784V56.9867Z" fill="white"/>
<path d="M83.7838 56.9867H81.0811V59.6894H83.7838V56.9867Z" fill="white"/>
<path d="M91.8919 56.9867H89.1892V59.6894H91.8919V56.9867Z" fill="white"/>
<path d="M10.8108 59.6894H8.10811V62.3921H10.8108V59.6894Z" fill="white"/>
<path d="M13.5135 59.6894H10.8108V62.3921H13.5135V59.6894Z" fill="white"/>
<path d="M18.9189 59.6894H16.2162V62.3921H18.9189V59.6894Z" fill="white"/>
<path d="M24.3243 59.6894H21.6216V62.3921H24.3243V59.6894Z" fill="white"/>
<path d="M27.027 59.6894H24.3243V62.3921H27.027V59.6894Z" fill="white"/>
<path d="M29.7297 59.6894H27.027V62.3921H29.7297V59.6894Z" fill="white"/>
<path d="M32.4324 59.6894H29.7297V62.3921H32.4324V59.6894Z" fill="white"/>
<path d="M35.1351 59.6894H32.4324V62.3921H35.1351L35.1351 59.6894Z" fill="white"/>
<path d="M43.2432 59.6894H40.5405V62.3921H43.2432V59.6894Z" fill="white"/>
<path d="M45.9459 59.6894H43.2432V62.3921H45.9459V59.6894Z" fill="white"/>
<path d="M51.3514 59.6894H48.6487L48.6486 62.3921H51.3514V59.6894Z" fill="white"/>
<path d="M54.0541 59.6894H51.3514V62.3921H54.0541V59.6894Z" fill="white"/>
<path d="M59.4595 59.6894H56.7568V62.3921H59.4595V59.6894Z" fill="white"/>
<path d="M64.8649 59.6894H62.1622V62.3921H64.8649V59.6894Z" fill="white"/>
<path d="M67.5676 59.6894H64.8649V62.3921H67.5676V59.6894Z" fill="white"/>
<path d="M70.2703 59.6894H67.5676V62.3921H70.2703V59.6894Z" fill="white"/>
<path d="M72.973 59.6894H70.2703V62.3921H72.973V59.6894Z" fill="white"/>
<path d="M78.3784 59.6894H75.6757V62.3921H78.3784V59.6894Z" fill="white"/>
<path d="M81.0811 59.6894H78.3784V62.3921H81.0811V59.6894Z" fill="white"/>
<path d="M83.7838 59.6894H81.0811V62.3921H83.7838V59.6894Z" fill="white"/>
<path d="M86.4865 59.6894H83.7838V62.3921H86.4865V59.6894Z" fill="white"/>
<path d="M89.1892 59.6894H86.4865V62.3921H89.1892V59.6894Z" fill="white"/>
<path d="M94.5946 59.6894H91.8919V62.3921H94.5946V59.6894Z" fill="white"/>
<path d="M2.7027 62.3921H0L0 65.0948H2.7027V62.3921Z" fill="white"/>
<path d="M5.40541 62.3921H2.7027V65.0948H5.40541V62.3921Z" fill="white"/>
<path d="M10.8108 62.3921H8.10811V65.0948H10.8108V62.3921Z" fill="white"/>
<path d="M24.3243 62.3921H21.6216V65.0948H24.3243V62.3921Z" fill="white"/>
<path d="M27.027 62.3921H24.3243V65.0948H27.027V62.3921Z" fill="white"/>
<path d="M29.7297 62.3921H27.027V65.0948H29.7297V62.3921Z" fill="white"/>
<path d="M32.4324 62.3921H29.7297V65.0948H32.4324V62.3921Z" fill="white"/>
<path d="M48.6486 62.3921H45.9459L45.9459 65.0948H48.6487L48.6486 62.3921Z" fill="white"/>
<path d="M54.0541 62.3921H51.3514V65.0948H54.0541V62.3921Z" fill="white"/>
<path d="M59.4595 62.3921H56.7568V65.0948H59.4595V62.3921Z" fill="white"/>
<path d="M62.1622 62.3921H59.4595V65.0948H62.1622V62.3921Z" fill="white"/>
<path d="M64.8649 62.3921H62.1622V65.0948H64.8649V62.3921Z" fill="white"/>
<path d="M67.5676 62.3921H64.8649V65.0948H67.5676V62.3921Z" fill="white"/>
<path d="M75.6757 62.3921H72.973V65.0948H75.6757V62.3921Z" fill="white"/>
<path d="M78.3784 62.3921H75.6757V65.0948H78.3784V62.3921Z" fill="white"/>
<path d="M81.0811 62.3921H78.3784V65.0948H81.0811V62.3921Z" fill="white"/>
<path d="M91.8919 62.3921H89.1892V65.0948H91.8919V62.3921Z" fill="white"/>
<path d="M94.5946 62.3921H91.8919V65.0948H94.5946V62.3921Z" fill="white"/>
<path d="M13.5135 65.0948H10.8108V67.7976H13.5135V65.0948Z" fill="white"/>
<path d="M16.2162 65.0948H13.5135V67.7976H16.2162V65.0948Z" fill="white"/>
<path d="M18.9189 65.0948H16.2162V67.7976H18.9189V65.0948Z" fill="white"/>
<path d="M21.6216 65.0948H18.9189V67.7976H21.6216V65.0948Z" fill="white"/>
<path d="M32.4324 65.0948H29.7297V67.7976H32.4324V65.0948Z" fill="white"/>
<path d="M35.1351 65.0948H32.4324V67.7976H35.1351V65.0948Z" fill="white"/>
<path d="M40.5405 65.0948H37.8378V67.7976H40.5405V65.0948Z" fill="white"/>
<path d="M51.3514 65.0948H48.6487L48.6486 67.7976H51.3514V65.0948Z" fill="white"/>
<path d="M54.0541 65.0948H51.3514V67.7976H54.0541V65.0948Z" fill="white"/>
<path d="M62.1622 65.0948H59.4595V67.7976H62.1622V65.0948Z" fill="white"/>
<path d="M64.8649 65.0948H62.1622V67.7976H64.8649V65.0948Z" fill="white"/>
<path d="M70.2703 65.0948H67.5676V67.7976H70.2703V65.0948Z" fill="white"/>
<path d="M75.6757 65.0948H72.973V67.7976H75.6757V65.0948Z" fill="white"/>
<path d="M81.0811 65.0948H78.3784V67.7976H81.0811V65.0948Z" fill="white"/>
<path d="M89.1892 65.0948H86.4865V67.7976H89.1892V65.0948Z" fill="white"/>
<path d="M94.5946 65.0948H91.8919V67.7976H94.5946V65.0948Z" fill="white"/>
<path d="M100 65.0948H97.2973V67.7976H100V65.0948Z" fill="white"/>
<path d="M2.7027 67.7976H0L0 70.5003H2.7027V67.7976Z" fill="white"/>
<path d="M5.40541 67.7976H2.7027V70.5003H5.40541V67.7976Z" fill="white"/>
<path d="M8.10811 67.7976H5.40541V70.5003H8.10811V67.7976Z" fill="white"/>
<path d="M10.8108 67.7976H8.10811V70.5003H10.8108V67.7976Z" fill="white"/>
<path d="M13.5135 67.7976H10.8108V70.5003H13.5135V67.7976Z" fill="white"/>
<path d="M29.7297 67.7976H27.027V70.5003H29.7297V67.7976Z" fill="white"/>
<path d="M32.4324 67.7976H29.7297V70.5003H32.4324V67.7976Z" fill="white"/>
<path d="M35.1351 67.7976H32.4324V70.5003H35.1351V67.7976Z" fill="white"/>
<path d="M37.8378 67.7976H35.1351V70.5003H37.8378V67.7976Z" fill="white"/>
<path d="M45.9459 67.7976H43.2432V70.5003H45.9459V67.7976Z" fill="white"/>
<path d="M62.1622 67.7976H59.4595V70.5003H62.1622V67.7976Z" fill="white"/>
<path d="M64.8649 67.7976H62.1622V70.5003H64.8649V67.7976Z" fill="white"/>
<path d="M67.5676 67.7976H64.8649V70.5003H67.5676V67.7976Z" fill="white"/>
<path d="M72.973 67.7976H70.2703V70.5003H72.973V67.7976Z" fill="white"/>
<path d="M78.3784 67.7976H75.6757V70.5003H78.3784V67.7976Z" fill="white"/>
<path d="M91.8919 67.7976H89.1892V70.5003H91.8919V67.7976Z" fill="white"/>
<path d="M94.5946 67.7976H91.8919V70.5003H94.5946V67.7976Z" fill="white"/>
<path d="M97.2973 67.7976H94.5946V70.5003H97.2973V67.7976Z" fill="white"/>
<path d="M100 67.7976H97.2973V70.5003H100V67.7976Z" fill="white"/>
<path d="M8.10811 70.5003H5.40541V73.203H8.10811V70.5003Z" fill="white"/>
<path d="M10.8108 70.5003H8.10811V73.203H10.8108V70.5003Z" fill="white"/>
<path d="M13.5135 70.5003H10.8108V73.203H13.5135V70.5003Z" fill="white"/>
<path d="M16.2162 70.5003H13.5135V73.203H16.2162V70.5003Z" fill="white"/>
<path d="M18.9189 70.5003H16.2162V73.203H18.9189V70.5003Z" fill="white"/>
<path d="M24.3243 70.5003H21.6216V73.203H24.3243V70.5003Z" fill="white"/>
<path d="M32.4324 70.5003H29.7297V73.203H32.4324V70.5003Z" fill="white"/>
<path d="M35.1351 70.5003H32.4324V73.203H35.1351V70.5003Z" fill="white"/>
<path d="M37.8378 70.5003H35.1351V73.203H37.8378V70.5003Z" fill="white"/>
<path d="M43.2432 70.5003H40.5405V73.203H43.2432L43.2432 70.5003Z" fill="white"/>
<path d="M48.6487 70.5003H45.9459L45.9459 73.203H48.6487V70.5003Z" fill="white"/>
<path d="M51.3514 70.5003H48.6487V73.203H51.3514V70.5003Z" fill="white"/>
<path d="M54.0541 70.5003H51.3514V73.203H54.0541V70.5003Z" fill="white"/>
<path d="M56.7568 70.5003H54.0541V73.203H56.7568V70.5003Z" fill="white"/>
<path d="M62.1622 70.5003H59.4595V73.203H62.1622V70.5003Z" fill="white"/>
<path d="M64.8649 70.5003H62.1622V73.203H64.8649V70.5003Z" fill="white"/>
<path d="M67.5676 70.5003H64.8649V73.203H67.5676V70.5003Z" fill="white"/>
<path d="M70.2703 70.5003H67.5676V73.203H70.2703V70.5003Z" fill="white"/>
<path d="M72.973 70.5003H70.2703V73.203H72.973V70.5003Z" fill="white"/>
<path d="M75.6757 70.5003H72.973V73.203H75.6757V70.5003Z" fill="white"/>
<path d="M78.3784 70.5003H75.6757V73.203H78.3784V70.5003Z" fill="white"/>
<path d="M83.7838 70.5003H81.0811V73.203H83.7838V70.5003Z" fill="white"/>
<path d="M89.1892 70.5003H86.4865V73.203H89.1892V70.5003Z" fill="white"/>
<path d="M100 70.5003H97.2973V73.203H100V70.5003Z" fill="white"/>
<path d="M8.10811 73.203H5.40541V75.9057H8.10811V73.203Z" fill="white"/>
<path d="M13.5135 73.203H10.8108V75.9057H13.5135V73.203Z" fill="white"/>
<path d="M21.6216 73.203H18.9189V75.9057H21.6216V73.203Z" fill="white"/>
<path d="M24.3243 73.203H21.6216V75.9057H24.3243V73.203Z" fill="white"/>
<path d="M32.4324 73.203H29.7297V75.9057H32.4324V73.203Z" fill="white"/>
<path d="M37.8378 73.203H35.1351L35.1351 75.9057H37.8378V73.203Z" fill="white"/>
<path d="M48.6487 73.203H45.9459V75.9057H48.6487V73.203Z" fill="white"/>
<path d="M51.3514 73.203H48.6487V75.9057H51.3514V73.203Z" fill="white"/>
<path d="M54.0541 73.203H51.3514V75.9057H54.0541V73.203Z" fill="white"/>
<path d="M64.8649 73.203H62.1622V75.9057H64.8649V73.203Z" fill="white"/>
<path d="M70.2703 73.203H67.5676V75.9057H70.2703V73.203Z" fill="white"/>
<path d="M75.6757 73.203H72.973V75.9057H75.6757V73.203Z" fill="white"/>
<path d="M97.2973 73.203H94.5946V75.9057H97.2973V73.203Z" fill="white"/>
<path d="M2.7027 75.9057H0L0 78.6084H2.7027V75.9057Z" fill="white"/>
<path d="M13.5135 75.9057H10.8108V78.6084H13.5135V75.9057Z" fill="white"/>
<path d="M18.9189 75.9057H16.2162V78.6084H18.9189V75.9057Z" fill="white"/>
<path d="M21.6216 75.9057H18.9189V78.6084H21.6216V75.9057Z" fill="white"/>
<path d="M24.3243 75.9057H21.6216V78.6084H24.3243V75.9057Z" fill="white"/>
<path d="M29.7297 75.9057H27.027V78.6084H29.7297V75.9057Z" fill="white"/>
<path d="M37.8378 75.9057H35.1351V78.6084H37.8378V75.9057Z" fill="white"/>
<path d="M43.2432 75.9057H40.5405V78.6084H43.2432V75.9057Z" fill="white"/>
<path d="M56.7568 75.9057H54.0541V78.6084H56.7568V75.9057Z" fill="white"/>
<path d="M59.4595 75.9057H56.7568V78.6084H59.4595V75.9057Z" fill="white"/>
<path d="M67.5676 75.9057H64.8649V78.6084H67.5676V75.9057Z" fill="white"/>
<path d="M70.2703 75.9057H67.5676V78.6084H70.2703V75.9057Z" fill="white"/>
<path d="M72.973 75.9057H70.2703V78.6084H72.973V75.9057Z" fill="white"/>
<path d="M78.3784 75.9057H75.6757V78.6084H78.3784V75.9057Z" fill="white"/>
<path d="M81.0811 75.9057H78.3784V78.6084H81.0811V75.9057Z" fill="white"/>
<path d="M83.7838 75.9057H81.0811V78.6084H83.7838V75.9057Z" fill="white"/>
<path d="M86.4865 75.9057H83.7838V78.6084H86.4865V75.9057Z" fill="white"/>
<path d="M89.1892 75.9057H86.4865V78.6084H89.1892V75.9057Z" fill="white"/>
<path d="M94.5946 75.9057H91.8919V78.6084H94.5946V75.9057Z" fill="white"/>
<path d="M29.7297 78.6084H27.027V81.3111H29.7297V78.6084Z" fill="white"/>
<path d="M35.1351 78.6084H32.4324V81.3111H35.1351L35.1351 78.6084Z" fill="white"/>
<path d="M37.8378 78.6084H35.1351L35.1351 81.3111H37.8378V78.6084Z" fill="white"/>
<path d="M43.2432 78.6084H40.5405V81.3111H43.2432V78.6084Z" fill="white"/>
<path d="M51.3514 78.6084H48.6486V81.3111H51.3514V78.6084Z" fill="white"/>
<path d="M54.0541 78.6084H51.3514V81.3111H54.0541V78.6084Z" fill="white"/>
<path d="M56.7568 78.6084H54.0541V81.3111H56.7568V78.6084Z" fill="white"/>
<path d="M62.1622 78.6084H59.4595V81.3111H62.1622V78.6084Z" fill="white"/>
<path d="M64.8649 78.6084H62.1622V81.3111H64.8649V78.6084Z" fill="white"/>
<path d="M67.5676 78.6084H64.8649V81.3111H67.5676V78.6084Z" fill="white"/>
<path d="M70.2703 78.6084H67.5676V81.3111H70.2703V78.6084Z" fill="white"/>
<path d="M75.6757 78.6084H72.973V81.3111H75.6757V78.6084Z" fill="white"/>
<path d="M78.3784 78.6084H75.6757V81.3111H78.3784V78.6084Z" fill="white"/>
<path d="M89.1892 78.6084H86.4865V81.3111H89.1892V78.6084Z" fill="white"/>
<path d="M91.8919 78.6084H89.1892V81.3111H91.8919V78.6084Z" fill="white"/>
<path d="M97.2973 78.6084H94.5946V81.3111H97.2973V78.6084Z" fill="white"/>
<path d="M100 78.6084H97.2973V81.3111H100V78.6084Z" fill="white"/>
<path d="M2.7027 81.3111H0L0 84.0138H2.7027V81.3111Z" fill="white"/>
<path d="M5.40541 81.3111H2.7027V84.0138H5.40541V81.3111Z" fill="white"/>
<path d="M8.10811 81.3111H5.40541V84.0138H8.10811V81.3111Z" fill="white"/>
<path d="M10.8108 81.3111H8.10811V84.0138H10.8108V81.3111Z" fill="white"/>
<path d="M13.5135 81.3111H10.8108V84.0138H13.5135V81.3111Z" fill="white"/>
<path d="M16.2162 81.3111H13.5135V84.0138H16.2162V81.3111Z" fill="white"/>
<path d="M18.9189 81.3111H16.2162V84.0138H18.9189V81.3111Z" fill="white"/>
<path d="M24.3243 81.3111H21.6216V84.0138H24.3243V81.3111Z" fill="white"/>
<path d="M35.1351 81.3111H32.4324V84.0138H35.1351V81.3111Z" fill="white"/>
<path d="M37.8378 81.3111H35.1351V84.0138H37.8378V81.3111Z" fill="white"/>
<path d="M40.5405 81.3111H37.8378V84.0138H40.5405L40.5405 81.3111Z" fill="white"/>
<path d="M48.6486 81.3111H45.9459V84.0138H48.6487L48.6486 81.3111Z" fill="white"/>
<path d="M67.5676 81.3111H64.8649V84.0138H67.5676V81.3111Z" fill="white"/>
<path d="M70.2703 81.3111H67.5676V84.0138H70.2703V81.3111Z" fill="white"/>
<path d="M75.6757 81.3111H72.973V84.0138H75.6757V81.3111Z" fill="white"/>
<path d="M78.3784 81.3111H75.6757V84.0138H78.3784V81.3111Z" fill="white"/>
<path d="M83.7838 81.3111H81.0811V84.0138H83.7838V81.3111Z" fill="white"/>
<path d="M89.1892 81.3111H86.4865V84.0138H89.1892V81.3111Z" fill="white"/>
<path d="M91.8919 81.3111H89.1892V84.0138H91.8919V81.3111Z" fill="white"/>
<path d="M94.5946 81.3111H91.8919V84.0138H94.5946V81.3111Z" fill="white"/>
<path d="M97.2973 81.3111H94.5946V84.0138H97.2973V81.3111Z" fill="white"/>
<path d="M100 81.3111H97.2973V84.0138H100V81.3111Z" fill="white"/>
<path d="M2.7027 84.0138H0L0 86.7165H2.7027V84.0138Z" fill="white"/>
<path d="M18.9189 84.0138H16.2162V86.7165H18.9189V84.0138Z" fill="white"/>
<path d="M27.027 84.0138H24.3243V86.7165H27.027V84.0138Z" fill="white"/>
<path d="M29.7297 84.0138H27.027V86.7165H29.7297V84.0138Z" fill="white"/>
<path d="M35.1351 84.0138H32.4324V86.7165H35.1351V84.0138Z" fill="white"/>
<path d="M37.8378 84.0138H35.1351V86.7165H37.8378V84.0138Z" fill="white"/>
<path d="M43.2432 84.0138H40.5405L40.5405 86.7165H43.2432V84.0138Z" fill="white"/>
<path d="M54.0541 84.0138H51.3514V86.7165H54.0541V84.0138Z" fill="white"/>
<path d="M56.7568 84.0138H54.0541V86.7165H56.7568V84.0138Z" fill="white"/>
<path d="M62.1622 84.0138H59.4595V86.7165H62.1622V84.0138Z" fill="white"/>
<path d="M75.6757 84.0138H72.973V86.7165H75.6757V84.0138Z" fill="white"/>
<path d="M78.3784 84.0138H75.6757V86.7165H78.3784V84.0138Z" fill="white"/>
<path d="M89.1892 84.0138H86.4865V86.7165H89.1892V84.0138Z" fill="white"/>
<path d="M97.2973 84.0138H94.5946V86.7165H97.2973V84.0138Z" fill="white"/>
<path d="M2.7027 86.7165H0L0 89.4192H2.7027V86.7165Z" fill="white"/>
<path d="M8.10811 86.7165H5.40541V89.4192H8.10811V86.7165Z" fill="white"/>
<path d="M10.8108 86.7165H8.10811V89.4192H10.8108V86.7165Z" fill="white"/>
<path d="M13.5135 86.7165H10.8108V89.4192H13.5135V86.7165Z" fill="white"/>
<path d="M18.9189 86.7165H16.2162V89.4192H18.9189V86.7165Z" fill="white"/>
<path d="M32.4324 86.7165H29.7297V89.4192H32.4324L32.4324 86.7165Z" fill="white"/>
<path d="M35.1351 86.7165H32.4324L32.4324 89.4192H35.1351V86.7165Z" fill="white"/>
<path d="M37.8378 86.7165H35.1351V89.4192H37.8378V86.7165Z" fill="white"/>
<path d="M40.5405 86.7165H37.8378V89.4192H40.5405L40.5405 86.7165Z" fill="white"/>
<path d="M43.2432 86.7165H40.5405L40.5405 89.4192H43.2432V86.7165Z" fill="white"/>
<path d="M51.3514 86.7165H48.6486V89.4192H51.3514V86.7165Z" fill="white"/>
<path d="M56.7568 86.7165H54.0541V89.4192H56.7568V86.7165Z" fill="white"/>
<path d="M64.8649 86.7165H62.1622V89.4192H64.8649V86.7165Z" fill="white"/>
<path d="M67.5676 86.7165H64.8649V89.4192H67.5676V86.7165Z" fill="white"/>
<path d="M70.2703 86.7165H67.5676V89.4192H70.2703V86.7165Z" fill="white"/>
<path d="M75.6757 86.7165H72.973V89.4192H75.6757V86.7165Z" fill="white"/>
<path d="M78.3784 86.7165H75.6757V89.4192H78.3784V86.7165Z" fill="white"/>
<path d="M81.0811 86.7165H78.3784V89.4192H81.0811V86.7165Z" fill="white"/>
<path d="M83.7838 86.7165H81.0811V89.4192H83.7838V86.7165Z" fill="white"/>
<path d="M86.4865 86.7165H83.7838V89.4192H86.4865V86.7165Z" fill="white"/>
<path d="M89.1892 86.7165H86.4865V89.4192H89.1892V86.7165Z" fill="white"/>
<path d="M91.8919 86.7165H89.1892V89.4192H91.8919V86.7165Z" fill="white"/>
<path d="M94.5946 86.7165H91.8919V89.4192H94.5946V86.7165Z" fill="white"/>
<path d="M97.2973 86.7165H94.5946V89.4192H97.2973V86.7165Z" fill="white"/>
<path d="M100 86.7165H97.2973V89.4192H100V86.7165Z" fill="white"/>
<path d="M2.7027 89.4192H0L0 92.1219H2.7027V89.4192Z" fill="white"/>
<path d="M8.10811 89.4192H5.40541V92.1219H8.10811V89.4192Z" fill="white"/>
<path d="M10.8108 89.4192H8.10811V92.1219H10.8108V89.4192Z" fill="white"/>
<path d="M13.5135 89.4192H10.8108V92.1219H13.5135V89.4192Z" fill="white"/>
<path d="M18.9189 89.4192H16.2162V92.1219H18.9189V89.4192Z" fill="white"/>
<path d="M24.3243 89.4192H21.6216V92.1219H24.3243V89.4192Z" fill="white"/>
<path d="M37.8378 89.4192H35.1351L35.1351 92.1219H37.8378V89.4192Z" fill="white"/>
<path d="M45.9459 89.4192H43.2432L43.2432 92.1219H45.9459V89.4192Z" fill="white"/>
<path d="M48.6486 89.4192H45.9459V92.1219H48.6487L48.6486 89.4192Z" fill="white"/>
<path d="M54.0541 89.4192H51.3514V92.1219H54.0541V89.4192Z" fill="white"/>
<path d="M59.4595 89.4192H56.7568V92.1219H59.4595V89.4192Z" fill="white"/>
<path d="M64.8649 89.4192H62.1622V92.1219H64.8649V89.4192Z" fill="white"/>
<path d="M72.973 89.4192H70.2703V92.1219H72.973V89.4192Z" fill="white"/>
<path d="M89.1892 89.4192H86.4865V92.1219H89.1892V89.4192Z" fill="white"/>
<path d="M94.5946 89.4192H91.8919V92.1219H94.5946V89.4192Z" fill="white"/>
<path d="M97.2973 89.4192H94.5946V92.1219H97.2973V89.4192Z" fill="white"/>
<path d="M100 89.4192H97.2973V92.1219H100V89.4192Z" fill="white"/>
<path d="M2.7027 92.1219H0L0 94.8246H2.7027V92.1219Z" fill="white"/>
<path d="M8.10811 92.1219H5.40541V94.8246H8.10811V92.1219Z" fill="white"/>
<path d="M10.8108 92.1219H8.10811V94.8246H10.8108V92.1219Z" fill="white"/>
<path d="M13.5135 92.1219H10.8108V94.8246H13.5135V92.1219Z" fill="white"/>
<path d="M18.9189 92.1219H16.2162V94.8246H18.9189V92.1219Z" fill="white"/>
<path d="M32.4324 92.1219H29.7297V94.8246H32.4324V92.1219Z" fill="white"/>
<path d="M35.1351 92.1219H32.4324V94.8246H35.1351L35.1351 92.1219Z" fill="white"/>
<path d="M40.5405 92.1219H37.8378V94.8246H40.5405V92.1219Z" fill="white"/>
<path d="M45.9459 92.1219H43.2432V94.8246H45.9459V92.1219Z" fill="white"/>
<path d="M64.8649 92.1219H62.1622V94.8246H64.8649V92.1219Z" fill="white"/>
<path d="M67.5676 92.1219H64.8649V94.8246H67.5676V92.1219Z" fill="white"/>
<path d="M78.3784 92.1219H75.6757V94.8246H78.3784V92.1219Z" fill="white"/>
<path d="M81.0811 92.1219H78.3784V94.8246H81.0811V92.1219Z" fill="white"/>
<path d="M83.7838 92.1219H81.0811V94.8246H83.7838V92.1219Z" fill="white"/>
<path d="M91.8919 92.1219H89.1892V94.8246H91.8919V92.1219Z" fill="white"/>
<path d="M94.5946 92.1219H91.8919V94.8246H94.5946V92.1219Z" fill="white"/>
<path d="M97.2973 92.1219H94.5946V94.8246H97.2973V92.1219Z" fill="white"/>
<path d="M100 92.1219H97.2973V94.8246H100V92.1219Z" fill="white"/>
<path d="M2.7027 94.8246H0L0 97.5273H2.7027V94.8246Z" fill="white"/>
<path d="M18.9189 94.8246H16.2162V97.5273H18.9189V94.8246Z" fill="white"/>
<path d="M24.3243 94.8246H21.6216V97.5273H24.3243V94.8246Z" fill="white"/>
<path d="M27.027 94.8246H24.3243V97.5273H27.027V94.8246Z" fill="white"/>
<path d="M35.1351 94.8246H32.4324L32.4324 97.5273H35.1351V94.8246Z" fill="white"/>
<path d="M37.8378 94.8246H35.1351V97.5273H37.8378V94.8246Z" fill="white"/>
<path d="M40.5405 94.8246H37.8378V97.5273H40.5405V94.8246Z" fill="white"/>
<path d="M43.2432 94.8246H40.5405V97.5273H43.2432L43.2432 94.8246Z" fill="white"/>
<path d="M45.9459 94.8246H43.2432L43.2432 97.5273H45.9459V94.8246Z" fill="white"/>
<path d="M48.6487 94.8246H45.9459V97.5273H48.6487V94.8246Z" fill="white"/>
<path d="M51.3514 94.8246H48.6487V97.5273H51.3514V94.8246Z" fill="white"/>
<path d="M54.0541 94.8246H51.3514V97.5273H54.0541V94.8246Z" fill="white"/>
<path d="M64.8649 94.8246H62.1622V97.5273H64.8649V94.8246Z" fill="white"/>
<path d="M67.5676 94.8246H64.8649V97.5273H67.5676V94.8246Z" fill="white"/>
<path d="M70.2703 94.8246H67.5676V97.5273H70.2703V94.8246Z" fill="white"/>
<path d="M72.973 94.8246H70.2703V97.5273H72.973V94.8246Z" fill="white"/>
<path d="M75.6757 94.8246H72.973V97.5273H75.6757V94.8246Z" fill="white"/>
<path d="M81.0811 94.8246H78.3784V97.5273H81.0811V94.8246Z" fill="white"/>
<path d="M100 94.8246H97.2973V97.5273H100V94.8246Z" fill="white"/>
<path d="M2.7027 97.5273H0L0 100.23H2.7027V97.5273Z" fill="white"/>
<path d="M5.40541 97.5273H2.7027V100.23H5.40541V97.5273Z" fill="white"/>
<path d="M8.10811 97.5273H5.40541V100.23H8.10811V97.5273Z" fill="white"/>
<path d="M10.8108 97.5273H8.10811V100.23H10.8108V97.5273Z" fill="white"/>
<path d="M13.5135 97.5273H10.8108V100.23H13.5135V97.5273Z" fill="white"/>
<path d="M16.2162 97.5273H13.5135V100.23H16.2162V97.5273Z" fill="white"/>
<path d="M18.9189 97.5273H16.2162V100.23H18.9189V97.5273Z" fill="white"/>
<path d="M24.3243 97.5273H21.6216V100.23H24.3243V97.5273Z" fill="white"/>
<path d="M35.1351 97.5273H32.4324V100.23H35.1351V97.5273Z" fill="white"/>
<path d="M37.8378 97.5273H35.1351V100.23H37.8378V97.5273Z" fill="white"/>
<path d="M43.2432 97.5273H40.5405L40.5405 100.23H43.2432V97.5273Z" fill="white"/>
<path d="M45.9459 97.5273H43.2432V100.23H45.9459V97.5273Z" fill="white"/>
<path d="M48.6487 97.5273H45.9459V100.23H48.6487V97.5273Z" fill="white"/>
<path d="M51.3514 97.5273H48.6487V100.23H51.3514V97.5273Z" fill="white"/>
<path d="M56.7568 97.5273H54.0541V100.23H56.7568V97.5273Z" fill="white"/>
<path d="M64.8649 97.5273H62.1622V100.23H64.8649V97.5273Z" fill="white"/>
<path d="M70.2703 97.5273H67.5676V100.23H70.2703V97.5273Z" fill="white"/>
<path d="M81.0811 97.5273H78.3784V100.23H81.0811V97.5273Z" fill="white"/>
<path d="M83.7838 97.5273H81.0811V100.23H83.7838V97.5273Z" fill="white"/>
<path d="M86.4865 97.5273H83.7838V100.23H86.4865V97.5273Z" fill="white"/>
<path d="M91.8919 97.5273H89.1892V100.23H91.8919V97.5273Z" fill="white"/>
<path d="M100 97.5273H97.2973V100.23H100V97.5273Z" fill="white"/>
</svg>
