<svg width="100" height="100" viewBox="0 0 100 100" fill="none" xmlns="http://www.w3.org/2000/svg">
<path d="M3.44828 0.689453H0L0 4.10325H3.44828V0.689453Z" fill="white"/>
<path d="M6.89655 0.689453H3.44828V4.10325H6.89655V0.689453Z" fill="white"/>
<path d="M10.3448 0.689453H6.89655V4.10325H10.3448V0.689453Z" fill="white"/>
<path d="M13.7931 0.689453H10.3448V4.10325H13.7931V0.689453Z" fill="white"/>
<path d="M17.2414 0.689453H13.7931V4.10325H17.2414V0.689453Z" fill="white"/>
<path d="M20.6897 0.689453H17.2414V4.10325H20.6897V0.689453Z" fill="white"/>
<path d="M24.1379 0.689453H20.6897V4.10325H24.1379V0.689453Z" fill="white"/>
<path d="M31.0345 0.689453H27.5862V4.10325H31.0345V0.689453Z" fill="white"/>
<path d="M34.4828 0.689453H31.0345V4.10325H34.4828V0.689453Z" fill="white"/>
<path d="M37.931 0.689453H34.4828V4.10325H37.931V0.689453Z" fill="white"/>
<path d="M41.3793 0.689453H37.931V4.10325H41.3793V0.689453Z" fill="white"/>
<path d="M48.2759 0.689453H44.8276V4.10325H48.2759V0.689453Z" fill="white"/>
<path d="M51.7241 0.689453H48.2759V4.10325H51.7241V0.689453Z" fill="white"/>
<path d="M62.069 0.689453H58.6207V4.10325H62.069V0.689453Z" fill="white"/>
<path d="M65.5172 0.689453H62.069V4.10325H65.5172V0.689453Z" fill="white"/>
<path d="M68.9655 0.689453H65.5172V4.10325H68.9655V0.689453Z" fill="white"/>
<path d="M72.4138 0.689453H68.9655V4.10325H72.4138V0.689453Z" fill="white"/>
<path d="M79.3103 0.689453H75.8621V4.10325H79.3103V0.689453Z" fill="white"/>
<path d="M82.7586 0.689453H79.3103V4.10325H82.7586V0.689453Z" fill="white"/>
<path d="M86.2069 0.689453H82.7586V4.10325H86.2069V0.689453Z" fill="white"/>
<path d="M89.6552 0.689453H86.2069V4.10325H89.6552V0.689453Z" fill="white"/>
<path d="M93.1034 0.689453H89.6552V4.10325H93.1034V0.689453Z" fill="white"/>
<path d="M96.5517 0.689453H93.1034V4.10325H96.5517V0.689453Z" fill="white"/>
<path d="M100 0.689453H96.5517V4.10325H100V0.689453Z" fill="white"/>
<path d="M3.44828 4.10325H0L0 7.51704H3.44828V4.10325Z" fill="white"/>
<path d="M24.1379 4.10325H20.6897V7.51704H24.1379V4.10325Z" fill="white"/>
<path d="M37.931 4.10325H34.4828V7.51704H37.931V4.10325Z" fill="white"/>
<path d="M51.7241 4.10325H48.2759V7.51704H51.7241V4.10325Z" fill="white"/>
<path d="M55.1724 4.10325H51.7241V7.51704H55.1724V4.10325Z" fill="white"/>
<path d="M62.069 4.10325H58.6207V7.51704H62.069V4.10325Z" fill="white"/>
<path d="M65.5172 4.10325H62.069V7.51704H65.5172V4.10325Z" fill="white"/>
<path d="M68.9655 4.10325H65.5172V7.51704H68.9655V4.10325Z" fill="white"/>
<path d="M72.4138 4.10325H68.9655V7.51704H72.4138V4.10325Z" fill="white"/>
<path d="M79.3103 4.10325H75.8621V7.51704H79.3103V4.10325Z" fill="white"/>
<path d="M100 4.10325H96.5517V7.51704H100V4.10325Z" fill="white"/>
<path d="M3.44828 7.51704H0L0 10.9308H3.44828V7.51704Z" fill="white"/>
<path d="M10.3448 7.51704H6.89655V10.9308H10.3448V7.51704Z" fill="white"/>
<path d="M13.7931 7.51704H10.3448V10.9308H13.7931V7.51704Z" fill="white"/>
<path d="M17.2414 7.51704H13.7931V10.9308H17.2414V7.51704Z" fill="white"/>
<path d="M24.1379 7.51704H20.6897V10.9308H24.1379V7.51704Z" fill="white"/>
<path d="M34.4828 7.51704H31.0345V10.9308H34.4828V7.51704Z" fill="white"/>
<path d="M37.931 7.51704H34.4828V10.9308H37.931V7.51704Z" fill="white"/>
<path d="M41.3793 7.51704H37.931V10.9308H41.3793V7.51704Z" fill="white"/>
<path d="M48.2759 7.51704H44.8276V10.9308H48.2759V7.51704Z" fill="white"/>
<path d="M55.1724 7.51704H51.7241V10.9308H55.1724V7.51704Z" fill="white"/>
<path d="M62.069 7.51704H58.6207V10.9308H62.069V7.51704Z" fill="white"/>
<path d="M79.3103 7.51704H75.8621V10.9308H79.3103V7.51704Z" fill="white"/>
<path d="M86.2069 7.51704H82.7586V10.9308H86.2069V7.51704Z" fill="white"/>
<path d="M89.6552 7.51704H86.2069V10.9308H89.6552V7.51704Z" fill="white"/>
<path d="M93.1034 7.51704H89.6552V10.9308H93.1034V7.51704Z" fill="white"/>
<path d="M100 7.51704H96.5517V10.9308H100V7.51704Z" fill="white"/>
<path d="M3.44828 10.9308H0L0 14.3446H3.44828V10.9308Z" fill="white"/>
<path d="M10.3448 10.9308H6.89655V14.3446H10.3448V10.9308Z" fill="white"/>
<path d="M13.7931 10.9308H10.3448V14.3446H13.7931V10.9308Z" fill="white"/>
<path d="M17.2414 10.9308H13.7931V14.3446H17.2414V10.9308Z" fill="white"/>
<path d="M24.1379 10.9308H20.6897V14.3446H24.1379V10.9308Z" fill="white"/>
<path d="M31.0345 10.9308H27.5862V14.3446H31.0345V10.9308Z" fill="white"/>
<path d="M51.7241 10.9308H48.2759V14.3446H51.7241V10.9308Z" fill="white"/>
<path d="M55.1724 10.9308H51.7241V14.3446H55.1724V10.9308Z" fill="white"/>
<path d="M58.6207 10.9308H55.1724V14.3446H58.6207V10.9308Z" fill="white"/>
<path d="M62.069 10.9308H58.6207V14.3446H62.069V10.9308Z" fill="white"/>
<path d="M65.5172 10.9308H62.069V14.3446H65.5172V10.9308Z" fill="white"/>
<path d="M72.4138 10.9308H68.9655V14.3446H72.4138V10.9308Z" fill="white"/>
<path d="M79.3103 10.9308H75.8621V14.3446H79.3103V10.9308Z" fill="white"/>
<path d="M86.2069 10.9308H82.7586V14.3446H86.2069V10.9308Z" fill="white"/>
<path d="M89.6552 10.9308H86.2069V14.3446H89.6552V10.9308Z" fill="white"/>
<path d="M93.1034 10.9308H89.6552V14.3446H93.1034V10.9308Z" fill="white"/>
<path d="M100 10.9308H96.5517V14.3446H100V10.9308Z" fill="white"/>
<path d="M3.44828 14.3446H0L0 17.7584H3.44828V14.3446Z" fill="white"/>
<path d="M10.3448 14.3446H6.89655V17.7584H10.3448V14.3446Z" fill="white"/>
<path d="M13.7931 14.3446H10.3448V17.7584H13.7931V14.3446Z" fill="white"/>
<path d="M17.2414 14.3446H13.7931V17.7584H17.2414V14.3446Z" fill="white"/>
<path d="M24.1379 14.3446H20.6897V17.7584H24.1379V14.3446Z" fill="white"/>
<path d="M31.0345 14.3446H27.5862V17.7584H31.0345V14.3446Z" fill="white"/>
<path d="M37.931 14.3446H34.4828V17.7584H37.931V14.3446Z" fill="white"/>
<path d="M41.3793 14.3446H37.931V17.7584H41.3793V14.3446Z" fill="white"/>
<path d="M58.6207 14.3446H55.1724V17.7584H58.6207V14.3446Z" fill="white"/>
<path d="M62.069 14.3446H58.6207V17.7584H62.069V14.3446Z" fill="white"/>
<path d="M65.5172 14.3446H62.069V17.7584H65.5172V14.3446Z" fill="white"/>
<path d="M68.9655 14.3446H65.5172V17.7584H68.9655V14.3446Z" fill="white"/>
<path d="M72.4138 14.3446H68.9655V17.7584H72.4138V14.3446Z" fill="white"/>
<path d="M79.3103 14.3446H75.8621V17.7584H79.3103V14.3446Z" fill="white"/>
<path d="M86.2069 14.3446H82.7586V17.7584H86.2069V14.3446Z" fill="white"/>
<path d="M89.6552 14.3446H86.2069V17.7584H89.6552V14.3446Z" fill="white"/>
<path d="M93.1034 14.3446H89.6552V17.7584H93.1034V14.3446Z" fill="white"/>
<path d="M100 14.3446H96.5517V17.7584H100V14.3446Z" fill="white"/>
<path d="M3.44828 17.7584H0L0 21.1722H3.44828V17.7584Z" fill="white"/>
<path d="M24.1379 17.7584H20.6897V21.1722H24.1379V17.7584Z" fill="white"/>
<path d="M31.0345 17.7584H27.5862V21.1722H31.0345V17.7584Z" fill="white"/>
<path d="M34.4828 17.7584H31.0345V21.1722H34.4828V17.7584Z" fill="white"/>
<path d="M44.8276 17.7584H41.3793V21.1722H44.8276V17.7584Z" fill="white"/>
<path d="M51.7241 17.7584H48.2759V21.1722H51.7241V17.7584Z" fill="white"/>
<path d="M58.6207 17.7584H55.1724V21.1722H58.6207V17.7584Z" fill="white"/>
<path d="M68.9655 17.7584H65.5172V21.1722H68.9655V17.7584Z" fill="white"/>
<path d="M79.3103 17.7584H75.8621V21.1722H79.3103V17.7584Z" fill="white"/>
<path d="M100 17.7584H96.5517V21.1722H100V17.7584Z" fill="white"/>
<path d="M3.44828 21.1722H0L0 24.586H3.44828V21.1722Z" fill="white"/>
<path d="M6.89655 21.1722H3.44828V24.586H6.89655V21.1722Z" fill="white"/>
<path d="M10.3448 21.1722H6.89655V24.586H10.3448V21.1722Z" fill="white"/>
<path d="M13.7931 21.1722H10.3448V24.586H13.7931V21.1722Z" fill="white"/>
<path d="M17.2414 21.1722H13.7931V24.586H17.2414V21.1722Z" fill="white"/>
<path d="M20.6897 21.1722H17.2414V24.586H20.6897V21.1722Z" fill="white"/>
<path d="M24.1379 21.1722H20.6897V24.586H24.1379V21.1722Z" fill="white"/>
<path d="M31.0345 21.1722H27.5862V24.586H31.0345V21.1722Z" fill="white"/>
<path d="M37.931 21.1722H34.4828V24.586H37.931V21.1722Z" fill="white"/>
<path d="M44.8276 21.1722H41.3793V24.586H44.8276V21.1722Z" fill="white"/>
<path d="M51.7241 21.1722H48.2759V24.586H51.7241V21.1722Z" fill="white"/>
<path d="M58.6207 21.1722H55.1724V24.586H58.6207V21.1722Z" fill="white"/>
<path d="M65.5172 21.1722H62.069V24.586H65.5172V21.1722Z" fill="white"/>
<path d="M72.4138 21.1722H68.9655V24.586H72.4138V21.1722Z" fill="white"/>
<path d="M79.3103 21.1722H75.8621V24.586H79.3103V21.1722Z" fill="white"/>
<path d="M82.7586 21.1722H79.3103V24.586H82.7586V21.1722Z" fill="white"/>
<path d="M86.2069 21.1722H82.7586V24.586H86.2069V21.1722Z" fill="white"/>
<path d="M89.6552 21.1722H86.2069V24.586H89.6552V21.1722Z" fill="white"/>
<path d="M93.1034 21.1722H89.6552V24.586H93.1034V21.1722Z" fill="white"/>
<path d="M96.5517 21.1722H93.1034V24.586H96.5517V21.1722Z" fill="white"/>
<path d="M100 21.1722H96.5517V24.586H100V21.1722Z" fill="white"/>
<path d="M31.0345 24.586H27.5862V27.9998H31.0345V24.586Z" fill="white"/>
<path d="M34.4828 24.586H31.0345V27.9998H34.4828V24.586Z" fill="white"/>
<path d="M37.931 24.586H34.4828V27.9998H37.931V24.586Z" fill="white"/>
<path d="M62.069 24.586H58.6207V27.9998H62.069V24.586Z" fill="white"/>
<path d="M72.4138 24.586H68.9655V27.9998H72.4138V24.586Z" fill="white"/>
<path d="M3.44828 27.9998H0L0 31.4136H3.44828V27.9998Z" fill="white"/>
<path d="M6.89655 27.9998H3.44828V31.4136H6.89655V27.9998Z" fill="white"/>
<path d="M10.3448 27.9998H6.89655V31.4136H10.3448V27.9998Z" fill="white"/>
<path d="M17.2414 27.9998H13.7931V31.4136H17.2414V27.9998Z" fill="white"/>
<path d="M24.1379 27.9998H20.6897V31.4136H24.1379V27.9998Z" fill="white"/>
<path d="M31.0345 27.9998H27.5862V31.4136H31.0345V27.9998Z" fill="white"/>
<path d="M34.4828 27.9998H31.0345V31.4136H34.4828V27.9998Z" fill="white"/>
<path d="M41.3793 27.9998H37.931V31.4136H41.3793V27.9998Z" fill="white"/>
<path d="M44.8276 27.9998H41.3793V31.4136H44.8276V27.9998Z" fill="white"/>
<path d="M51.7241 27.9998H48.2759V31.4136H51.7241V27.9998Z" fill="white"/>
<path d="M55.1724 27.9998H51.7241V31.4136H55.1724V27.9998Z" fill="white"/>
<path d="M58.6207 27.9998H55.1724V31.4136H58.6207V27.9998Z" fill="white"/>
<path d="M65.5172 27.9998H62.069V31.4136H65.5172V27.9998Z" fill="white"/>
<path d="M68.9655 27.9998H65.5172V31.4136H68.9655V27.9998Z" fill="white"/>
<path d="M72.4138 27.9998H68.9655V31.4136H72.4138V27.9998Z" fill="white"/>
<path d="M75.8621 27.9998H72.4138V31.4136H75.8621V27.9998Z" fill="white"/>
<path d="M79.3103 27.9998H75.8621V31.4136H79.3103V27.9998Z" fill="white"/>
<path d="M82.7586 27.9998H79.3103V31.4136H82.7586V27.9998Z" fill="white"/>
<path d="M86.2069 27.9998H82.7586V31.4136H86.2069V27.9998Z" fill="white"/>
<path d="M89.6552 27.9998H86.2069V31.4136H89.6552V27.9998Z" fill="white"/>
<path d="M100 27.9998H96.5517V31.4136H100V27.9998Z" fill="white"/>
<path d="M3.44828 31.4136H0L0 34.8274H3.44828V31.4136Z" fill="white"/>
<path d="M17.2414 31.4136H13.7931V34.8274H17.2414V31.4136Z" fill="white"/>
<path d="M20.6897 31.4136H17.2414V34.8274H20.6897V31.4136Z" fill="white"/>
<path d="M31.0345 31.4136H27.5862V34.8274H31.0345V31.4136Z" fill="white"/>
<path d="M34.4828 31.4136H31.0345V34.8274H34.4828V31.4136Z" fill="white"/>
<path d="M41.3793 31.4136H37.931V34.8274H41.3793V31.4136Z" fill="white"/>
<path d="M44.8276 31.4136H41.3793V34.8274H44.8276V31.4136Z" fill="white"/>
<path d="M48.2759 31.4136H44.8276V34.8274H48.2759V31.4136Z" fill="white"/>
<path d="M51.7241 31.4136H48.2759V34.8274H51.7241V31.4136Z" fill="white"/>
<path d="M55.1724 31.4136H51.7241V34.8274H55.1724V31.4136Z" fill="white"/>
<path d="M62.069 31.4136H58.6207V34.8274H62.069V31.4136Z" fill="white"/>
<path d="M79.3103 31.4136H75.8621V34.8274H79.3103V31.4136Z" fill="white"/>
<path d="M93.1034 31.4136H89.6552V34.8274H93.1034V31.4136Z" fill="white"/>
<path d="M96.5517 31.4136H93.1034V34.8274H96.5517V31.4136Z" fill="white"/>
<path d="M100 31.4136H96.5517V34.8274H100V31.4136Z" fill="white"/>
<path d="M10.3448 34.8274H6.89655V38.2412H10.3448V34.8274Z" fill="white"/>
<path d="M17.2414 34.8274H13.7931V38.2412H17.2414V34.8274Z" fill="white"/>
<path d="M20.6897 34.8274H17.2414V38.2412H20.6897V34.8274Z" fill="white"/>
<path d="M24.1379 34.8274H20.6897V38.2412H24.1379V34.8274Z" fill="white"/>
<path d="M27.5862 34.8274H24.1379V38.2412H27.5862V34.8274Z" fill="white"/>
<path d="M34.4828 34.8274H31.0345V38.2412H34.4828V34.8274Z" fill="white"/>
<path d="M41.3793 34.8274H37.931V38.2412H41.3793V34.8274Z" fill="white"/>
<path d="M44.8276 34.8274H41.3793V38.2412H44.8276V34.8274Z" fill="white"/>
<path d="M48.2759 34.8274H44.8276V38.2412H48.2759V34.8274Z" fill="white"/>
<path d="M51.7241 34.8274H48.2759V38.2412H51.7241V34.8274Z" fill="white"/>
<path d="M62.069 34.8274H58.6207V38.2412H62.069V34.8274Z" fill="white"/>
<path d="M65.5172 34.8274H62.069V38.2412H65.5172V34.8274Z" fill="white"/>
<path d="M68.9655 34.8274H65.5172V38.2412H68.9655V34.8274Z" fill="white"/>
<path d="M75.8621 34.8274H72.4138V38.2412H75.8621V34.8274Z" fill="white"/>
<path d="M82.7586 34.8274H79.3103V38.2412H82.7586V34.8274Z" fill="white"/>
<path d="M89.6552 34.8274H86.2069V38.2412H89.6552V34.8274Z" fill="white"/>
<path d="M93.1034 34.8274H89.6552V38.2412H93.1034V34.8274Z" fill="white"/>
<path d="M96.5517 34.8274H93.1034V38.2412H96.5517V34.8274Z" fill="white"/>
<path d="M6.89655 38.2412H3.44828V41.655H6.89655V38.2412Z" fill="white"/>
<path d="M10.3448 38.2412H6.89655V41.655H10.3448V38.2412Z" fill="white"/>
<path d="M17.2414 38.2412H13.7931V41.655H17.2414V38.2412Z" fill="white"/>
<path d="M20.6897 38.2412H17.2414V41.655H20.6897V38.2412Z" fill="white"/>
<path d="M37.931 38.2412H34.4828V41.655H37.931V38.2412Z" fill="white"/>
<path d="M44.8276 38.2412H41.3793V41.655H44.8276V38.2412Z" fill="white"/>
<path d="M48.2759 38.2412H44.8276V41.655H48.2759V38.2412Z" fill="white"/>
<path d="M58.6207 38.2412H55.1724V41.655H58.6207V38.2412Z" fill="white"/>
<path d="M68.9655 38.2412H65.5172V41.655H68.9655V38.2412Z" fill="white"/>
<path d="M79.3103 38.2412H75.8621V41.655H79.3103V38.2412Z" fill="white"/>
<path d="M82.7586 38.2412H79.3103V41.655H82.7586V38.2412Z" fill="white"/>
<path d="M86.2069 38.2412H82.7586V41.655H86.2069V38.2412Z" fill="white"/>
<path d="M89.6552 38.2412H86.2069V41.655H89.6552V38.2412Z" fill="white"/>
<path d="M93.1034 38.2412H89.6552V41.655H93.1034V38.2412Z" fill="white"/>
<path d="M100 38.2412H96.5517V41.655H100V38.2412Z" fill="white"/>
<path d="M3.44828 41.655H0L0 45.0688H3.44828V41.655Z" fill="white"/>
<path d="M6.89655 41.655H3.44828V45.0688H6.89655V41.655Z" fill="white"/>
<path d="M20.6897 41.655H17.2414V45.0688H20.6897V41.655Z" fill="white"/>
<path d="M24.1379 41.655H20.6897V45.0688H24.1379V41.655Z" fill="white"/>
<path d="M34.4828 41.655H31.0345V45.0688H34.4828V41.655Z" fill="white"/>
<path d="M37.931 41.655H34.4828V45.0688H37.931V41.655Z" fill="white"/>
<path d="M41.3793 41.655H37.931V45.0688H41.3793V41.655Z" fill="white"/>
<path d="M48.2759 41.655H44.8276V45.0688H48.2759V41.655Z" fill="white"/>
<path d="M79.3103 41.655H75.8621V45.0688H79.3103V41.655Z" fill="white"/>
<path d="M82.7586 41.655H79.3103V45.0688H82.7586V41.655Z" fill="white"/>
<path d="M86.2069 41.655H82.7586V45.0688H86.2069V41.655Z" fill="white"/>
<path d="M93.1034 41.655H89.6552V45.0688H93.1034V41.655Z" fill="white"/>
<path d="M96.5517 41.655H93.1034V45.0688H96.5517V41.655Z" fill="white"/>
<path d="M3.44828 45.0688H0L0 48.4826H3.44828V45.0688Z" fill="white"/>
<path d="M6.89655 45.0688H3.44828V48.4826H6.89655V45.0688Z" fill="white"/>
<path d="M10.3448 45.0688H6.89655V48.4826H10.3448V45.0688Z" fill="white"/>
<path d="M27.5862 45.0688H24.1379V48.4826H27.5862V45.0688Z" fill="white"/>
<path d="M31.0345 45.0688H27.5862V48.4826H31.0345V45.0688Z" fill="white"/>
<path d="M44.8276 45.0688H41.3793V48.4826H44.8276V45.0688Z" fill="white"/>
<path d="M55.1724 45.0688H51.7241V48.4826H55.1724V45.0688Z" fill="white"/>
<path d="M65.5172 45.0688H62.069V48.4826H65.5172V45.0688Z" fill="white"/>
<path d="M68.9655 45.0688H65.5172V48.4826H68.9655V45.0688Z" fill="white"/>
<path d="M72.4138 45.0688H68.9655V48.4826H72.4138V45.0688Z" fill="white"/>
<path d="M75.8621 45.0688H72.4138V48.4826H75.8621V45.0688Z" fill="white"/>
<path d="M79.3103 45.0688H75.8621V48.4826H79.3103V45.0688Z" fill="white"/>
<path d="M82.7586 45.0688H79.3103V48.4826H82.7586V45.0688Z" fill="white"/>
<path d="M86.2069 45.0688H82.7586V48.4826H86.2069V45.0688Z" fill="white"/>
<path d="M93.1034 45.0688H89.6552V48.4826H93.1034V45.0688Z" fill="white"/>
<path d="M100 45.0688H96.5517V48.4826H100V45.0688Z" fill="white"/>
<path d="M10.3448 48.4826H6.89655V51.8963H10.3448V48.4826Z" fill="white"/>
<path d="M20.6897 48.4826H17.2414V51.8963H20.6897V48.4826Z" fill="white"/>
<path d="M24.1379 48.4826H20.6897V51.8963H24.1379V48.4826Z" fill="white"/>
<path d="M27.5862 48.4826H24.1379V51.8963H27.5862V48.4826Z" fill="white"/>
<path d="M31.0345 48.4826H27.5862V51.8963H31.0345V48.4826Z" fill="white"/>
<path d="M37.931 48.4826H34.4828V51.8963H37.931V48.4826Z" fill="white"/>
<path d="M41.3793 48.4826H37.931V51.8963H41.3793V48.4826Z" fill="white"/>
<path d="M44.8276 48.4826H41.3793V51.8963H44.8276V48.4826Z" fill="white"/>
<path d="M48.2759 48.4826H44.8276V51.8963H48.2759V48.4826Z" fill="white"/>
<path d="M51.7241 48.4826H48.2759V51.8963H51.7241V48.4826Z" fill="white"/>
<path d="M55.1724 48.4826H51.7241V51.8963H55.1724V48.4826Z" fill="white"/>
<path d="M65.5172 48.4826H62.069V51.8963H65.5172V48.4826Z" fill="white"/>
<path d="M89.6552 48.4826H86.2069V51.8963H89.6552V48.4826Z" fill="white"/>
<path d="M13.7931 51.8963H10.3448V55.3101H13.7931V51.8963Z" fill="white"/>
<path d="M34.4828 51.8963H31.0345V55.3101H34.4828V51.8963Z" fill="white"/>
<path d="M37.931 51.8963H34.4828V55.3101H37.931V51.8963Z" fill="white"/>
<path d="M44.8276 51.8963H41.3793V55.3101H44.8276V51.8963Z" fill="white"/>
<path d="M48.2759 51.8963H44.8276V55.3101H48.2759V51.8963Z" fill="white"/>
<path d="M51.7241 51.8963H48.2759V55.3101H51.7241V51.8963Z" fill="white"/>
<path d="M55.1724 51.8963H51.7241V55.3101H55.1724V51.8963Z" fill="white"/>
<path d="M62.069 51.8963H58.6207V55.3101H62.069V51.8963Z" fill="white"/>
<path d="M65.5172 51.8963H62.069V55.3101H65.5172V51.8963Z" fill="white"/>
<path d="M72.4138 51.8963H68.9655V55.3101H72.4138V51.8963Z" fill="white"/>
<path d="M79.3103 51.8963H75.8621V55.3101H79.3103V51.8963Z" fill="white"/>
<path d="M93.1034 51.8963H89.6552V55.3101H93.1034V51.8963Z" fill="white"/>
<path d="M100 51.8963H96.5517V55.3101H100V51.8963Z" fill="white"/>
<path d="M6.89655 55.3101H3.44828V58.7239H6.89655V55.3101Z" fill="white"/>
<path d="M10.3448 55.3101H6.89655V58.7239H10.3448V55.3101Z" fill="white"/>
<path d="M13.7931 55.3101H10.3448V58.7239H13.7931V55.3101Z" fill="white"/>
<path d="M17.2414 55.3101H13.7931V58.7239H17.2414V55.3101Z" fill="white"/>
<path d="M24.1379 55.3101H20.6897V58.7239H24.1379V55.3101Z" fill="white"/>
<path d="M44.8276 55.3101H41.3793V58.7239H44.8276V55.3101Z" fill="white"/>
<path d="M48.2759 55.3101H44.8276V58.7239H48.2759V55.3101Z" fill="white"/>
<path d="M65.5172 55.3101H62.069V58.7239H65.5172V55.3101Z" fill="white"/>
<path d="M68.9655 55.3101H65.5172V58.7239H68.9655V55.3101Z" fill="white"/>
<path d="M79.3103 55.3101H75.8621V58.7239H79.3103V55.3101Z" fill="white"/>
<path d="M82.7586 55.3101H79.3103V58.7239H82.7586V55.3101Z" fill="white"/>
<path d="M86.2069 55.3101H82.7586V58.7239H86.2069V55.3101Z" fill="white"/>
<path d="M89.6552 55.3101H86.2069V58.7239H89.6552V55.3101Z" fill="white"/>
<path d="M100 55.3101H96.5517V58.7239H100V55.3101Z" fill="white"/>
<path d="M6.89655 58.7239H3.44828V62.1377H6.89655V58.7239Z" fill="white"/>
<path d="M13.7931 58.7239H10.3448V62.1377H13.7931V58.7239Z" fill="white"/>
<path d="M17.2414 58.7239H13.7931V62.1377H17.2414V58.7239Z" fill="white"/>
<path d="M20.6897 58.7239H17.2414V62.1377H20.6897V58.7239Z" fill="white"/>
<path d="M31.0345 58.7239H27.5862V62.1377H31.0345V58.7239Z" fill="white"/>
<path d="M34.4828 58.7239H31.0345V62.1377H34.4828V58.7239Z" fill="white"/>
<path d="M41.3793 58.7239H37.931V62.1377H41.3793V58.7239Z" fill="white"/>
<path d="M51.7241 58.7239H48.2759V62.1377H51.7241V58.7239Z" fill="white"/>
<path d="M62.069 58.7239H58.6207V62.1377H62.069V58.7239Z" fill="white"/>
<path d="M72.4138 58.7239H68.9655V62.1377H72.4138V58.7239Z" fill="white"/>
<path d="M75.8621 58.7239H72.4138V62.1377H75.8621V58.7239Z" fill="white"/>
<path d="M79.3103 58.7239H75.8621V62.1377H79.3103V58.7239Z" fill="white"/>
<path d="M82.7586 58.7239H79.3103V62.1377H82.7586V58.7239Z" fill="white"/>
<path d="M3.44828 62.1377H0L0 65.5515H3.44828V62.1377Z" fill="white"/>
<path d="M17.2414 62.1377H13.7931V65.5515H17.2414V62.1377Z" fill="white"/>
<path d="M24.1379 62.1377H20.6897V65.5515H24.1379V62.1377Z" fill="white"/>
<path d="M27.5862 62.1377H24.1379V65.5515H27.5862V62.1377Z" fill="white"/>
<path d="M31.0345 62.1377H27.5862V65.5515H31.0345V62.1377Z" fill="white"/>
<path d="M34.4828 62.1377H31.0345V65.5515H34.4828V62.1377Z" fill="white"/>
<path d="M44.8276 62.1377H41.3793V65.5515H44.8276V62.1377Z" fill="white"/>
<path d="M51.7241 62.1377H48.2759V65.5515H51.7241V62.1377Z" fill="white"/>
<path d="M65.5172 62.1377H62.069V65.5515H65.5172V62.1377Z" fill="white"/>
<path d="M68.9655 62.1377H65.5172V65.5515H68.9655V62.1377Z" fill="white"/>
<path d="M75.8621 62.1377H72.4138V65.5515H75.8621V62.1377Z" fill="white"/>
<path d="M79.3103 62.1377H75.8621V65.5515H79.3103V62.1377Z" fill="white"/>
<path d="M86.2069 62.1377H82.7586V65.5515H86.2069V62.1377Z" fill="white"/>
<path d="M93.1034 62.1377H89.6552V65.5515H93.1034V62.1377Z" fill="white"/>
<path d="M6.89655 65.5515H3.44828V68.9653H6.89655V65.5515Z" fill="white"/>
<path d="M10.3448 65.5515H6.89655V68.9653H10.3448V65.5515Z" fill="white"/>
<path d="M17.2414 65.5515H13.7931V68.9653H17.2414V65.5515Z" fill="white"/>
<path d="M31.0345 65.5515H27.5862V68.9653H31.0345V65.5515Z" fill="white"/>
<path d="M34.4828 65.5515H31.0345V68.9653H34.4828V65.5515Z" fill="white"/>
<path d="M41.3793 65.5515H37.931V68.9653H41.3793V65.5515Z" fill="white"/>
<path d="M51.7241 65.5515H48.2759V68.9653H51.7241V65.5515Z" fill="white"/>
<path d="M58.6207 65.5515H55.1724V68.9653H58.6207V65.5515Z" fill="white"/>
<path d="M62.069 65.5515H58.6207V68.9653H62.069V65.5515Z" fill="white"/>
<path d="M65.5172 65.5515H62.069V68.9653H65.5172V65.5515Z" fill="white"/>
<path d="M68.9655 65.5515H65.5172V68.9653H68.9655V65.5515Z" fill="white"/>
<path d="M72.4138 65.5515H68.9655V68.9653H72.4138V65.5515Z" fill="white"/>
<path d="M79.3103 65.5515H75.8621V68.9653H79.3103V65.5515Z" fill="white"/>
<path d="M82.7586 65.5515H79.3103V68.9653H82.7586V65.5515Z" fill="white"/>
<path d="M86.2069 65.5515H82.7586V68.9653H86.2069V65.5515Z" fill="white"/>
<path d="M89.6552 65.5515H86.2069V68.9653H89.6552V65.5515Z" fill="white"/>
<path d="M100 65.5515H96.5517V68.9653H100V65.5515Z" fill="white"/>
<path d="M3.44828 68.9653H0L0 72.3791H3.44828V68.9653Z" fill="white"/>
<path d="M10.3448 68.9653H6.89655V72.3791H10.3448V68.9653Z" fill="white"/>
<path d="M24.1379 68.9653H20.6897V72.3791H24.1379V68.9653Z" fill="white"/>
<path d="M27.5862 68.9653H24.1379V72.3791H27.5862V68.9653Z" fill="white"/>
<path d="M31.0345 68.9653H27.5862V72.3791H31.0345V68.9653Z" fill="white"/>
<path d="M37.931 68.9653H34.4828V72.3791H37.931V68.9653Z" fill="white"/>
<path d="M41.3793 68.9653H37.931V72.3791H41.3793V68.9653Z" fill="white"/>
<path d="M44.8276 68.9653H41.3793V72.3791H44.8276V68.9653Z" fill="white"/>
<path d="M48.2759 68.9653H44.8276V72.3791H48.2759V68.9653Z" fill="white"/>
<path d="M55.1724 68.9653H51.7241V72.3791H55.1724V68.9653Z" fill="white"/>
<path d="M62.069 68.9653H58.6207V72.3791H62.069V68.9653Z" fill="white"/>
<path d="M72.4138 68.9653H68.9655V72.3791H72.4138V68.9653Z" fill="white"/>
<path d="M75.8621 68.9653H72.4138V72.3791H75.8621V68.9653Z" fill="white"/>
<path d="M79.3103 68.9653H75.8621V72.3791H79.3103V68.9653Z" fill="white"/>
<path d="M82.7586 68.9653H79.3103V72.3791H82.7586V68.9653Z" fill="white"/>
<path d="M86.2069 68.9653H82.7586V72.3791H86.2069V68.9653Z" fill="white"/>
<path d="M89.6552 68.9653H86.2069V72.3791H89.6552V68.9653Z" fill="white"/>
<path d="M100 68.9653H96.5517V72.3791H100V68.9653Z" fill="white"/>
<path d="M31.0345 72.3791H27.5862V75.7929H31.0345V72.3791Z" fill="white"/>
<path d="M48.2759 72.3791H44.8276V75.7929H48.2759V72.3791Z" fill="white"/>
<path d="M51.7241 72.3791H48.2759V75.7929H51.7241V72.3791Z" fill="white"/>
<path d="M55.1724 72.3791H51.7241V75.7929H55.1724V72.3791Z" fill="white"/>
<path d="M65.5172 72.3791H62.069V75.7929H65.5172V72.3791Z" fill="white"/>
<path d="M68.9655 72.3791H65.5172V75.7929H68.9655V72.3791Z" fill="white"/>
<path d="M72.4138 72.3791H68.9655V75.7929H72.4138V72.3791Z" fill="white"/>
<path d="M86.2069 72.3791H82.7586V75.7929H86.2069V72.3791Z" fill="white"/>
<path d="M89.6552 72.3791H86.2069V75.7929H89.6552V72.3791Z" fill="white"/>
<path d="M93.1034 72.3791H89.6552V75.7929H93.1034V72.3791Z" fill="white"/>
<path d="M96.5517 72.3791H93.1034V75.7929H96.5517V72.3791Z" fill="white"/>
<path d="M100 72.3791H96.5517V75.7929H100V72.3791Z" fill="white"/>
<path d="M3.44828 75.7929H0L0 79.2067H3.44828V75.7929Z" fill="white"/>
<path d="M6.89655 75.7929H3.44828V79.2067H6.89655V75.7929Z" fill="white"/>
<path d="M10.3448 75.7929H6.89655V79.2067H10.3448V75.7929Z" fill="white"/>
<path d="M13.7931 75.7929H10.3448V79.2067H13.7931V75.7929Z" fill="white"/>
<path d="M17.2414 75.7929H13.7931V79.2067H17.2414V75.7929Z" fill="white"/>
<path d="M20.6897 75.7929H17.2414V79.2067H20.6897V75.7929Z" fill="white"/>
<path d="M24.1379 75.7929H20.6897V79.2067H24.1379V75.7929Z" fill="white"/>
<path d="M37.931 75.7929H34.4828V79.2067H37.931V75.7929Z" fill="white"/>
<path d="M44.8276 75.7929H41.3793V79.2067H44.8276V75.7929Z" fill="white"/>
<path d="M48.2759 75.7929H44.8276V79.2067H48.2759V75.7929Z" fill="white"/>
<path d="M55.1724 75.7929H51.7241V79.2067H55.1724V75.7929Z" fill="white"/>
<path d="M65.5172 75.7929H62.069V79.2067H65.5172V75.7929Z" fill="white"/>
<path d="M72.4138 75.7929H68.9655V79.2067H72.4138V75.7929Z" fill="white"/>
<path d="M79.3103 75.7929H75.8621V79.2067H79.3103V75.7929Z" fill="white"/>
<path d="M86.2069 75.7929H82.7586V79.2067H86.2069V75.7929Z" fill="white"/>
<path d="M100 75.7929H96.5517V79.2067H100V75.7929Z" fill="white"/>
<path d="M3.44828 79.2067H0L0 82.6205H3.44828V79.2067Z" fill="white"/>
<path d="M24.1379 79.2067H20.6897V82.6205H24.1379V79.2067Z" fill="white"/>
<path d="M41.3793 79.2067H37.931V82.6205H41.3793V79.2067Z" fill="white"/>
<path d="M44.8276 79.2067H41.3793V82.6205H44.8276V79.2067Z" fill="white"/>
<path d="M48.2759 79.2067H44.8276V82.6205H48.2759V79.2067Z" fill="white"/>
<path d="M51.7241 79.2067H48.2759V82.6205H51.7241V79.2067Z" fill="white"/>
<path d="M72.4138 79.2067H68.9655V82.6205H72.4138V79.2067Z" fill="white"/>
<path d="M86.2069 79.2067H82.7586V82.6205H86.2069V79.2067Z" fill="white"/>
<path d="M93.1034 79.2067H89.6552V82.6205H93.1034V79.2067Z" fill="white"/>
<path d="M3.44828 82.6205H0L0 86.0343H3.44828V82.6205Z" fill="white"/>
<path d="M10.3448 82.6205H6.89655V86.0343H10.3448V82.6205Z" fill="white"/>
<path d="M13.7931 82.6205H10.3448V86.0343H13.7931V82.6205Z" fill="white"/>
<path d="M17.2414 82.6205H13.7931V86.0343H17.2414V82.6205Z" fill="white"/>
<path d="M24.1379 82.6205H20.6897V86.0343H24.1379V82.6205Z" fill="white"/>
<path d="M31.0345 82.6205H27.5862V86.0343H31.0345V82.6205Z" fill="white"/>
<path d="M34.4828 82.6205H31.0345V86.0343H34.4828V82.6205Z" fill="white"/>
<path d="M48.2759 82.6205H44.8276V86.0343H48.2759V82.6205Z" fill="white"/>
<path d="M55.1724 82.6205H51.7241V86.0343H55.1724V82.6205Z" fill="white"/>
<path d="M62.069 82.6205H58.6207V86.0343H62.069V82.6205Z" fill="white"/>
<path d="M65.5172 82.6205H62.069V86.0343H65.5172V82.6205Z" fill="white"/>
<path d="M72.4138 82.6205H68.9655V86.0343H72.4138V82.6205Z" fill="white"/>
<path d="M75.8621 82.6205H72.4138V86.0343H75.8621V82.6205Z" fill="white"/>
<path d="M79.3103 82.6205H75.8621V86.0343H79.3103V82.6205Z" fill="white"/>
<path d="M82.7586 82.6205H79.3103V86.0343H82.7586V82.6205Z" fill="white"/>
<path d="M86.2069 82.6205H82.7586V86.0343H86.2069V82.6205Z" fill="white"/>
<path d="M93.1034 82.6205H89.6552V86.0343H93.1034V82.6205Z" fill="white"/>
<path d="M96.5517 82.6205H93.1034V86.0343H96.5517V82.6205Z" fill="white"/>
<path d="M100 82.6205H96.5517V86.0343H100V82.6205Z" fill="white"/>
<path d="M3.44828 86.0343H0L0 89.4481H3.44828V86.0343Z" fill="white"/>
<path d="M10.3448 86.0343H6.89655V89.4481H10.3448V86.0343Z" fill="white"/>
<path d="M13.7931 86.0343H10.3448V89.4481H13.7931V86.0343Z" fill="white"/>
<path d="M17.2414 86.0343H13.7931V89.4481H17.2414V86.0343Z" fill="white"/>
<path d="M24.1379 86.0343H20.6897V89.4481H24.1379V86.0343Z" fill="white"/>
<path d="M41.3793 86.0343H37.931V89.4481H41.3793V86.0343Z" fill="white"/>
<path d="M48.2759 86.0343H44.8276V89.4481H48.2759V86.0343Z" fill="white"/>
<path d="M58.6207 86.0343H55.1724V89.4481H58.6207V86.0343Z" fill="white"/>
<path d="M65.5172 86.0343H62.069V89.4481H65.5172V86.0343Z" fill="white"/>
<path d="M68.9655 86.0343H65.5172V89.4481H68.9655V86.0343Z" fill="white"/>
<path d="M72.4138 86.0343H68.9655V89.4481H72.4138V86.0343Z" fill="white"/>
<path d="M75.8621 86.0343H72.4138V89.4481H75.8621V86.0343Z" fill="white"/>
<path d="M79.3103 86.0343H75.8621V89.4481H79.3103V86.0343Z" fill="white"/>
<path d="M86.2069 86.0343H82.7586V89.4481H86.2069V86.0343Z" fill="white"/>
<path d="M96.5517 86.0343H93.1034V89.4481H96.5517V86.0343Z" fill="white"/>
<path d="M3.44828 89.4481H0L0 92.8619H3.44828V89.4481Z" fill="white"/>
<path d="M10.3448 89.4481H6.89655V92.8619H10.3448V89.4481Z" fill="white"/>
<path d="M13.7931 89.4481H10.3448V92.8619H13.7931V89.4481Z" fill="white"/>
<path d="M17.2414 89.4481H13.7931V92.8619H17.2414V89.4481Z" fill="white"/>
<path d="M24.1379 89.4481H20.6897V92.8619H24.1379V89.4481Z" fill="white"/>
<path d="M31.0345 89.4481H27.5862V92.8619H31.0345V89.4481Z" fill="white"/>
<path d="M34.4828 89.4481H31.0345V92.8619H34.4828V89.4481Z" fill="white"/>
<path d="M37.931 89.4481H34.4828V92.8619H37.931V89.4481Z" fill="white"/>
<path d="M48.2759 89.4481H44.8276V92.8619H48.2759V89.4481Z" fill="white"/>
<path d="M51.7241 89.4481H48.2759V92.8619H51.7241V89.4481Z" fill="white"/>
<path d="M55.1724 89.4481H51.7241V92.8619H55.1724V89.4481Z" fill="white"/>
<path d="M62.069 89.4481H58.6207V92.8619H62.069V89.4481Z" fill="white"/>
<path d="M68.9655 89.4481H65.5172V92.8619H68.9655V89.4481Z" fill="white"/>
<path d="M72.4138 89.4481H68.9655V92.8619H72.4138V89.4481Z" fill="white"/>
<path d="M93.1034 89.4481H89.6552V92.8619H93.1034V89.4481Z" fill="white"/>
<path d="M96.5517 89.4481H93.1034V92.8619H96.5517V89.4481Z" fill="white"/>
<path d="M3.44828 92.8619H0L0 96.2757H3.44828V92.8619Z" fill="white"/>
<path d="M24.1379 92.8619H20.6897V96.2757H24.1379V92.8619Z" fill="white"/>
<path d="M31.0345 92.8619H27.5862V96.2757H31.0345V92.8619Z" fill="white"/>
<path d="M34.4828 92.8619H31.0345V96.2757H34.4828V92.8619Z" fill="white"/>
<path d="M48.2759 92.8619H44.8276V96.2757H48.2759V92.8619Z" fill="white"/>
<path d="M62.069 92.8619H58.6207V96.2757H62.069V92.8619Z" fill="white"/>
<path d="M72.4138 92.8619H68.9655V96.2757H72.4138V92.8619Z" fill="white"/>
<path d="M82.7586 92.8619H79.3103V96.2757H82.7586V92.8619Z" fill="white"/>
<path d="M93.1034 92.8619H89.6552V96.2757H93.1034V92.8619Z" fill="white"/>
<path d="M3.44828 96.2757H0L0 99.6895H3.44828V96.2757Z" fill="white"/>
<path d="M6.89655 96.2757H3.44828V99.6895H6.89655V96.2757Z" fill="white"/>
<path d="M10.3448 96.2757H6.89655V99.6895H10.3448V96.2757Z" fill="white"/>
<path d="M13.7931 96.2757H10.3448V99.6895H13.7931V96.2757Z" fill="white"/>
<path d="M17.2414 96.2757H13.7931V99.6895H17.2414V96.2757Z" fill="white"/>
<path d="M20.6897 96.2757H17.2414V99.6895H20.6897V96.2757Z" fill="white"/>
<path d="M24.1379 96.2757H20.6897V99.6895H24.1379V96.2757Z" fill="white"/>
<path d="M31.0345 96.2757H27.5862V99.6895H31.0345V96.2757Z" fill="white"/>
<path d="M41.3793 96.2757H37.931V99.6895H41.3793V96.2757Z" fill="white"/>
<path d="M44.8276 96.2757H41.3793V99.6895H44.8276V96.2757Z" fill="white"/>
<path d="M48.2759 96.2757H44.8276V99.6895H48.2759V96.2757Z" fill="white"/>
<path d="M51.7241 96.2757H48.2759V99.6895H51.7241V96.2757Z" fill="white"/>
<path d="M55.1724 96.2757H51.7241V99.6895H55.1724V96.2757Z" fill="white"/>
<path d="M65.5172 96.2757H62.069V99.6895H65.5172V96.2757Z" fill="white"/>
<path d="M86.2069 96.2757H82.7586V99.6895H86.2069V96.2757Z" fill="white"/>
<path d="M89.6552 96.2757H86.2069V99.6895H89.6552V96.2757Z" fill="white"/>
<path d="M93.1034 96.2757H89.6552V99.6895H93.1034V96.2757Z" fill="white"/>
<path d="M96.5517 96.2757H93.1034V99.6895H96.5517V96.2757Z" fill="white"/>
</svg>
