<svg width="39" height="39" viewBox="0 0 39 39" fill="none" xmlns="http://www.w3.org/2000/svg">
<path d="M11.375 35.75C10.4812 35.75 9.71615 35.4318 9.07969 34.7953C8.44323 34.1589 8.125 33.3937 8.125 32.5C8.125 31.6062 8.44323 30.8411 9.07969 30.2047C9.71615 29.5682 10.4812 29.25 11.375 29.25C12.2687 29.25 13.0339 29.5682 13.6703 30.2047C14.3068 30.8411 14.625 31.6062 14.625 32.5C14.625 33.3937 14.3068 34.1589 13.6703 34.7953C13.0339 35.4318 12.2687 35.75 11.375 35.75ZM27.625 35.75C26.7312 35.75 25.9661 35.4318 25.3297 34.7953C24.6932 34.1589 24.375 33.3937 24.375 32.5C24.375 31.6062 24.6932 30.8411 25.3297 30.2047C25.9661 29.5682 26.7312 29.25 27.625 29.25C28.5187 29.25 29.2839 29.5682 29.9203 30.2047C30.5568 30.8411 30.875 31.6062 30.875 32.5C30.875 33.3937 30.5568 34.1589 29.9203 34.7953C29.2839 35.4318 28.5187 35.75 27.625 35.75ZM9.99375 9.75L13.8937 17.875H25.2687L29.7375 9.75H9.99375ZM8.45 6.5H32.4187C33.0417 6.5 33.5156 6.7776 33.8406 7.33281C34.1656 7.88802 34.1792 8.45 33.8812 9.01875L28.1125 19.4187C27.8146 19.9604 27.4151 20.3802 26.9141 20.6781C26.413 20.976 25.8646 21.125 25.2687 21.125H13.1625L11.375 24.375H30.875V27.625H11.375C10.1562 27.625 9.23542 27.0901 8.6125 26.0203C7.98958 24.9505 7.9625 23.8875 8.53125 22.8312L10.725 18.85L4.875 6.5H1.625V3.25H6.90625L8.45 6.5Z" fill="#0077BE"/>
</svg>
