<svg width="418" height="492" viewBox="0 0 418 492" fill="none" xmlns="http://www.w3.org/2000/svg">
<rect width="418" height="492" fill="#19428C"/>
<mask id="mask0_2048_319" style="mask-type:alpha" maskUnits="userSpaceOnUse" x="3" y="6" width="412" height="485">
<rect x="4.47847" y="7.47847" width="409.043" height="481.981" fill="#19428C" stroke="#4C7BD1" stroke-width="2.95694"/>
</mask>
<g mask="url(#mask0_2048_319)">
<circle cx="3.31837" cy="3.31837" r="3.31837" transform="matrix(-0.922961 0.384894 0.384894 0.922961 16.7485 339.503)" fill="#839BC5"/>
<circle cx="75.5287" cy="404.737" r="3.31837" transform="rotate(-52.6372 75.5287 404.737)" fill="#839BC5"/>
<circle cx="82.8492" cy="376.922" r="1.84354" transform="rotate(-52.6372 82.8492 376.922)" fill="#839BC5"/>
<circle cx="1.84354" cy="1.84354" r="1.84354" transform="matrix(-0.922961 0.384894 0.384894 0.922961 326.191 219.499)" fill="#839BC5"/>
<circle cx="1.84354" cy="1.84354" r="1.84354" transform="matrix(-0.922961 0.384894 0.384894 0.922961 150.776 296.495)" fill="#839BC5"/>
<circle cx="3.31837" cy="3.31837" r="3.31837" transform="matrix(-0.922961 0.384894 0.384894 0.922961 112.532 293.418)" fill="#839BC5"/>
<path d="M240.247 284C214.475 284 191.96 297.937 179.823 318.686C176.572 318.353 173.258 318.182 169.894 318.182C138.431 318.182 111.347 333.18 99.2031 354.728C88.9548 343.505 74.2037 336.465 57.8086 336.465C27.237 336.465 2.38374 360.944 1.77829 391.371C-15.4281 389.25 -34.0586 396.571 -46.4971 412.123C-60.0241 429.036 -62.4442 450.954 -54.3926 467.979C-49.2654 481.188 -39.2156 491.338 -14.1319 497.439H429.833C432.598 497.941 435.44 498.185 438.339 498.147C465.036 497.804 486.372 473.75 485.995 444.421C485.618 415.092 463.671 391.593 436.974 391.937C433.351 391.983 429.828 392.467 426.444 393.341C425.205 373.952 415.638 353.376 398.53 337.218C369.232 309.547 328.263 304.698 303.946 324.999C292.935 300.813 268.555 284 240.247 284Z" fill="#142973"/>
<circle cx="3.31837" cy="3.31837" r="3.31837" transform="matrix(-0.331213 -0.943556 -0.943556 0.331213 396.915 120.582)" fill="#839BC5"/>
<circle cx="328.41" cy="175.516" r="3.31837" transform="rotate(40.6576 328.41 175.516)" fill="#839BC5"/>
<circle cx="1.84354" cy="1.84354" r="1.84354" transform="matrix(-0.331213 -0.943556 -0.943556 0.331213 396.24 91.1128)" fill="#839BC5"/>
<circle cx="355.759" cy="184.422" r="1.84354" transform="rotate(40.6576 355.759 184.422)" fill="#839BC5"/>
<circle cx="1.84354" cy="1.84354" r="1.84354" transform="matrix(-0.331213 -0.943556 -0.943556 0.331213 338.779 49.8095)" fill="#839BC5"/>
<circle cx="3.31837" cy="3.31837" r="3.31837" transform="matrix(-0.331213 -0.943556 -0.943556 0.331213 343.014 39.6086)" fill="#839BC5"/>
</g>
</svg>
